<svg xmlns="http://www.w3.org/2000/svg" width="769.3" height="1000.8" cursor="pointer" style="height:100%" version="1.0" viewBox="0 0 1077 1401">
  <defs/>
  <g fill="none" stroke-miterlimit="2" stroke-width="2">
    <g stroke="#000">
      <path d="M163 85s0 0 0 0h-2l-2 1-1 1h-2l-1 2-2 1-2 1v2l2 1v3l-2 1-2 1-1 1-1 2-2 1-1 2-1 1-2 1h-2l-3 1-1 1-1 1-2 2 1 1h1l1 2 2 1 1 2 1 2v4l-1 2v2l-2 1-1 1-2 1-2 1-2 1-1 1-1 2v4l-1 2-1 1-1 2-1 1h-8l-1 1v2l-1 2v2l1 2v3l-1 1h-1v6l-1 3v2l1 3v3h1l1 2v1l1 1v1l1 1 1 1v1l-1 1v1h-1v3l2 2-1 3v2l-1 1-1 2-1 1-1 1-1 1h-1l-1 1-1 1h-1v1l-1 1h-2l-4 1h-1-2l-3-1-2-1-3 1h-3l-3-1-2-1-1-1h-4l-2 1v1l-1 1-1 2c-1 1-1 2-3 2 0 0 0 0 0 0v1l-2 1-2-1c-1-1 0 0 0 0l-1-1s0 0 0 0 0 0 0 0l-2 2-3 1v-1l-3 1-2 1-2 2-1 1h-1-1l-1-1s0 0 0 0h-2l-2 1s0 0 0 0l2 1 1 1 2 2 2 1v1l-1 2-2 2-1 1-1 2-2 1v2l1 2 1 1v5l-1 1-1 1-2 2-1 1c-1 1-1-1-1-1h-2l-2 1h-2l-1 2-2 1-1 2-1 1h-3l-1 1-1 2-1 2h-2l-2-1-2-1-3-1-1 1-1 2h-2l-2-2-1 2-2 1-1 1-2 1s0 0 0 0c-2 0-1 2-1 2l2 1v2l1 1v2l1 2 1 2h2l2-1 1 2 1 2v2l1 2-1 2v3l1 2 2 1 2 2 1 2 1 1 2 1 2 1h4l2-2h2l2 2h2v2l2 1-1 1-1 2 1 2 1 1-1 2 1 2 1 1 2 2 1 1 1 2c0 2-2 1-3 1h-6l-1 1-1 2-1 1v2l2 1c1 1 0 1-1 1l-1 1v3l-1 1-1 2-1 1-2 1-2 1-1 1v3l1 2 1 2 1 1 1 1 2 1 1 2 1 2h-2-1v2l-1 2v2l-1 2 2 1 1 1 1 2 1 2 1 1v2l2 1 1 1 1 2v2l-1 1 2 1 2 1h2l2-1 1 1 2 2 1 1h2l1 1 1-2c1-1 1 0 2 1v1l2 2h2v2l2 1 1 1h2l1-1 1 2 2-1 1-1v3l1 1h1l2-1h1l1 1h2l1-1h3s0 0 0 0h-2s0 0 0 0h2l2-2c0-1 1-2 2 0 0 2 1-1 1-1l4-1 4-1c1-1 1-2 3-2s3 0 2 2l-1 3c-1 2-2 1 0 3l1 1 2-1 3-1 3 1 2 1h2l1 1h1s0 0 0 0h7a29 29 0 001 1s0 0 0 0v-1s0 0 0 0v-1-1l-1-2 1-1 1-1h2l1-1c0-1 0 0 0 0h3l3-1s0 0 0 0v-1-3-1l-1-1v-4-3-2l1-1 2-2 2-2 2-1 1-1v-4l1-2 1-1 1-1h1l1-3v-2l1-3 2-2 2-2h4l3 2 1 1h1l2 2s0 0 0 0 0 0 0 0h2v-1l1-2 2-2 2-1s0 0 0 0l1-1h3l3 1h3l2 1h2l3 1 2 1v-1l1-1 2-1 3-1 2 1h1s0 0 0 0l1-1 1-2 2-2 2-1h2l2-1 1-1v-1-1-1l-1-2 1-2 1-1h1l2-1 1-1 2-1 1-1 2 1 1 1 2 2 1 2h4l1 1 1 1 1 1v2h1v1h4l2-1v-1s0 0 0 0l-1-3 1-3v-2c0-1 0 0 0 0v-2-1-1s0 0 0 0v-4l1-2-1-2-3-4-1-2-1-1c-1 0 0 0 0 0h-3l-3-1-1-2v-1-3l-1-2h-1l-1-1h-1-2l-1-1h-1v-3-3-2s0 0 0 0l-1-1-3-1-1-1-1-1v-1s0 0 0 0v-1-2l1-1-2 1h-2l-3 1h-13l-2-1h-2l-1-1c-1-1 0 0 0 0l-1-6v-3a7 7 0 00-2-4l-1-2h-1s0 0 0 0a38 38 0 01-4-2v-1s0 0 0 0v-3-2l-1-1v-3l1-1s0 0 0 0l-1-2-1-3-3-3-1-2 1-4a19 19 0 013-2h2l6 1h3l1 1 1 2v2l2 3v0l2-1v-2-3-2l1-2 6-2 2-1h2s0 0 0 0h2v-2-1l-1-1-2-4a15 15 0 00-2-3h-1l-2-2-2-1-2-5v-1l-1-2v-1-1l-3-2-1-1v-1l1-1 1-1 1-1v-1s0 0 0 0l-1-1-1-1-1-1s0 0 0 0l-1-2-1-2-2-1-3-2-1-5-1-2v-4l1-2 1-2v-7l2-5 3-3 3-4s0 0 0 0l2-4 1-3v-2-2l-1-2v-3-1s0 0 0 0l-3-1h-2l-1-2-1-2-1-2-2-2-1-1 1-2-2-1-2-1-1-1-2-1-1-2-1-1-1-2-1-1-1-2 1-2 1-1 1-1v-2l1-3-1-2 1-1 1-2-1-2v-2l-1-2-1-1-2-1s0 0 0 0zM528 56l-1 1-1 2-1 1-1 1-1 1s0 0 0 0 0 0 0 0v1l-1 2h-1l-4 1-3-1-2 1-3 1-2 2h-1l-1-1-1-1s0 0 0 0l-2-3-1-1-1-1h-1s0 0 0 0 0 0 0 0 0 0 0 0 0 0 0 0v-1h-1v-1s0 0 0 0l-3-1-1-1s0 0 0 0h-1s0 0 0 0v3l-1 2v1l-1 1-1 1-2 2v1h-1v4l-1 1v1l-2 2-2 2-1 1-2-1-1-1h-1-1v1l-1 1h-1l-1 1h-2s0 0 0 0 0 0 0 0l-1 1h1v1h1s0 0 0 0 0 0 0 0 0 0 0 0 0 0 0 0h2l1 1h1v3s0 0 0 0v2l-1 1-1 1h-1l-1 1h-1l-1 2v1l1 2-1 2-1 1h-1v1l1 1v1l1 1 1 1-1 2v1h1l1 1 3 1h3l1 1v5l1 2v8h-1l-1 1-1 2-1 1-2 1-1 1h-3l-3 1h-7l-1 1h-1v2l-1 3v1l1 1v3l1 3-1 2-1 1-2 1-1 1h-5l-2-1c-1-1 0 0 0 0l-2-2-2-2-1-2h-2s0 0 0 0 0 0 0 0l-1 1-1 1v1l-3 2h-5s0 0 0 0l-1 2-1 2-1 1v4l-1 1-1 1h-1l-2-1-1-1h-1l-1-2s0 0 0 0h-1s0 0 0 0l-1 1v1l-1 1s0 0 0 0v5l-1 3-1 2-1 2v1l-1 1h-1l-1 3v5l-1 3-2 1s0 0 0 0v1l-2 2h-2-1a43496 43496 0 00-4 0h-1v-1s0 0 0 0 0 0 0 0h-1v-1l-1 2-2 1-1 1-2 1h-2l-1-1-2-2-1-1-1-1a18 18 0 00-2-1l-1-1v-2l1-3 1-2 1-1v-2l1-3v-3s0 0 0 0l-1-1-3-1v1l-1 3-1 2c-1 1 0 0 0 0l-1 3-2 2-1 1-1 1s0 0 0 0v4l-1 1v1l-2 1-1 3-1 1s0 0 0 0h0l-1 3-1 1v1l-1 3-1 1-1 1s0 0 0 0v1s0 0 0 0v2l-1 1h-1v2l1 1v4s0 0 0 0l1 3 1 2v3s0 0 0 0h2l4 1 1 1v5l-2 2s0 0 0 0l-1 1h-1s0 0 0 0v1s0 0 0 0v1s0 0 0 0 0 0 0 0 0 0 0 0l1 2 1 2h2s0 0 0 0h3l2 1c1 1 0 0 0 0l2 2 2 2 2 1 2 1 1 1h2v1l1 2s0 0 0 0h2v1h1l1 2s0 0 0 0l4 2-1 1v2s0 0 0 0h1l2 1 1 1v1s0 0 0 0v2s0 0 0 0h2l1 1 1-1 2-1s0 0 0 0l2-1h2l1 1h1l1 1h1l1 1v2h-1l-1 1s0 0 0 0 0 0 0 0l-1 1s0 0 0 0h1v1s0 0 0 0 0 0 0 0h3s0 0 0 0 0 0 0 0h1v-1a3 3 0 014 1l1 2 1 2v1l1 2h1l1 1 2 1h3l3 2s0 0 0 0l1 1v2h1v4h2l2-1h2l1 1 2 1v2s0 0 0 0l3 2h6l2-1 3-2 2-2 3-2 3-2 3-1h10l5 1h1l1-1h8l1 1 1 1 1 1 1 1s0 0 0 0l1-1h4l1 1h2l2-1h4l1 2v3s0 0 0 0v5l1 2h1l1 2v1l2 1h1l-1-2-2-1-1-1 2-1 1 1 1 2 1 2v2 1c1 1 2 0 2-1l-2-2 2 2 1 1v-2l2-1-1-1-1-1 1-1v-1l-1-1-1-2 2-1v-2l2-1v4l-1 1 1 2v2l2 1 1-1 1-2 1-2v-2l1-2h-2l1-2 1-1v-2l2-1v-1l1-2-1-2-1-1h-3l-2-1v-2l-1-1-1 1v-1-1l-2-1-2 1-1 1-1 2-1-1 1-2h2v-2-1h-2v-1-2l-1-1-1-1-2-2v-2-1l-1-2 1-1 1-2-2-2-1-2-1-1 1-2v-1c-1-1-2 0-2-2l1-1 1-2v-3l1-2v-2l1-2 1-2 1-2v-2l1-1 2-2 1-1 1-2-1-1-2 1v2h-1l-1 2-1 1-1 2v2l-1 2-1 2v2l-1 2v2l-1 2v2 2l1 2v2h-2s2-1 0-1v1s-1-1-1 1l1 1-1 1h-2l-1-2 1-1-1-2v-1l1-2-1-2 1-1-1-1c-2-1-1 0-1 1l-2 1-1-1c-1-1-1 1-2-1v-3l1-2v-2-2l-1-2-1-2 2-1h4v-3l1-1h2l1-1v-2l1-2 1-1 1 1 1 2 1 1h2l1 1 1 1 1-1-2-2v-1h-2l-2-1-1-1v-2l2-1h2l1-1c0-1 1 1 1-1v-2h2c1 1 1-1 1-1v2h2v-2l2-1 2-1 1-1h2l2 1h1c1-1 0-2-1-2l-1-1 2-1 3 1 1 1 1 2-1 1-2 1-2 1-2 1-1 1-2 1-1 1-2 1-1 1-1 1-3-1v2h3v3l1 1 1-1 1-1 2-1 2-1h2l2-1 1-1 2-1v-1h1l3-1 2-1 1-1h3l2-1 1-1 2-1 2-1h2l1-1 2-2 1-1 3-1 2-2 2-1 1-2 2-1h2l1-1 1-1 1 2h6l1-1v-1h-1l-1-1-1-1v-2l-1-1v-2-1-1s0 0 0 0l-1-1h-1v-1-1h-1l-1-1v-1-2-1l-2-2v-3-4l1-1v-1h-1l-1 1-1 1h-2-1l1 1-1 1v1h-1-4l-2-1-3-1-3-1s0 0 0 0l-2 1s0 0 0 0h-1-1a19 19 0 00-1 3s0 0 0 0h-1s0 0 0 0h-1l-3 1-3-1h-3l-3-1v-1h-1l-1-1s0 0 0 0l-1-1-1-1-1-3v-2l-1-1-1-1h-1l-1-1-2-2-2-1v-1h-1-1l-1-1 1-1 1-2 1-3v-3l1-3 1-2v-3l1-3 2-2v-1l1-1 1-2-2-3-1-1v-1s0 0 0 0v-1h-1l-1-1-1-1h-3l-2-1-1-2-1-2v-3-2l1-2s0 0 0 0v-1l1-2 1-1 2-3 1-1 1-3 3-2h1s0 0 0 0l1-2 1-1 2-1s0 0 0 0l-1-1v-1l1-1 1-1 2-1h2v1s0 0 0 0h3l1-2 3-2h1s0 0 0 0 0 0 0 0l-2-1s0 0 0 0v-1h-1s0 0 0 0l-1-1v-2l2-2h3l2-1 3-1 2-1h1s0 0 0 0 0 0 0 0v-2l-1-1-1-1v-5h-1l-1-2-3-1-2 1h-1l-2-1h-2l-1 1h-2l-2-1c-1 0 1-2-1-2h-2-2l-2-1s0 0 0 0z"/>
      <path d="M327 62l-1 2-1 1-2-1-1 1-2 1-2 1h-2s0 0 0 0l-1 2-1 1-1 2-1 1-1 2-1 1 1 2-1 2v1l-1 2 1 2 1 2v2l1 1 2 1 3-1h2l1 2 1 2-1 2-2 1-1 1-1 2-1 2 1 2 1 1 1 2 2 2 1 1 1 2-1 2-1 1-2 1h-4l-2 1h-1l-1-2 2-2-1-2-1-1-2-1-2-1-1-2-1-2 1-2v-1l-1-2-2-1-1-1h-4l-2 1-2 1h-2l-2 1-1 1-2 1-2-1h-2l-1 1-1 2v2l-1 2-1-1h-2l-1 1-2 1h-2l-1-1-2-1-2-1-1-1-2-1-1-2v-2l-2-1-1-1-2-2v-2-4-2-2l1-2v-2l-1-1-1-1h-2l-1 2-1 2h-1l-1-1-2-2v-1h-6l-1 1-1 2v4l-2 1-1 1 1 1 1 1 1 2v6l1 2 1 2-1 2v2l-1 2-1 1-1 2-1 2-1 1-1 3-1 1-1 2-2 2-1 1-1 2-2 1-1 1-2 1-1 1-1 2 1 1v2l-1 2-2 1-1 1-3 1v2l1 2v1l-1 2-1 1 1 2v4l3 1 2 1 1 1 1 1c1 1 0 1-1 2l-1 1-2 1v4l-1 2h-2l-1-1-1-2-1 2c-1 1-1 0-2-1v-1h-2l-2 1v-2l2-1 1-2-1-1-1-2v-2l-1-1-2-2v-2l-1-2h-2l-2-2-2-1-1-1v-2h1l2-2v-1-1l2-1v-1c1-1 0-1-1-2l-1-1-1-1h-2l-1 1-3-2-1-1-1 1h-4a34 34 0 001 6v4l-1 2-2 5v1l-4 3-3 3-1 4v7l-1 3-1 2v2l1 2 1 6 2 1 2 1 2 2 1 2s0 0 0 0l1 1 1 1 1 2v1l-1 2-2 1 1 1 2 2h1v3l1 2c1 1 0 0 0 0 0 3 0 3 2 4l1 2 2 1 1 1 1 1 1 2 3 4v1l1 2v4l-1 1s0 0 0 0l-2-1h-1-1l-3 1-4 1-1 1v8l-2 2-2 1s0 0 0 0h-1l-1-1v-2l-1-2-1-3s0 0 0 0l-1-1-3-1h-5-1l-1 1-1 1-1 1 1 1 2 5 2 2 1 2v2l-1 1v1s0 0 0 0l1 4v3s0 0 0 0h1l2 1s0 0 0 0 0 0 0 0c0 1 0 1 0 0l3 2 1 3 1 3v2l1 6s0 0 0 0h1l3 1h12l2-1h5l1 2v3s0 0 0 0 0 0 0 0v1s0 0 0 0h1l2 1 2 1 1 1v8s0 0 0 0h4l1 1 2 1 1 3v3s0 0 0 0v1l2 1h3l2 1 1 1 1 2 3 3 1 4-1 3v4h2s0 0 0 0v-1l2-1h2l1 1h1s0 0 0 0l1-2v-2l-1-3-1-1-1-2v-1l1-1 1-2 2-2 1-1v-1l1-1v-1l-1-1-1-1-2-1-1-1-1-1h-1l-1-2 1-1v-1l1-1 1-1 2-2 1-2v-1l1-1v-1l1-3v-2l1-1v-1l1-2 1-1c0-1 0 0 0 0l2-3 2-1 3-1 3-1h1l2 1s0 0 0 0l1 1-1-3v-1l1-1c0-1 2-2 4 0v1c0 1 0 0 0 0l1 1s0 0 0 0l1-1v-1l2-1h1l2 1 1 3v2s0 0 0 0 0 0 0 0l2 2h2s0 0 0 0h1l1 1v-3-1l1-1h2l3 2 1 1 1 1v1h1l1-2v-1l1-1h2s0 0 0 0 0 0 0 0l-1-1v-2l1-1v-1-2s0 0 0 0v-1h2l2 2 1 1v1l1 1s0 0 0 0h3l1-1h1l1 1 1 3 1 3 1 2v1h1l4 1 3 1h3l3 1h3l1 1 1 1 2 1 2 2 2 2h3l2 1a13 13 0 016 1h1s0 0 0 0l1 1 1 1s0 0 0 0l2 1v1s0 0 0 0l2 1s0 0 0 0h1l3 1h3l1-1 1-1 2-1 2-2 3-2 1-2 1-2 1-1 1 1h1l1 1v1l1 1v4h2l3 1 3 2 3 1 1 1h1s0 0 0 0a11 11 0 002-1l1-2 1-2h2l1-1h5l1-1h5l3 1h7l3-1h10l2 1h1l2 1 1 1s0 0 0 0 0 0 0 0v-1-1l-1-1v-1l-1-1-1-1h-3l-2-1-2-1-1-1-2-2v-2l-1-1-1-2s0 0 0 0h-1s0 0 0 0l-1 1h-1s0 0 0 0h-1s0 0 0 0h-1-1s0 0 0 0h-1v-1h-1v-1h-1s0 0 0 0 0 0 0 0 0 0 0 0 0 0 0 0 0 0 0 0a615 615 0 010-2l1-1 1-1h1s0 0 0 0v-1h-2-1l-1-1h-1s0 0 0 0l-2 1-1 1h-3-2-1l-1-1v-1-1-1-1h-2l-2-1v-4h-1l-1-1-1-1s0 0 0 0l-1-1h-1s0 0 0 0l-1-1-1-1-1-1s0 0 0 0l-1-1-1-1h-2l-2-2-2-1-2-2-1-1s0 0 0 0h-2s0 0 0 0h-1s0 0 0 0 0 0 0 0h-1l-2-1-2-2-1-3s0 0 0 0 0 0 0 0 0 0 0 0v-1l-1-1 1-1 1-1h2s0 0 0 0 0 0 0 0l1-2v-2-1-1h-3-2l-2-1v-1-1c0-1 0 0 0 0v-1l-1-2-1-3v-1-1-1-1-1l-1-2 1-2 1-1s0 0 0 0 0 0 0 0v-1-1-1l1-1h1v-1l1-2v-2l1-1 1-2v-1l1-1s0 0 0 0l2-3 1-2h1s0 0 0 0v-2a8 8 0 010-2l1-1 1-1v-1l2-2 1-2 1-2c0-1 0 0 0 0l1-3s0 0 0 0 0 0 0 0 0 0 0 0l-1 1h-4-5l-1 1-2 1a46 46 0 00-3 1v1l-2 1-1 1h-1l-2 1-2-1-1-1v-2-2s0 0 0 0l-3-1-1-1h-1l-1-1-1-2v-1-1l-1-1v-1l1-2 1-2 1-1v-1s0 0 0 0l-1-1v-1l-1-1s0 0 0 0 0 0 0 0l-1-1v-2-3-2-1l2-3 1-1 1-3 2-2 1-3 1-1a6 6 0 000 0v-3l1-2v-1-4l1-1v-1l-1-2v-2l1-1v-3s0 0 0 0v-2a6 6 0 00-1-2s0 0 0 0l-1-1v-1l-1-1v-3s0 0 0 0l1-1s0 0 0 0 0 0 0 0l2-1h1l3-1 1-1 2-2v-1-1-1-2s0 0 0 0l-1-1-2-2-2-1-3-1-2-1h-1l-1-1s0 0 0 0l-3-1-2-1-2-1-1-3-1-2h0v-1l-1-1c-1-1-2 1-2 1l-1 2h-2l-1-2-2-1-1-1-2-1-1-1 1-2v-2l-1-1-1-2s0 0 0 0zM294 255v3l-1 1v1l1 1v2s0 0 0 0l-3 1-1 1-1 2-2 1-2-1-1-2v-1l-3-1s0 0 0 0 0 0 0 0v3l1 1-1 1h-2s0 0 0 0l-1-1h-1s0 0 0 0h-1l-2-1-2-1-1-1v-1-2l-1-2s0 0 0 0h-1v1l-1 1h-1l-2 1-1-1v-1h-1v-1h-1s0 0 0 0v5h-1-2s0 0 0 0l-1-1s0 0 0 0 0 0 0 0l-4 1-2 1-2 1-1 2-1 1-1 1s0 0 0 0l-1 2v2l-1 3v2l-1 1-1 1-1 1-1 3-2 2h-1v1h1l1 1v1h1l2 2 1 1 1 1 1 2-1 1v2l-1 1-2 3-2 2s0 0 0 0h1l1 3 1 2v3l-1 3-2 1h-2l-1-1h-1s0 0 0 0l-1 1-2 1-1-1s0 0 0 0v3l-1 1v3l1 2s0 0 0 0h3l1-1h1l1 1 2 2 2 2h5l1-1 1-1h3v1l1 1v1h4l2 1 1 1 1 3-1 2v1l-1 1v1l-2 3-1 1-1 1-1 1v2s0 0 0 0l1 1h2l1-1h1l2-1 4-1 2-1h3l3 1 1 1 1 1-1 4v2s0 0 0 0h3l1-1 1-1h1v-2l1-3v-1-1l1-1c0-1 0 0 0 0h1l1-1 2-2h2l2-1 3-1 3-1h3l2 1v3l1 1 2 1 1 2 1 1v3l1 2 3 1 2 1 3 1h1l1 1s0 0 0 0l1 1h1l2 1a47 47 0 004 3s0 0 0 0 0 0 0 0l1 1v1c0 1 0 0 0 0l2 1s0 0 0 0h3l1-1h2l3 1 2 1 2 2s0 0 0 0l1 1h1v1l2 2 2 1 1 2 2 2 2 2 1 1 1 1 1 2 2 2 2 1h3v-1l2-2h1l1-1h1l1-1h4l2 1 2 1 1 1a945 945 0 002 2l1 1h1l1 1 1 1 2 1s0 0 0 0h1s0 0 0 0 0 0 0 0h3v-1-1l1-1v-1l2-3h4l1 3 1 1 1 1s0 0 0 0v1h1s0 0 0 0l1-1h1l2 1c1 0 0 0 0 0h3l3-1h5l-1-1h-1l-1-2v-1-2l2-2 3-1 2-2h2l1-2h1l1 1 1 1s0 0 0 0h2l1-2s0 0 0 0l1-1v-1h3l1 1 1 2 2 2 1 2h1l1 1h2s0 0 0 0l1-1h1s0 0 0 0l1-1 1 1 1 1 2 1v2l-1 1v1l1 1s0 0 0 0h1v-1h6l2-1 1-1h2l1 1 1 2v4l-1 1v1l-1 3v1l-2 1-2 1h-1l-2 1h1l3 2-1 1h-1v2h-1s0 0 0 0l1 1 1 1 1 3 1 1-1 2v1s0 0 0 0l2 2 2 2 2 1 1 1 1 1 1 1 2 2v1h1l2 1h3l3-1 1 1h1l2 1v1h2l1 1 1 1s0 0 0 0 0 0 0 0 0 0 0 0h2l1 1h1v1l1 1h2l2-1h0s0 0 0 0l4-1 6 2-4-4 4-4 6 2 5-5 2-4 4-1 5 1-2-3h-1l-2-2h2v-2l-1-5h3s0 0 0 0l2-1 1-2 2-1 1-1h2l-1 2v1l-1 2 1 1h1l1 1h1l1 1 1 1v2l-2 2-1 1-1 2s0 0 0 0h2v-1a1 1 0 012 0v1l1 1s0 0 0 0h1l1 1 1 1v2s0 0 0 0h1s0 0 0 0v-1h1l1-1 1-1 2-1 1-1h5v-1l1-1s0 0 0 0l-1-1-1-1v-3-1l1-1 1-1v-1-1s0 0 0 0v-1s0 0 0 0h-2l-2-1-1-1-2-2-2-1-1-2-2-1-1-1-1-2-1-1-1-1-2-1-1-2-1-2-2-2s0 0 0 0l-3-2-1-1-1-1-2-2v-2l-1-2-2-2-1-2-1-1v-2l-1-2v-3l-1-2v-2l-1-2-2-1c-1 0-1 0 0 0l1-2v-2-2l-1-2-1-2v-2l-1-2-1-1v-2l-1-3v-2-2l1-2v-2l1-2-1-2-1-1-1-1v-2-2-2l-1-2-1-2v-2l1-2 1-2v-2-2l1-2v-1l-1-2 2 1v-2s0 0 0 0l-1-2v-3-2-2c0-1 0 0 0 0v-2h-1s0 0 0 0h-1l-3 1-3-1h-1-1-1l-1 1-3-1-1-1v-1h-1l-1-1h-1-1-2-1-2l-2 1-5-1h-9l-3 1-3 2-3 2-2 2-3 2-3 1h-6l-4-2-1-2v-1l-1-1h-1-1l-1 1h-3l-3-1-2-1-1-1-1-1h-11l-3 1h-7l-3-1h-4s0 0 0 0h-1l-2 1h-2-1l-2 1h-1v1l-2 2v1h-1l-1 1h-1l-1-1h-2l-3-1-3-2-3-1-2-1-1-1v-1-2s0 0 0 0v-2h-1-1-1l-1 3-2 2-3 2-2 2-1 1-1 1h-7-1l-1-1s0 0 0 0v-1h-1l-1-1-1-1h-1l-1-2s0 0 0 0 0 0 0 0h-1-1l-2-1h-3l-3-1-2-1-3-1-2-2-2-1-1-1-1-1-2-1h-4-3l-3-1-4-1h-1l-1-2-1-3-1-2-1-2v-1s0 0 0 0l-4 1h-2l-1-2v-1l-1-1v-2zM517 451s0 0 0 0 0 0 0 0-1 0 0 0l-2 1c-1 0 0 0 0 0l-2 1h-5l-2-1s0 0 0 0h-1l-2-1v1l-1 1v1l-1 1-1 1v1l-1 3h-1s0 0 0 0 0 0 0 0v1s0 0 0 0 0 0 0 0l3 1h1v2l-1 1h-1v2h-3-2s0 0 0 0l-1 1-1 1v1l-1 1-1 1s0 0 0 0v1l-1 1h1l1 1 1 1s0 0 0 0h2v1s0 0 0 0l1 1s0 0 0 0l1 1h2v3s0 0 0 0l1 1v1s0 0 0 0 0 0 0 0l1 1h2s0 0 0 0 0 0 0 0h1v-1h1s0 0 0 0v-1h4l1 1h1v4s0 0 0 0l-1 1-2 2h-1s0 0 0 0 0 0 0 0h0s0 0 0 0l-2 1-1 1h-1l-1 1h-2v1h-1l-1 1-1 1h-1v1h-2-1l-1-1-1-1s0 0 0 0h-1-1s0 0 0 0l-1 1c-1 1 0 0 0 0v1h-1l-1 1v2h-1-1l-2 1-1 1-1 1h-2s0 0 0 0v1l-1 1v1l1 1 1 2 1 2v2l-1 1s0 0 0 0 0 0 0 0v1s0 0 0 0 0 0 0 0l2 1s0 0 0 0h1s0 0 0 0l1 1h1v4h-1v2l-1 1c1 0 0 0 0 0v2l-1 1v3 3s0 0 0 0v2l-1 2s0 0 0 0v1s0 0 0 0v1l-1 1c-1 0 0 0 0 0v2h-1l-1 1h-1l-1 1v1l1 3s0 0 0 0l1 1 2 1 3 1v1h1l1 2-1 1-3 1-1 1-1 1s0 0 0 0l1 2c1 1 0 0 0 0l3 3h1l1 1 2 2 1 1c1 1 1 0 0 0h4l1-1 1-1a13 13 0 011-2s0 0 0 0l1-1 2-1 3 1 1 1 1 1 2 1 2 2 1 3 1 3 1 3 1 2v3l1 3 1 1h6l2-1 1-1h2l2 1v1l1 1-1 3-1 1s0 0 0 0v1l1 2 1 1 1 2v2l-1 1s0 0 0 0l1 1v1s0 0 0 0 0 0 0 0l3 1 2 2 1 1c1 0 0 1 0 0v1h1s0 0 0 0l1-1 2-2 2-2s0 0 0 0l1-1-1-3v-3-2l1-1h2l1 1 1 1v1h1l1 1h1v-1l2-1h1s0 0 0 0l1-2s0 0 0 0v-1-1-2-1-1s0 0 0 0 0 0 0 0 0 0 0 0 0 0 0 0l1-1h2s0 0 0 0l1-1h1l1-2v-1-1l1-1h1l1-1 1-2 2-2 1-2 2-1v-1h1l1 1v-1h1l1-1h3l2-1 1-1 1-1h4l1 1s0 0 0 0l2-2 3-1 1-1h1s0 0 0 0l1-1 1-2a11 11 0 011-3 2 2 0 011 0v-1-1l1-3 2-1 1-2 2-1v-1-3-2s0 0 0 0h-1-1l-1 1h-4s0 0 0 0l-2-1-1-1-1-1-1-1-1-1-2-2h-2l-1-1s0 0 0 0l-1 2v1l-1 1-1 1s0 0 0 0 0 0 0 0l-1 1h-1l-1-1-1-1v-1l-1-2s0 0 0 0h-1l-2-1-2-2v-2l-1-3v-2-2l-1-2a12 12 0 01-1-2s0 0 0 0l-1-1-1-2v-2l-1-3-1-1v-2-1-1-1l1-2v-2h1l-1-1-1-2v-2s0 0 0 0l-1-1v-1-1s0 0 0 0l-1-1-1-1v-1-2-1l-1-1v-2l-1-1h-1l-1-1-1-1-1-2v-1l1-2-1-2v-2-1s0 0 0 0l-1-2s0 0 0 0 0 0 0 0h-1c0 1 0 1 0 0v1s0 0 0 0 0 0 0 0 0 0 0 0 0 0 0 0 0 0 0 0h-1v1s0 0 0 0 0 0 0 0l-1 1h-1l-3-1s0 0 0 0h-1s0 0 0 0h-1l-1 2s0 0 0 0l-2 1h-1-1-1a7 7 0 01-1-1l-1-1-1-1v-1s0 0 0 0l-2-2v-1l-1-1-1-2h-1l-1-1h-1s0 0 0 0h-2s0 0 0 0l-1 1-1-1-1-1s0 0 0 0 0 0 0 0 0 0 0 0h-2-2l-1-1-1-1h-1v-1h-1a1 1 0 011-2s0 0 0 0l2-1 2-2v-2-1l-1-1z"/>
      <path d="M473 546h-1l-1 1h-1v1l-1 2v1h-1-1-1l-1-1-1-1s0 0 0 0l-1 1h-1l-1 1-1 2s0 0 0 0v3h2l2 1 2 2v2l-1 1h-1l-2 1v1l1 1 1 1 1 3-1 1v1l-1 1h-2l-1 1-2 1-2 1-2 2-2 2-3 1-2-1h-1v1h0v3l1 1s0 0 0 0h2l1 1v2l1 1h-1v3h0v2l-1 2h-1l-2 1-2-1h-3l-3-1s0 0 0 0l-1 2s0 0 0 0v6h-1 1l2 1 2 1 2 1 2 1 2 1 2 1 2 2 1 2 2 1 1 2 2 1 1 2 1 2 1 1 1 2v2l1 1 1 2v2l1 2 1 1 1 2 1 1 1 1 1 2v2l1 2 1 1h2l2-1h2l2 1 2 1 2 1 1 1 2 2 2 1 1 1 1 1 1 2 2 1 3 1 1 1 2 2 1 1v2l2 1v2l2 2v2l1 2 1 2v6h2l3 1 2 1 2 1 2 2h1s0 0 0 0l2 2 1 1 2 2 1 1 2 2 1 2 1 1 2 2 1 1 1 2 2 1 1 2 2 2 1 2 1 1 1 2 1 2v2l1 1h2l1-2h2l2 1 2 1 2 2 1 1 2 2 1-1 1-2 2 1h2l2 1 1 1h2l1 1 2 2 1 1 2 1 1 2 1 1 1 2 1 1 1 2 1 2v2l1 1 1 2 1 1 2 1h2l1-2 1-1 1-2 2-1 2-1 2-1h5l3-1h4l3 1 2 1 2 1h1l1 1 1 1 2 1 1 1 1 2 1 1 1-2h2l1 2h4v-2l-2-1 1-2h3l2-1h3l2 1 3 1a10 10 0 012 1h1-1 1l1-1 3-1h2l1-1 1-1v-1l2-1 1-2s0 0 0 0h1v-1-1s0 0 0 0v-1l-1-1v-1-2-3-3l-1-1 1-1h1s0 0 0 0l3-1v-1c0-1 0 0 0 0l2-3v-1l2-1h1l-1-2 1-3 1-3 1-1v-1l1-4v-2l-1-3-2-1c0-1-2-1-2-3v-1l-1-1v-1l-1-2-1-1a4 4 0 000 0l-2-1-4-1h-3-1v1h-1l-2 1-1-1-2-2v-1-1l-1-2s0 0 0 0 0 0 0 0h-2a17 17 0 01-1 0h-1l-1-2s0 0 0 0l-1 1v1l-1 1-1 2-2 1v1l-1 1-1-1h-4l-1-1h-1l-2-1v-1l-2-1-1-1s0 0 0 0h-1-2l-1-1-2-1-2-2s0 0 0 0l-2-1v-1-1a24 24 0 010-2l1-1s0 0 0 0v-2-1h-1l-2-1-2-2s0 0 0 0h-2l-2-1s0 0 0 0v-1-1h-1s0 0 0 0v-3s0 0 0 0l-1-1-1-1c-1 0 0 0 0 0l-4-1h-2l-1-1h-2l-1-1-1-1-1-1s0 0 0 0l-1-1s0 0 0 0 0 0 0 0l-1 1h-1v1l-1 1s0 0 0 0h-1-2-1v-1-2l-1-1v-2-1-2-1l-1-2 1-1 1-1 2-1 1-2 3-2 1-1 3 1 3 2 2 1 1 1 1 1 1 1s0 0 0 0h1s0 0 0 0l-1-1v-1s0 0 0 0 0 0 0 0 0 0 0 0h-1s0 0 0 0a150 150 0 010 0l5-1 1 1h3s0 0 0 0v-1-4-1l1-1v-1l2-2h1s0 0 0 0 0 0 0 0v-1l-3-1-2-1-3-2h-1l-1-1h-2l-1-1-1-3-2-2-1-3v-2h1l-1-4v-1-1s0 0 0 0l-2-2-2-2-2-2s0 0 0 0l-1-1 1-2v-1l2-1h1v-1-2-1l-1-2 1-1 1-1 1-2c1-1 0 0 0 0l1-3 2-1h1l4-1h3l3 2h2l2-1 1-2 2-2s0 0 0 0l-1-1-2-1-1-1-1-1s0 0 0 0 0 0 0 0 0 0 0 0l-2-1v-1h-1l-1-1v-1-2s0 0 0 0l-1-1h-9s0 0 0 0v1l-1 2-1 2-2 1s0 0 0 0l-2 1-1 1-3 1h-5l-1 1-1 1-3 1h-3s0 0 0 0l-1 1-1 1h-1v-1l-2 2-1 1-1 3-2 1-1 1-1 1v1l-1 3-2 1h-1l-1 1h-1s0 0 0 0v3s0 0 0 0v4h-1l-1 2h-1l-1 1-1 1h-2l-1-1h-1l-1-1-1-1-1-1s0 0 0 0v4l1 3-1 2-1 1-2 1-1 2-2 2h-1s0 0 0 0h-1l-1-1c-1-1 0 0 0 0l-1-1-1-1-1-1-2-1h-1v-1h-1v-1l-1-2v-1l1-1v-1s0 0 0 0l-2-3-1-1v-1-2l1-1 1-2s0 0 0 0l-1-1h-1l-1 1-3 1h-6l-3-2v-3l-1-2v-1l-1-3-1-3-1-2-1-3-1-1-2-2-1-1h-1l-2-1s0 0 0 0l-2 1s0 0 0 0v2l-1 1h-1l-1 1-1 1h-4l-2-1v-1l-2-2h-1l-2-1-2-2-1-2-1-1v-2l1-1 3-2 1-1s0 0 0 0 0 0 0 0l-3-1-2-1-1-1-1-2-1-3s0 0 0 0zm102 229h0l-1 1-2 2-1 1v1l1 2h2l1-1c1-1 0-2-1-2l1-2 2-1-1-1h-1zM297 341s0 0 0 0l-3 1-3 1-2 1h-1l-3 2h-1l-1 1s0 0 0 0v1l-1 1v2l-1 2-1 2-1 1 1 1v2l1 1 1 2 3 1 2 2 3 1 1 2-1 2v1h-1s0 0 0 0v5s0 0 0 0h2l1-1 1-1s0 0 0 0h3l1 1v2l-1 2-1 1h1s0 0 0 0h1l1-1 3 1 2 2 2 2v1h4l2 1v4l-1 1v1h-1v3l-1 1h-1l4 1h1l2 2 1 1 1 1 1 1 1 3 2 1 1 1 2 1 1 2 1 1 1 2v3l1 3 1 1 1 2 1 1v12l2 2v2l-1 1-1 1c-1 1 0 1 1 2v1l1 3-1 1v2l1 2 2 1-1 2-1 1 1 2v3l1 2 1 1 1 2 1 1 2 1 1 1 1 2 1 2 1 1 1 2 1 1 1 2v2l1 5 2 1 2 1 1 1v3l1 2v2l1 3v4l1 2-1 2v10l-1 2v2l-1 2-2 2-1 1v4l1 2v1l2 2h2l2-1-1-2 1-1 2-1h5l3 1 2 1 2 1 2 1 1 1 2 1 1 1v6l-1 2v2l-1 1-1 1c-1 1 0 2 1 2l1 1 2 1h5l1 1 2 1h2l2 1 1 1 2 1 1 1 1 2 2 1 1 1v4l2 1 2 1 2 1 1 1v3h1v2l1 1 1 2v1c1 1 1 0 2-1h1l1 2 1 1 1 2v2l1 2-1 1-1 2-1 2-1 1-2 1-1-1-1-1-2 1-1 1 1 2v1l-1 2h2l2 1 2 1 1 1h3l2-1v-2-2l2-1h5l2 1h5l2 1 2 1 2 1v-3-2l1-2v-1h1l1-1 3 1h3l2 1h1l1-1v-1-1l1-3-1-1v-1h-1l-2-1v-1l-1-1v-2-1s0 0 0 0l1-1v-1l1-1 4 1 1-1 1-2 3-1 2-2 2-1h2v-1l1-1h1l-1-2-1-1v-1l-1-1v-1-1l1-1h2l1-1-1-1-3-1s0 0 0 0l-1-1c-1 0 0 0 0 0l-1-2v-1a10 10 0 010-2v-1l2-1 1-1 1-1 1-1h2l2 2c1 1 0 0 0 0s0 0 0 0h1v-1l1-2 1-1 2-1h2l1-1 1-1 1-1v-1l1-1s0 0 0 0 0 0 0 0v-1c0-1 0 0 0 0l1-1v-1s0 0 0 0v-2-2-2-1-1l1-2v-1l1-2s0 0 0 0v-1l1-2s0 0 0 0v-1s0 0 0 0h-1c-1 0 0 0 0 0h-1v-1s0 0 0 0h-1-1-1v-2-1s0 0 0 0h0l1-1v-1s0 0 0 0l-1-2-1-2-1-2 1-2c0-1 0 0 0 0v-2l2-1h2l2-2 1-1h1s0 0 0 0 0 0 0 0 0 0 0 0l1-1s0 0 0 0l1-1v-1l1-1h1l1-1h3l1 1v1h1s0 0 0 0 0 0 0 0h1l1-1 2-1s0 0 0 0l1-1 3-1s0 0 0 0l1-1 1-1h2s0 0 0 0 0 0 0 0v-1h1l1-1 1-1s0 0 0 0v-2s0 0 0 0h-2-1a22 22 0 010 1s0 0 0 0h-1l-1 1h-1s0 0 0 0h-2s0 0 0 0l-1-1h-1-1v-1-1c0-1 0 0 0 0v-1s0 0 0 0 0 0 0 0h-1a2 2 0 010-2s0 0 0 0 0 0 0 0l-2-1-1-1v-1s0 0 0 0 0 0 0 0h-1s0 0 0 0h-1v-1s0 0 0 0l-1-1h-1-1l-1-1 1-2s0 0 0 0 0 0 0 0v-2l1-1h1v-1l1-1 1-2h1l1-1h4v-1s0 0 0 0l1-1h-2-1l-1-1v-1s0 0 0 0l-1-1v-1h1l1-1s0 0 0 0l1-1 1-2v-1l1-1 1-1v-1l1-1s0 0 0 0h-1l1-1v-1-2l-1-2 1-1 1-1s0 0 0 0l1-1h1l1-1 2-1 2-1 1-1v-1l1-1h2l1 1 1 2v2s0 0 0 0h1s0 0 0 0v-1-1l1-2s0 0 0 0v-1l-1-1-2-2-1-1-1 1h-3-1s0 0 0 0a1 1 0 01-2 0v-1l-1-1v-1l1-2s0 0 0 0v-1s0 0 0 0h-1-1s0 0 0 0l-2 1s0 0 0 0 0 0 0 0v1s0 0 0 0c-2-1 2 3 3 5h-1v1l-1 1-3-2h-3s0 0 0 0l-6 2h-3l-1-1-1-1-1-1h-2l-1-1v-1h-1-1l-2-1v-1l-2-1h-1l-1 1a7 7 0 01-5 0l-1-1-2-1-1-1-1-2-1-1h-1l-2-2-1-1-2-2-2-1-1-1v-1-2l1-1h-1l-1-3-1-1v-1l-1-1 1-2h1s0 0 0 0 0 0 0 0v-1l1-1s0 0 0 0h-2v-1-1-1l2-1 3-1c-1 0 0 0 0 0v-1l1-2v-2l1-1v-1-1-1s0 0 0 0l-1-1h-1s0 0 0 0l-2 2h-5s0 0 0 0l-1 1h-2l-2-1v-4-1s0 0 0 0 0 0 0 0l-2-1s0 0 0 0h-1s0 0 0 0l-1 1h-4l-1-1-1-1-2-2-1-2-2-2s0 0 0 0 0 0 0 0h-1v1c0 1 0 0 0 0l-2 2-1 1h-2-1l-1-1v-1l-1 1v1h-3l-1 2-3 1-1 1v2h1l1 1v4h-6l-3 1h-3l-2-1s0 0 0 0h-1l-1 1h-1l-1-1h-1v-1l-1-1v-1l-2-2c0-1 0-1 0 0 0 0 0 0 0 0l-2 2v1l-1 1v1l-1 1s0 0 0 0v1h-1s0 0 0 0h-1-1s0 0 0 0 0 0 0 0h-2l-2-1-1-1-1-1h-1l-1-1-1-1h-1l-1-1-1-1-2-2h-3-1l-1 1h-1l-1 1h-2v1l-1 1-1 1h-4l-2-2-2-2-2-2-1-1-1-1-2-2-1-1-2-2-2-2-1-2h-1s0 0 0 0l-1-1h-1l-2-2-1-1a40831 40831 0 01-4-1l-1 1h0s0 0 0 0 0 0 0 0h-1-3l-2-2h-1v-1-1s0 0 0 0 0 0 0 0l-3-1-1-1-1-1h-2l-1-1h-1v-1l-1-1h-2l-3-1-3-2-1-2-1-3-1-1v-1l-2-2-2-2v-2s0 0 0 0h-2zm109 236s0 0 0 0v0zm-117-62l-1 2v2l-1 2-2 1 2 1 1 1 1-2h2v-2-2l-1-2h-1v-1zm54 26l-2 3-1 2-1 1v2l-2 1-2-1h-1c-1-1 1-1 1-2h-4l-1-2v3l-1 1-2 1c-1 0 0 2-1 1l-2-2-2-1h-2l-2 1-2 1-1 1 1 3v2l1 1 1 1h8l2-1 2-1 2 1v-2h1l1 2c1 1 1-1 1-1l1-2 2 1v1l1 2 2 2h1l2 1 1-1 1-2-2-2h-1l-2-2c-1 0-1 0 0 0l2-1 2-1v-2l-1-2 1-2 1-2-1-1-2-2zm-30 30v3h-2l-2 1v1l2 1 1 1h2v-2-2l-1-2v-1s0 0 0 0zm72 29c1 1-1 0-1 1v1l-1 2 1 1 1 2 1 1 2 1 1-1v-2l-1-2-1-2-1-1-1-1zm-51 4h-2l-1 2v2l1 1h2l1-1 1-1-1-2-1-1s0 0 0 0z"/>
      <path d="M713 675h-1l-1-4-2-7-4-3c-1-2-4-2-5 0s-2-2-3-2c-2-1-5-2-6 0-2 1-2 3-3 5-1 3-3-1-4-1-2 0-3 2-4 3 0 2 0 5 2 6l2 3c0 1 2 1 1 2-2 0-4 2-4 4-1 1-3 1-3-1-3-1-4 2-5 4 0 1 2 2 0 1-2 1-4-3-6-1 0 2-1 2-2 2-2 0 0 1 0 0l-1-1v-1l-1-1-1-2v-1h-1v-1l-3-1h-3l-4-1h-2l-1 1v1h-1s0 0 0 0l-1-2v-1l-1-2s0 0 0 0 0 0 0 0l-2-2s0 0 0 0h-1-1-1l-1-1v-1l-1-1-1 1h-1v1l-1 1v2l-1 1-2 2s0 0 0 0h-4-1l-1-1h-1l-1-1-2-2a26 26 0 00-2-1h-1-1l-1-1-2-1-1-1-1-1h-1s0 0 0 0a23 23 0 010-2s0-1 0 0l1-2v-2-2l-2-1-2-1-2-1-1-1h-2s0 0 0 0v-1h-1v-1-2-1-1h-1l-1-1-2-1h-4l-1-1-2-1h-1-1s0 0 0 0v-1a3 3 0 00-2-2s0 0 0 0h-1l-1-1s0 0 0 0h-1l-1 1-1 1s0 0 0 0l-1 1c0 1 0 0 0 0s0 0 0 0h-1s0 0 0 0 0 0 0 0v-1l-1-2v-1-2-1-2l-1-1h1l2-2 2-2 2-1 1-1h1l2 2 3 2h1l1 1 1 1 1 1 2-1 1-1v-1l-1-1 1 1 1 1h5l1-1v-1-1-4s0 0 0 0l1-2s0 0 0 0v-1h2l1-1v-1-1l-1-1-3-2-2-1-3-1-1-1-2-1h-1-1l-1-3-1-2-1-3s0 0 0 0l1-2-1-3v-1-1-1-1l-3-2-2-1-1-2h-1v-1l1-1s0 0 0 0h2l1-2v-4-1h-1l1-1v-1l1-1 1-2 1-2h1l1-1h6l2 2h2l2-1 2-1 2-2a10 10 0 002-3v-1l-2-1-1-2h-1l1-1 2-1h1l1-1 2-2 1-1 2-1h1v-2-1-1s0 0 0 0l2-3 1-2 1-1 1-1h5l2 1 2 1 2 1h2c1 0 0 0 0 0l2-2 3-2 1-2 2-2 2-1h1l1-1 1-1 2-1s0 0 0 0h5v-1l1 1v5l1 2 1 2 2 3v2l1 2v2l1 2 1 2 1 2 1 2 2 2 1 2v3s0 0 0 0l1 2 1 1 2 2 2 2 1 2 1 1 1 2 2 1 2 2 2 2 1 1s0 0 0 0l1 1 2 2 1 2 1 1 1 1 3 1 2 2 2 1 2 1 1 1 1 2 1 2 2 2 1 1 2 2 1 1 1 2 1 2 1 1 2 1 1 2 2 1 2 1h2l2 1 3 1 1 1 3 1v7l1 1 1 2h2v4l-1 1-1 2v1l-1 2-1 1-1 1-1 2-2 2-1 2-1 1-1 3-1 1c-1 0 0 0 0 0l-1 1c-1 0 0 0 0 0l-1 1-1 1-1 1 1 1-1 1s0 0 0 0l-1 1v1l-1 3-1 1s0 0 0 0l-2 1-1 1-2 1z"/>
      <path d="M666 688c-1 1 0-1 0 0l2 2 1 3 1 3-1 4v2l-1 1-1 2-1 3 1 2s0 0 0 0v1s1 0 0 0c0 0 0 0 0 0v1s0 0 0 0 0 0 0 0 0 0 0 0l1 1 1 3v2l1 1v1l2 1h2s0 0 0 0l1-1h2v-1s0 0 0 0 0 0 0 0l-1-1-1-3v-3-1l1-2s0 0 0 0 0 0 0 0 0 0 0 0l1-1v-1l1-1h6l3 1 3 1h1l1 1h2l2 1 1 1 1 1v1h1l1 1h2l1 1s0 0 0 0l3 1 2 2c1 1 0 0 0 0l1 1 1 1h3l3 1h4l2 1s0 0 0 0l2-1h2l1-1 1-1 2-1s0 0 0 0v-1l2-1s0 0 0 0 0 0 0 0l1-2h1v-1-1l1-1h4l1 2 1 1h3s0 0 0 0 0 0 0 0v-1l2-1 1-1s0 0 0 0l2-2 3-1h1v-1l-1-3v-3l1-2v-3-3-2-1l1-1s0 0 0 0h2l2 1 1 1 2 1 1-1 2-3 2-1 1-1 1-1a5 5 0 013-1v-1-1l-3-1-1-2-1-3v-3-4s0 0 0 0l1-2v-2h1v-2l1-2s0 0 0 0v-2l1-3s0 0 0 0h-2l-2-1-2-2-1-1-2-3-2-1-2-1-2-1-2-1-3-1h-2l-1-1-2-1-2-1-2-1-2-1s0 0 0 0v2l-1 2-1 2v1l-1 2-1 1-1 1-2 2-2 3-1 1v1l-1 3-1 1a3 3 0 01-2 1s0 0 0 0v1h-1l-1 1 1 2h-1v1l-1 1c-1 1 0 0 0 0v1l-1 2-1 2-2 1s0 0 0 0l-1 1-3 2h-1c-1 0-1 2-2 1l-2-5v-2l-3-7c-2-1-3-4-5-1-4 2-4-4-8-3s-2 8-7 7c-2-3-4-3-4 0l2 6 3 3c1 3-2 3-3 4s-2 6-7 3c0-3-3 2-1 3-2 3-6 0-7 0l-3 2zM838 752l-2 2-4 3-3 1h-15l-4 2-2 1v1l1 1 1 2v8l-1 1v2h-1l-1 3-1 1h-2s0 0 0 0l-1 2v1l-2 1-4-1h-3s0 0 0 0l-1 1s0 0 0 0 0 0 0 0v1l-1 1-1 1h-1s0 0 0 0 0 0 0 0v1h0l2 1 1 3v3s0 0 0 0v3s0 0 0 0l1 2v1h1l1 1h1v1s0 0 0 0h1l2 1 1 1 1 1h1v3l-1 1s0 0 0 0l-1 2s0 0 0 0v2h1l1 3v1l1 1 1 2 1 1 1 2h1l1 1 2 2 1 1s0 0 0 0l1 1s0 0 0 0v1l1 1v1s0 0 0 0l1 1 2 1 2 2 1 1 2 2v3l1 2 1 1v1s0 0 0 0h1v1h1s0 0 0 0 0 0 0 0h3l1 1 1 1 1 1v5l-1 3v1l-2 1-1 1h-1l-3 1a12 12 0 000 1v1s0 0 0 0 0 0 0 0l-1 3v2l-1 1v1l-1 2v5l-1 4s0 0 0 0h-1v2l1 2 2 1 2 2v4l2 1s0 0 0 0l1-2 2-3s0 0 0 0l1-1v-2-1-1h1c0-2 1-2 3-2h3v1h1v1l2 2h2l3-1 5 2 1 1c1 1 0 0 0 0v5s0 0 0 0l1 2 2 1h5l2-1 2-1h5v-1-1l1-1h10v-1l1-1s0 0 0 0l-1-1 2-2 3-3v-2-3-1s0 0 0 0l1-1 1-2 1-3 1-1 2-1h4c1-2 3-2 5-3h2l4 1 4 3h1l1-1v-3l1-1 1-2 1-1 2-2-1-1v-1l2-2v-1l1-2 1-1s0 0 0 0l1-1 1-2 2-2 1-2 1-2 1-1v-1h0l-1-1-1-1-3-4s0 0 0 0 0 0 0 0v-1l-1-1-1-1s0 0 0 0 0 0 0 0h-2-2l-1-1-2-2 1-4v-1s0 0 0 0l-1-2v-1s0 0 0 0l-1-1-1-1 1-6 1-3 1-2 1-2h-1l-1-2-3-3-1-2-2-1h-3l-2 1-3-1h-2l-3 4-1 1h-2l-2-1-2-2-2-1-3-1-2-1-2-2-1-2-4-3a20 20 0 01-2-3l-1-2v-3-2c0-1 0 0 0 0l-3-3-2-1h-1l-3 2-3-1-5-2-5-2-3-2v-2-1l3-1 2-1h1l2-1s0 0 0 0l-3-3-4-3c-1-1-3-2-3-4l-3-2-1-1z"/>
    </g>
    <path stroke="#050400" d="M849 653h-4l-3 1h-1l-3 1-2 1h-2l-2 1h-3-4l-2 1h-2l-1-1-2-1h-5l-1 1h-2l-2 1h-7l-3 1h-6l-2-1-2-1h-10l-3-1h-3l-1 4v1l-1 2s0 0 0 0v2l-1 2v1l-1 1v8l2 2 1 1c2 1 2 2 2 3v2l-2 1-2 1-1 1h-1l-2 2-1 2-3 2-3-1-2-2s0 0 0 0h-1s0 0 0 0v8l-1 3v4l1 1 1 1 2 1 1 1 1 1 2 2s0 0 0 0h1l1 1s0 0 0 0h1l1 3v3l-1 3-1 2s0 0 0 0l1 1v1l1 1 2 2 1 1v2s0 0 0 0h9l2 1 1 1v7s0 0 0 0v3h-1v1s0 0 0 0v2l1 3v2h1a10 10 0 001 2h1l3 1h2l3-1h2v-1h3l1 1 3 1 3 1 2 1 1 1s0 0 0 0l2-1 4-2h16l2-1 3-3 4-2v-1l1 2h1s0 0 0 0 0 0 0 0l3 3 3 3 5 3 3 4v2l-1 1-2 1h-1l-3 1h-2s0 0 0 0l3 2 4 2 5 2 3 1 1-1 4-1 2 1 4 3v7l1 1v1l2 1 3 3 2 2 1 2 3 1 2 1 2 2 2 1 2 1s0 0 0 0l1-1 3-3 2-1h1l3 1 2-1h3l3 2 2 1 3 4 1 2 1 1-1 2-1 3-1 2-1 6s0 0 0 0h1l1 1v3h1v2l-1 1v2l1 2h4s0 0 0 0l1-1v1s0 0 0 0h1v1l1 1 1 1v1s0 0 0 0 0 0 0 0l3 4 1 1v1l1-2 1-1 2-1 1-2 1-1 2-2 1-1 1-1 2-2h2l1-1 3-1h5l2 1 2 1v2l1 1h3l2 1v1l1 1v2l-2 1-2 1 1 1 2 2h2l2 2h2l2 1 2 1 2 1 2 2 2 1h2l1 1 2 1 2 1 3 1h5l1-1h11l2 1h4l1 1h2l1 1 2-1h2v2l2 1 1 1v2l1 1v5l2 1 1 2 2 1 1 1v1l2 1v7h-2l1 2 2 1v3l-1 1-1 1 1 2 2 1v2l2 2 1 1 1 1 2 2 1 1 3 1 1 2 2 1 1 1 2 1h5l2 1 2 1 1 1 2 2 1 1 2-1 1-2 1-1v-2-3l1-2v-2-5l1-2 1-2v-2l1-2 1-2h1l2-1v-2-2l1-2 2-1v-1-2l1-1-1-1-1-1-1-2-1-2v-2l-1-2v-2l-1-2-1-2-1-1-1-2-1-1-1-2-2-2-1-2-2-1-2-2-2-2-2-1-1-2-1-1-1-2-1-1-1-2h-2l-2-1-2-1-1-1-2-2-2-1-2-2s0 0 0 0l-1-2-1-1-2-1 1-1 1-2-1-1-2-1v-2c-1-1 1-1-1-2h-2l-2-1-1-2-1-1-1-2-1 2h-3l-2-1h-2l-2-1-2-2-1-1-2-1-2-1-1-1-1-2h-2l-2-1-2-1-3-1-2-1h-3l-2-1-1-1h-2l-2-1-1-2-1-1-2-1-1-1-2-2-1-1-1-1-2-1-2-1-1-1-1-2-1-2-1-1-2-1h-2l-1-1-1-2-3-1-1-1-1-1-2-1-2-1-1-1-2-1-1-1-2-1-2-1h-1l-5-2-2-1h-2l-3-1-2-2-1-1h-4l-2-1-2-1-2-1-1-1-3-1h-2l-2-1-2-1h-3l-3-1-1-2-3-1-1-1-2-2h-2-2l-2-1v-2h-3l-2-1h-1l-1-1-1-1-2-1-2-1h-3l-2-1-2-1-1-1-2-1-3-1-1-1-2-1-3-1-2-1-2-2-2-1-2-1-2-1-1-1-1-1-2-2-1-1-1-2-1-1v-2l-1-2v-2l-1-2v-2l1-2v-2l2-1 1-1 2-1 2-2h1l2-1 2-2 2-1 1-1 2-1 1-1 1-2h2l2-1 1-1 1-1 1-2 1-2 1-1v-2l-1-2-1-1-1-2-1-1 2-1v-1c1-1-1-1-2-1l-1-1-1-1-2-1-1-1-2-1-1-2h-4-2z"/>
    <g stroke="#000">
      <path d="M556 405v1h0v1s0 0 0 0l-1 1-1 1v1s0 0 0 0v1l1 2v1l1 1c0 1 0 2-2 3 0 0 0 0 0 0l-2 1h-4l-2 1-1 1-1 1v1s0 0 0 0h-1l-1 1h-1l-1-1-1-1v-1s0 0 0 0l-1-1h-1l-1-2s0 0 0 0 0 0 0 0l-3 1-1-1-1-1v-1l1-2 1-1 2-2s0 0 0 0l-1-1s0 0 0 0h-1v-1l-1 1-1 2-1 1-1 1h-2l-1-1h-2l-1-2 1-2-1-1h-1l3 9-5 2-2 1-2 3-5 2 5-1-7 4v1h-1v1s0 0 0 0h7l2 1 2 2 1 2s0 0 0 0v1l-1 1v3l-1 1v1h-1-1-1l-1-2v-1l-1-2s0 0 0 0 0 0 0 0l-1 1-1 2-2 1-2 1-1 1h-1l-1 1h-1l1 2v3s0 0 0 0l1 1h2l2 1h3l2-1h1c1 0 0 0 0 0h1v-1h2l2 2v3l-1 2-2 2-1 1v1s0 0 0 0l1 1h2l1 1v-1h1s0 0 0 0h2l1 1s0 0 0 0h5v1s0 0 0 0l1 1 2 2v1l1 1 1 1 1 2v1s0 0 0 0h1l1 1s0 0 0 0 0 0 0 0h2s0 0 0 0l1-1 1-1v-1h3l2 1h1s0 0 0 0 0 0 0 0l1-1s0 0 0 0l1-1s0 0 0 0 0 0 0 0l1-1h2s0 0 0 0 0 0 0 0a10 10 0 010 1h1s0 0 0 0 0 0 0 0v2h1v4l1 2a9 9 0 01-1 3s0 0 0 0l2 2s0 0 0 0l1 1 2 1v2l1 1v4l1 1s0 0 0 0l1 1v2s0 0 0 0 0 0 0 0l1 1v3l1 1v1l1 1s0 0 0 0v1h-1v1l-1 3v1c0 1 0 0 0 0v1s0 0 0 0l1 3 1 2v2l1 2a12 12 0 011 1s0 0 0 0l1 2 1 2v4l1 3v2l1 1 1 1h1l2 1 1 2v2s0 0 0 0l1-1h1v-1l1-1 1-1 1-2c1-1 1 0 1 1l3 1s2 0 3 2c0 0 0 0 0 0l1 1 2 2v1h5s0 0 0 0l1-1h3l-1 1c-1 1 0 0 0 0h2v1h0v5l-1 2-1 2-2 1-2 2v3h4l3 1h2l1 2v2l1 1h1v1h3l2-1 1-1s1 0 0 0l2-2c1-1 1-2 3-2a7 7 0 001-1v-1-1-1l2-3 1-2 2-2 2-1h5l3 1 2 1 2 1s0 0 0 0l2-2 2-2 2-2 2-2h2l1-1h1l1-1 2-1 1-1h5s0 0 0 0v-2l-1-2-1-3-1-3-1-2-1-2v-2l-1-3v-2-3-2l-1-2-2-2-1-2v-2l-1-2-1-2v-2-2l-2-2v-2l-2-2v-2l-2-3v-3l-1-2-1-2-1-2-1-2v-2l-1-1-2-2 1-2-1-2-1-2v-5-2l-2-1-2-1-1-2-2-1-2-2-1-1h-2v1c1 1-1 1-2 1l-2-1-2-1h-2l-2-2-1-1-2-1-5-2-1-1-1-2-2-1s0 0 0 0l-2-2-1-1-2-1-1-2-2-1-1-1-2-1-1-1-1-2-1-1-2-1-1-2h-2l-1-2-2-1-1-1-1-1-2-1-1-1-2-1v-2l-2-1-1-1-2-1-2-1h-2l-2-1-1-1h-2zM901 868a6 6 0 00-2 0l-4 2-2 1h-4v1l-1 2-1 3-1 1s0 0 0 0v3l-1 3-3 3-1 1s0 0 0 0l1 1-1 2-1 2h-2-8s0 0 0 0v1l-1 1-3 1h-4l-3 2h-6l-2-2-2-2v-1-1a70 70 0 000-4l-4-1-3 1h-3l-2-3-1-1s0 0 0 0h-4v1s0 0 0 0v4h-1v1l-2 3-2 3-1-1 1 1v1l1 2 1 1 1 2-1 2-2 2 1 2 1 1 1 2 1 2v2l-1 3 1 2v4c1 2 2 1 2 3v2l1 1 1 2 1 2v4l2 1 2 2 1 2 2 2 1 1 2 2 1 2 1 1 1 3v2l1 3 1 3 1 2v7l1 2v14l1 2 1 2v2l1 2 1 2v2l1 2 1 1 2 2v2l1 2 1 1 2 1 2 1 1 2 1 2v3l-1 2v2l-1 3-1 2v1l-1 2-1 2-1 2-2 1h-2l-1 1h-2l-2-1-2-1h-2l-2 1-1 1-2 1-1 1h-3l-2 2-2 1h-2l-1 2-1 1v2l1 2 2 1 2 2 1 1 2 2 1 2-1 2v2l-1 2-1 2-1 3-2 2-1 3v3s0 0 0 0 0 0 0 0l-1-1v2l-1 3-1 2v2l-1 2-2 1-2 1-2 1-3 1h-2l-1 1-3 1-1 2v2l-1 1 1 2 1 2v4l-2 1 1 2v1 2l1 1v8l2 2v1l2 2 2 1 1 1 2 2h2l3 1h3l1-2h10l1 1h5l2-1h3l1-1 1-2 2-3 1-1 1-2v-2l1-3v-3l1-2v-3l1-2 1-2 1-2 2-1 2-1v-2l2-1 1-2 1-1 1-2 2-2 1-2 2-1h2l2-1 2-2h2l2-2 2-1 1-2 3-1 1-2 2-2 1-2 1-2v-2-3-1l-1-3v-2-2-3-3-2l-1-3v-3l-1-2v-2l1-3 1-1 1-1 1-3 1-1 1-3 1-1 2-1c1 0 0 0 0 0l3-1 1-1 2-1 1-2 3-1 2-1 2-1 2-1 3-1 3-1h2l2-1 2-1 2 1 2 1 1 2 1 1v-1h5l1 2 1-1 1-2 2-2 3-1 1-1-1-2v-2l1-2 3-1v-2h-2l-3-1-2-2v-3c1-1-1-2-1-2l-2-2 1-2 1-2 1-2 1-1v-2-3l-1-2-2-1v-2-2l1-1-1-3v-2l1-2 1-1 1-1v-3-2h-2l-2-1-1-1-2-2-2-1-1-2-1-1-1-2h-3l-2-1-3-1-2-1-1-2-1-1-2-1-2-1-1-2-1-2-1-1-2-2h-4l-1 1-2-1h-2l-2 1h-2l-2-1-2-1-2-1-2-1-2-1v-4l1-1c1-1 0-2-1-2l-1-2-2-1v-2l-1-3v-2l2-2 1-2 1-2 1-2 2-2 1-2 2-2 1-1 2-2 1-2-1-2-1-2-1-2v-2-3l1-1v-3l2-1 1-2 1-1-4-2-3-1z"/>
      <path d="M518 1119c-1 0-2 2-3 0v-3h2l1 2v1zm-2 6l-2-2h-2l-1 3 1 1c1 0-1 1 1 2 2 0 1-1 2-2h1l2 2h3l-2-2-1-2h-2zm-24-6h-2l-1 1v1l1 1 1 1 1 1 1 1h1v-1-2l-1-2-1-1s0 0 0 0zm-4 132l-1 1h-1l-1-1-2-1-1-1-1 1-1 1v1 3l1 1 1 2 1 1 1 1 1 1 1 1h3l1-1 1-1 1-2v-1l-1-1 1-1v-1l-1-1h-1l-1-2h-1zm52 146h-7l1 1h4l1 1 1 1h3v-1l1-1h-3l-1-1zm25-39l-2 1v1l2 1 2-1-2-2zm213-333l-2 1-2 1 1 1 1 1h2l1-2 1-1-1-1h-1zm-14 19l-2 1 1 1h1v-2zm-19 7l-2 1-1-1-2-1v2l-1 1c-1 1 0 1 1 1l2 1 1 1 1 1c1 1 2 0 2-1v-2l1-1-1-2h-1zm6 7c-1-1-1 0-2 1v1l-1 2v2l2 1 2 1v2h1l1-2 1-1-2-2h2l-1-2-1-1 2-1-1-1c-1-1-1 0-2 1l-1-1zm4 13l-2-1 2-1h-2l-1 2 1 2v2h2l2 1h2c1-1 0-1-1-2l-1-2-1-1h-1zm-162-37c-2 0-2 2-2 2-1 1-2 1-1 2h5l-1-2-1-2zm163 67l-2-2-2-1-2-2-2 1-2 1h-3l-2 1-3 1-2-1h-2l-2 2-2 2-1 2-2 2-1 2h-3l-3 1-2 1-2 2-2 1h-4l-2-1h-3l-2 2-2 1h-2l-3 1h-8c-2-2-2-1-3-1h-3s0-3-1-2l-2 2h-6l-2-2-1-2-3 1-3 1-3 1-2 1-2 2-2 1-3 1-3 1h-6l-2-2h-3l-3-1-2-1-3-2-2-2-2-2 1-2v-3l-2-2h-2l-1 2h-3l-3 1-2-1-2-1c-1-1-2-2-1-3v-3l-1-2c0-2-1-1-2-2l-1-2-2-1-2 1-1 2-3-1-1 2-2 1-3 1-3-1-2-1h-2l-1 2-1 2-2 2 1 2 1 2-1 3-2 1-2 2h-3l-2 2h-2l-3 1-2-1-2-2-2-1-2-2-2-1-1-3v-3l-1-2v-3c-2-1-1 1-2 1l-2-1c0-1 0-3-2-1v2l2 2v2l-1 2-2 2-2-1c-1 0-2 0-1 1l-1 3-2 1-3 1h-3l-2 1-2 2-2 2h-2l2 2v2l-1 3-2 2-1 2-1 2-2 1c-1 1 0 2 1 3l1 2 1 1v4h-2c-2 0-1 1-1 3l3 1 1 2v6l2 1 1 2 2 2h2l4 1 1 1 2 3v2l2 2 2 2 3 1 1-1 2-2h10l2-1 3 1h3l2 1 2 2 1 2 1 2 2 2h2l3-1 1 1h3l2 1h3l1 3h3v2l2 2v3l2 2h2l2 2 2 1 2 1 2 1 2 2c1 1 2 0 2 2l1 2h7l2 1c1 0 1-2 2 0l2 1 2 2 2 2 2 1 1 3 2 1 2 1 2 2 2 2 2 1 3-1 4 1 1 2 1 2 3 1h4l3-1h7s0 0 0 0h4l4 1 2 1 3 1 3 1 2 2 2 2 3 2 3 2 1 1 2 3 2 1 1 3v2l2 2 2 2 1 3v3l1 2 2 2 2 1 2 1 4-1 3 1 2 1 3 2 1 2 3 1 2-1c1-1 1 1 1 1l2 1c1 1 3 0 3-1l3-1h2l3-1 2 2 2 1 3 2h2c1-1 0-2 2-2l2 1 1 2 2 2 2 1 2-1 2-2 1-2-2-2 1-2-1-2-2-2-1-3 1-2v-3l2-2 2-2 1-2v-3l2-2 2-2 1-2h3c1 0 2 0 2-2l1-2h2l2 1c2 0 1-1 1-2l-1-2-2-1h-3l1-2 2 1v-3l1-1-2-2-2-1-2-1-1-2-2-1-1-3-1-2v-3l1-2h1v3c1 1 2-1 2-2h1l1-2-2-2-2-2s0 0 0 0 2 2 1 0-1-1-2-1h-2l-3-1c-1 0 1-2-1-1l-3-1v-3l-1-4v-3-7l1-3v-2l2-2 2-2 2-2 1-3v-2l1-3 1-3v-2c-1-2 1-2 1-2v-3l-1-2 1-2 2-2 2-2 1-2 1-2 2-2 1-2 1-2 2-2 1-2 1-3 1-3 2-1 1-3 2-1 1-3 2-2 2-3 2-2 1-3 1-2 2-2 2-5v-3l1-1 2-2h3v-2h-4l-2-2-2-2-2-1-2 2-2 2-2 1-3 1-2 2-3 1-2 1-3 1-3 1h-3l-1-3v-3l-2-2c-2 0-1 1 0 2l1 2c0 1 2 1 0 1l-1 3-1 2-1 2-2 2-2 1-2 2-3 1-3-1-1-2h-6l-2-1m-36-48l-1-1h-1l-1 1 1 1 1 1h2v1c1 1 1 0 1-1v-1l-1-1s0 0 0 0m-20 3h-1l-1 1 1 1h1v-2zM253 734l-2 2v3l-2 1 1 3 3-1 2-1-2-2 2-2v-2l-2-1s0 0 0 0zm-18 2v1l-2 2c0 2 0-1-1-1h-4l1 2 2 1-2 2 1 2v3l-2 1h-2c0 2 0 2-2 2l-2 1h-5l-2 1-1 2-2 2-1 2-2 2-1 2-3 1-1 2-1 3-1 2-2 2h-2s-2-1-2 1c1 2 0-1 2 0v1l-3 1-2 2h-6l-2 2-2 1-2 2-2 2-2 1-2 2-3 1h-6l-2-2-2-1h-3l-3 1-2-1-3-1-1-2-2-2-2-2v-3-3l-2-2-2-1-1 3-1 1c-1 1 1 2 1 2l2 2 1 2v3l-1 2-1 2-1 3-1 2-1 2v3l-2 2v2l2 1 2 2 2 1-1 2v2l-2 2-2 1-1 2 1 3v2c1 1 2-1 2-1v-3l1-2h3v2l-1 2v2h3l1-2 3-1h2l1 2 1 3 1 3v2c0 2 1 1 2 1l2 2v2l1 3 1 2v3l-1 2-1 3 1 2 2 1 2 2h2l2 3s2 1 0 1-1 1 0 1c1 1-1 3-1 3l-1 2v6l-1 3 2 2 1 3 1 1-1 2v3h-2c-1-1-2 1-2 1h-5l-1 2 2 1 1 2v3l-2 1 1 2v4l1 3 1 1 1 3c0 1 1 2 1 0l1-2 2-2 2-2 2 1 2 1h0l1 2 1 3v3l-1 3v2l-1 3-1 3-2 2-1-2-1-2-2-2-2 2 1 2 1 3-2 2 1 2v4l1 3 1 2-1 3-1 2v3l-2 2-2 2s-2 1-1 2v3l2 2-1 2-1 2-2 2c2 1 0 1 1 2l2 2 1 2 1 2v3l-1 2-1 2-3 2-1 2 2 1 1 2 2 2c0 2 1 1 2 2l1 2-1 2 3 1 1 3 1 2 1-1 2 1 1 2 2 1 2 3-2 1 1 3 1 3h3l1 2-1 3-1 2 2 1c2 0 1 0 1 2 0 1 1 2 2 1l1-2v-2l2-1 2-1 2-2 1 1 2 2 2 2h1c0-2 0 0 1 0l1 1s2 2 3 1l1-2 3-1 1-2 1-2 2-1 3-2 1-2s1-2 1 0c2 2 1-1 1-1l1-3 1-3 1-1-1-2-2-2v-5l1-2 1-2 2-3 1-2 2-1h2l2 2 2 2 1-3 1-2 2-1 3 1h3l3 1 1 1 2 2 3 1 1 2 2 1 2 2h2l3-1 2 1 1 3 1 2 1-3 1-2 2-1 1-3v-2l-1-3 1-3v-2l1-2 2-2 2-1c1-1 0-1-1-2l-1-1v-3-3l1-2 1-3 1-3v-3l1-3-2-1v-4l2-1 1-3v-3l-1-3-1-3 1-2 1-2v-3l1-3v-2l-1-2 1-4v-1l1-3 1-2-1-1v-3l1-2 1-2v-2l-1-2v-3-3l1-3 1-1c1-1 2-2 1-3v-3l-3-1-2-1-1-2-1-3-1-2-1-2v-3l-1-3 1-2 1-3 1-2 1-2 2-2 1-2 2-2 2-1 2-1 1-3 1-3 1-1 1-3 1-2 1-3v-2l-1-2-2-2-1-2c1-2-1 0-2-1l-1-2-1-2 1-1c1-1 1-2-1-2v-1c2 1 1-1 2-1v-3l-1-2-3-1c0-1 2-1 1-2l-1-2-1-1-2-2v-2c0-1-2-1-1-2l2-1v-3l3-1-3-1s0-2-1-1l-2 1v-2h0v-1 1h-1l-2-2 1-2 1-1-2-1-2 1-2 1-2-1h-2-3l1-2 2-1c0 1 1 2 2 1l1-2 1-2 1-3c1-2 1 0 2-1l2-2h-3l-2-1-1 2-1-2v-2l-1 1-1 1-2 1 1-2v-3l1-1c-2-1 1-1 0-1 0-2 1-1 2-2l1-2-1-1c-2 1-1 0-1-1l-1-2s-1-3-2-2l-2 1-2 1v3h-2v-3l-2-1c0-1-3-1-2-2l2-2-3-1h-3l-1-2h-2l-2 2-3-1s-2-1-1-2c0 0 2-1 1-2l-1-2-2-1-2-1zm23 1l-1 3-2 2 1 2-2 2 3-1h2v-3l1-2-1-2-1-1zm-105 16s0 0 0 0 0 0 0 0 0 0 0 0zm0 0l-2 2h-1v4c0 1-3 0-1 1l-2 1-1 1-2 2v1c0 1-1 1 1 2v2l2 1c1 1 2 0 2-1v-2c-1-2-2-1-2-3l2-2 1-2 1 1 2 1c1 1 2 0 2-1l1-3v-2l-1-1-2-2zm121 13l-2 2 2 1c1 1 2-1 2-1l-2-2s0 0 0 0zm7 10l-2 2-2 2c-1 1-1 1 1 1l2-1 2-1c1-1 1-2-1-3 1 0 0 0 0 0zM152 981l-1 1h-2l-3 1-2 1v2l3 1v3l2 2h2l1-2c1-2 0-2 2-3l-2-1v-4-1zm7 8s0 0 0 0 0 0 0 0 0 0 0 0zm0 0l-2 2-1 2 1 3 1 3 1 2 1 2 1 2 1 2 2-1 1-2 1-4 1-2-2-2 2-2-1-2-2-2h-4l-1-1zM211 319l-1 1h-1l-2 2h-1l-2 1v1h-1l1 1v5l-3 2h-1l-2 1h-1-1l-1 2-1 2-1 1-2 1-2-1h-1l-2 1-2 1v1l-2 1-3-1-3-1h-2l-1-1h-4l-2-1h-2s0 0 0 0l-2 1h-1l-1 2-1 2-1 1-1 1a7 7 0 01-3 0h-1l-1-2-2-1v-1l-2-1h-2-1l-2 1-1 2-1 2-1 3-1 3-1 1-1 1-1 1c0 1 0 0 0 0v3l-1 2-1 2-2 1-2 1-1 2-1 1v5 3l1 2v3a6 6 0 010 2l-1 1-3 1h-3-1l-1 1h-1s0 0 0 0 0 0 0 0l-1 1s0 0 0 0l1 2c0-1 0 0 0 0a13 13 0 010 2v1l-1 1-2-1h-1-4a11 11 0 01-3 0h-1v-1h-2l-3-1-2-1h-2l-2 1 2 3c1 1-2 3-2 3l-2 3c-1 1-2 1-1 3 1 1 0 2-1 3l-2 2-3 1-3 3-1 3-3 2-3 2c-1 2 0 3 1 3l1 4c1 2 0 2 2 3l1 2 3-1c0-2 2 1 2 1l5 1 3-1c2-1 0-2 3-2l3-1c0-1 2 0 3-2l4 1c1 1 2-1 4-1l3-1c3 0 2-1 3-2s2 0 3-2l4-1 2-2h4v-2l1-2h2l1-1 2-1 1-1 1-2v-1l-1-2 1-2 1-1 1-2 2-1 1-1 1-1v-3s0 0 0 0v-3-1l1-2 1-2 1-2h2l2-1 3-1a2852 2852 0 012-1l2-1 2-1 1-1v-2-2l2-1 1-1 1-2-1-1-1-2 2-1 1-1 2-1-2-1 1-2h5l2-1 1-1 1-2 1-1 2-1 2-1 2-1 2-1 1-1 1-1 2-1h4l2 1h2l1-1 2 1 1 1 2 1 2-1h2v2h2l2 1 2-1 2 1 2 1h3l2 1h2l1 1 1 2 1 1v2l1 1 2 1 1 1h3l-1-2v-2-1l2-1 2 1 2 1 2 1 2 1h1l2 2 1 1 2 1 1 1v3h1s2 0 1-1l1 1 1 1 2 1h2l1 2 1 1 2 1 1 1 2 1 1 1 1 1 1 1 1 2 1 1 1 1c1 1 1 0 1-1l1-1h2l1 2 1 1 1 1 2 2 1 1 2 1 1 1 2 1 2 2h2l1-1-1-2-1-1-1-2 1-1 1 1 2 1 1 1h2l1 2 1 2h1l2 1 2 1h2s0 0 0 0l1-2v-2l1-1c1 0 0 0 0 0l1-1v-1-1c1 0 1 0 0 0l-1-1h-3l-1-1-1-1-2-2-2-2s0 0 0 0l-1 1h-1s0 0 0 0 0 0 0 0h-2v1l-1-1-1-2 1-3h1v-1s0 0 0 0h-1s0 0 0 0h-1l-1 1-3 1-1-1-1-1v-2-3-1h1s0 0 0 0l1-1s0 0 0 0 0 0 0 0v-1l-3-2-3-2-2-1-2-2-1-2v-1l-1-1s0 0 0 0h-4l-1-2v-3l1-2-1-1v-1h-4l-3 1h-3l-3 1v1l-1 1h-4l-2-2v-2-1l2-3 1-1h1l1-3v-1l1-1v-1l1-1-1-2v-1h-4l-2-1-1-1-1-1s0 0 0 0 0 0 0 0h-1l-1 1-1 1h-4l-3-1-1-2-2-1-1-1s0 0 0 0l-1 1h-3s0 0 0 0 0 0 0 0l-1 1-2 2h-4-1l-2-1-1-2v-1l-1-1v-1h-1s0 0 0 0a47 47 0 01-3 0h-1s0 0 0 0v-1l-2-2-1-2-1-1c0-1 0 0 0 0zM506 1v1h-2l-2 1-2 1-3 1h-2l-2 1-2 1h-3-2l-2 1-1 1-2 1-2 1-2 1-2 1-2 1-1 2h-5l-2 1-1 1h-2l-1-1-2-2s0 0 0 0h-2l-1 1-2-1-1-2h-4l-1 1-1 2-2 1-2-1-1-2-1-1h-3l-1 1-1 2-1 1-2 1h-2l-1-1-2-1h-4l-2 1h-2l-2 2h-6-1l-1 1v3h-2l-2 1-1 2-1 1v2l-1 2v2 2l-1 2-1 1-1 2-1 1v2l-1 2-1 1-2-1-2-1h-5l-2 1h-2l-2-1h-2l-1-1-2-1h-5l-1-2 2-1v-2l1-1-1-1h-3l-1-2-2-1h-3l-3-1-1 2-2 1-1 2c-1 1-1-1-2-1l-2-1-2 1-2-1-2-1 1 2-2 2v2l-1 1-1 2 1 1v4l-2 1-1 1 1 2v2l-1 1v2h-1l-1 1v2l1 2 1 1h3l2 1 1 1 1 2v4l-1 2v2l-2 1-1-2h-2v1a11 11 0 001 3l2 2 2 1h3l1 1h1l2 1 3 1 2 2 2 1 1 1 1 2v5l-1 1-1 2-2 2-3 1h-2s0 0 0 0l-1 1s0 0 0 0 0 0 0 0v2l1 1c0 1 0 0 0 0l1 1v1l1 2v5l-1 2v1l1 2v1s0 0 0 0v1l-1 1v4l-1 2v5l-1 1-1 2-2 2-1 3-2 2-1 2v6s0 0 0 0l1 1a14 14 0 001 2h1v4l-1 1-1 2-1 1v1l1 1v2s0 0 0 0l1 1 1 1h1l2 1 2 2v3s0 0 0 0l1 1 1-1h1l2-1s0 0 0 0l1-1 1-1 2-1 2-1 1-1h9l1-1s0 0 0 0 0 0 0 0h2s0 0 0 0v-1l2 1h3l1 1 1 1v4l-1 3-1 3v1l-1 1-1 3v2h1l1 1 1 1 2 1 2 1v1h1l1-1 1-1 2-1s0 0 0 0l1-1 1-1 2 1 1 1v1c0 1 0 0 0 0s0 0 0 0l2-1h3l1-1 1-1h1l1-1v-2-1-1-4l1-3 1-1h1l1-2s0 0 0 0l1-3 1-3v-1h1l-1-2v-1l1-1v-1l1-2v-1h4l1 1 1 1 1 1 1 1c1 0 0 0 0 0h1v-1-2-1-1l1-1 1-2 1-2 2-1h5l1-1 1-1 1-1a7 7 0 011-1l1-1 3 1 2 2 1 2 2 1 1 1s0 0 0 0h4l1-1 2-1h1v-1l-1-3v-2l-1-2 1-2v-2-2l2-1v-1l2-1h6l4-1h2l1-1h1l2-2v-1l1-1 2-1s0 0 0 0l-1-1v-1-2-1l-1-3v-1-1-2s0 0 0 0h-1-2l-2-1-2-1h-1v-1l-1-1 1-1v-1l-1-1-1-1v-1l-1-2 1-1 1-2v-1h1v-1l-1-2 2-3 1-1h1l1-1h1v-2-1s0 0 0 0v-1s0 0 0 0h-4s0 0 0 0h0l-1-1v-1s0 0 0 0 0 0 0 0h-1s0 0 0 0v-1a254 254 0 011 0v-1l1-2s0 0 0 0 0 0 0 0h2a16 16 0 002-1l1-1 1-1h1l2 1h1v1l1-1 2-1 1-2 1-1a10 10 0 000-1v-1-2l1-1 1-2 1-1 1-1 1-1v-1l1-1v-3-1l1-1h4l1 1 2 1v1h1v1s0 0 0 0l3 1 1 3 1 2h1v1s0 0 0 0l3-2 2-1 3-1 3 1 3-1h1s0 0 0 0v-2h1l1-1 1-1 1-1v-1l1-1-2-1-1-2-1-1-1-1-1-2v-2l-1-2-1-1-2-1h-2l-2-2v-2l1-2v-2l-1-2v-2-2l-2-1-3 1-1 1-1 1-1-3v-1h-3l-1-2 2-1v-2l-2-2-1-1v-2l-1-2v-2l1-1 2-1 2-1h2l2-2 1-2s1 1 1-1V4l-1-1-1-1-1-1s0 0 0 0zM555 60l-1 1v1h0v4l1 1 1 2s0 0 0 0l1 2-1 1s0 0 0 0l-1 1h-1l-3 1-2 1-3 1h-2-1v1s0 0 0 0 0 0 0 0l1 1s0 0 0 0l1 1h1v1l1 1-1 1-1 1h-1l-2 2-1 1-1 1s0 0 0 0h-2-1s0 0 0 0 0 0 0 0l-1-1h-2v1l-1 1s0 0 0 0l1 1-1 1-2 1v1l-1 1-1 2h-1l-2 1-1 2-2 3-2 2v1l-1 1v2l-1 1s0 0 0 0v4l1 3s0 0 0 0l1 1h3c2 0 2 1 3 2 0 0 0 0 0 0l2 2s0 0 0 0 0 0 0 0 0 0 0 0v1l1 1 2 4-1 3-1 1-1 2-1 2-1 2v2l-1 3-1 3v2l-2 4v1s0 0 0 0v1h1l3 1 1 2 1 1 2 1h1l1 2v3l1 2v1h1s0 0 0 0 0 0 0 0v1h1s0 0 0 0l1 1s0 0 0 0l3 1h2l3 1 3-1h1l1-2 1-1h2s0 0 0 0l1-1h2l2 1 4 1 2 1h3s0 0 0 0l-1-1 1-1 1-1h2s0 0 0 0h1l1-1 1-1s0 0 0 0h2c1 1 0 0 0 0l1 1v2l-1 2v6l1 1 1 2v2s0 0 0 0v1h1l1 1v1s0 0 0 0l1 1s0 0 0 0l1 1v5l1 1s0 0 0 0l2 1v2l1 1h-1 2l1-2 1-1 1-2 1-1 1-1h1l-1-1-1-2-1 2-1 1-2 1-1-2-1-1-1-2 2-1 1-1 1-2 1-2s0 0 0 0l1-1h3l1 1 1-1c1-1 1 1 2 1l2 1 1 1h6l2 1 2 1 2 1v2l-1 1 1 1v2l2 1 2-1h2l2-1 1-2h2l2-1 1-1h3l-1-2-2-1-1-1v-1l1-2 1-1h2l2 1 2 1 2 1 1 1 2 2 2 2 1 1 1 1 1 2 2 1v1l2 2-1 1v2h2l1 1 2 1-1 1-1 1-1-1h-6l2 2h2l2 1 2 1h6l1-2 1-2 1-1 1-1v-2l-2-1-2-1-1-2-1-2-1-2-1-2-1-2-1-1h-3l-2-2-2-1-1-1-1-2-2-1h-2l-2-1-3-1-1-2v-5l1-1v-3l1-1 1-2 1-1 1-1-1-2 1-1 1-2-2-1h-6l-1 1h-2l-2-1-1-1-2-2 1-1 1-1 2-2-2-1-1-1h1v-1l2-1 2-1 1-2 2-1 2-1 1-1 2-2 1-2 2-1 1-2-1-2-1-1h-3-2l-2-1-2-1-1-1-1-1h-2l-1 1-2-1-1-1h-2v1l-1 2-2-2v-2-2l-1-2-1-2v-3l2-1 2-1 1-2v-2-1l1-1h2l2-1 1-2 1-1 2-1h2l2-1v-2l1-2h4l2 1h2l1-1 1-2v-2l1-2-1-1v-2l1-2-1-1h-3l-2-1h-2l-2-1h-2l-1 1-1-1-1-1h-3l-1-1-2-1-1 2h-2l-2-1-2-1-2-1h-1l-2 1h-2l-1 1-1 1-2-1h-2l-1 1h-2l-2-2-2-1-2-1-2-1-2-1h-4l-2 1h-4l-2-1h-2l-2-1h-2-2l-2 1h-2l-2-1-1-1v-2l-2-1-1-1h-2l-1-1zm40 122h-1c-1 1-2 0-1 1h4l1-1h-3s0 0 0 0zm10 1s0 0 0 0 0 0 0 0l-1 1 1 2 2-1-1-1-1-1s0 0 0 0zM83 147v2l-2 1-2 1-2 1-2 1-2 1-1 1-1 2h-3l-2-1h-1l-1 1-2-1h-1l-1 1-2 1-1 1h-3l-1 2v1l-1 1-2-1-1-1h-2l-1 2h-1l-1 1h0l-1-1v-3l-1-1-1-1-1-2-1-1-1-1-1 1-1 2v4l-2 1-2 1h-2l-2 1-1 1-2 2-2 1h-5v2l-1 3v3l1 2v4l1 1 2 2 1 2 3 1 1 1 1 2h2l1-1h2c1-1 1 0 1 1h2c1-1 1 1 1 1l-2 1-1 2 1 2-1 2 2 1-1 2-1 1 1 2 1 1-1 2 1 1 2 1h2l1 2v1l2 1 1 1 2-1h4l1 1s0 0 0 0 0 0 0 0h1l2-2 2-2 3-1 2 1h1l1-1 2-2 2 1 1 1s0 0 0 0 0 0 0 0l1-1 1-1 1-1 2-2v-1l1-1 2-2h5l2 1 2 1 2 1h3l3-1 3 1 3 1h5l2-1s0 0 0 0l1-1 1-1 1-1h1l1-1h1v-1l1-1 2-2v-1-1l1-2-1-2-1-2v-2l1-1 1-1v-1l-1-1-1-2s0 0 0 0l-1-2h-1l-1-2v-3l-1-2v-2-1l1-3 1-3-1-3 1-2 1-1v-1s0 0 0 0 0 0 0 0l-2-1h-2l-1 1-2-1-2-1h-1l-2 1-1-1v-2l-2-1-2-1-1-1h-3l-2 1-2-1-2-1h-2zM680 708a9 9 0 00-1 0h-1v1a8 8 0 010 1l-1 1s0 0 0 0v4a14 14 0 001 2s0 0 0 0 0 0 0 0l1 1v2l-1 1-2 1s0 0 0 0 0 0 0 0l-1 1h-4l-3-2v-1l-1-1v-3-2l-1-1-1-1s0 0 0 0 0 0 0 0h-1l-1 1-1 2v1l-2 2-2 1s0 0 0 0v7a17 17 0 001 3 16 16 0 010 1s0 0 0 0v1s0 0 0 0v1l-1 1v1l-2 2h-1l-1 2h-1l-1 1-3 1-2 1h-1l2 2 1 1 2 2 1 2 2 2 1 2 1 2 1 2 1 2 2 2v3l1 3 1 2 2 1 1 2 1 3 2 2v2s0 0 0 0h1-1s0 0 0 0h1l1 2 1 2 1 2v3l-1 2v4h4l1 1c1-1-1-2-1-2l-1-2v-1l2-1h2l2 1 2 1-1 2c-1 1 1 1 1 1l2-1 2-1 1-2 1-1 2-1h3l2 1 2 1 2 2 1 2 1 2 1 1 2 1 1 1h2l1 1 2 2 1 2-2 1-2 1-1 2-1 2-1 2-2 1h-2l-1-1h-1l-1 2-1 2v2l1 2h2l1-2 3-1 2-1h3l1-1 2-1v-1c1-1 2 1 2 1l2 1 1 1-2-3-2-1h2l2 1 1 2h2l1-1 2-1 2-1 1-1 2 1h1s0 0 0 0l1 1 2-1v-2l1-2h4l2 1 2 1 1 1 2 2 1 2 2 3 1 1 2 1v2l1 2 1 2v2l1 2 2 2 1 3 1 2v2l1 2v4l-1 1-2 1-2 1v2 2l1 2-1 1h-1l-2 1-1 1 1 2 1 1 2 1 1-1h1l1 2 2 1 1 2 2 1 1 2c1 0 2-2 2 0h2l1-1h2l3 1 1 2 1 1 1 2h2l2 1 2 2 1 1 1 2 1 1 1 2-1 1-2 1v1h3l1-1h2l1 1 1 2h2s1-1 1 1h5l1-2 1-1 2-2 1-2 1-1 2-1 3-1h4l1 1 2 1v2h3l1-3v-3-2l1-1v-1-1l1-2v-1l1-3s0 0 0 0v-1a43 43 0 010-2s0 0 0 0l1-1 3-1h2l1-1 1-1v-2-3-1l-1-1v-1h-1-2l-1-1h-1s0 0 0 0l-1-1s0 0 0 0 0 0 0 0h-1v-1l-1-2-1-2v-2-1h-1l-1-2-2-1-3-2v-1h-1v-1l-1-1v-1h-1v-1-1l-2-1-1-1-2-2s0 0 0 0l-1-2-2-2v-1l-1-2-1-2s0 0 0 0l-1-1v-1-1-1s0 0 0 0l1-1 1-2c1-1 0 0 0 0v-1s0 0 0 0l-2-1-2-1-1-1h-1v-1c0-1 0 0 0 0h-1l-1-1-1-2v-1l-1-1v-2s0 0 0 0v-1-2-1l-1-1-1-2-1-1v-1s0 0 0 0 0 0 0 0v-1-1h2s0 0 0 0h1a18 18 0 010-2l1-1v-1h5l4 1s0 0 0 0l1-1v-1-1l2-1s1 0 0 0l1-1 1-2 1-1s0 0 0 0l1-2v-1-1-1-2-1l-1-2-1-2v-1s0 0 0 0l-1-1-1-1-4-1-3-1-1-1h-1l-1 1h-1l-3 1h-1-3l-2-1-3-1-1-1s0 0 0 0v-1s0 0 0 0l-1-3-1-3v-1-2l1-1s0 0 0 0v-1-1-2-3s0 0 0 0l-1-1v-1h-1l-3-1h-4l-2 1-1-1v-1-1l-1-1-1-2-1-1-1-1-1-1v-2l1-3 2-1-1-3-1-1v-1h-2v-1s0 0 0 0h-1l-1-2-1-1h-1l-2-1h-2l-3 1-1 1-1 1-1 1h-1v2h-1-2-1-1l-3-2v-1l-1-1-1 1s0 0 0 0v2l-1 1h-1v1s0 0 0 0l-1 1h-1v1l-1 1-2 1-1 1h-1l-1 1h-2l-1 1h-2l-1-1h-4l-3-1h-2l-2-1h-1l-1-1-1-1-1-1-2-1-2-1c-1-1 0 0 0 0l-3-1-1-1-1-1-1-1-1-1h-1-1l-1-1h-2l-2-1-3-1h-4zm-12 87l-1 1-1 2 1 1 1-2 2-1v-1h-2s0 0 0 0zm-12 1l-1 1-1 2v4h2l2 1h3l2-1 2-1-1-3-1-1-2-1h-3l-2-1zm36 23l-2 1-1 1c-1 1-1 0-2-1l-2-1v2c-1 1-2 1-1 2h4l2-1 2-1v-2s0 0 0 0z"/>
    </g>
  </g>
  <path fill="#d6131d" d="M163 85h-2l-2 1-1 1h-2l-1 2-2 1-2 1v2l2 1v3l-2 1-2 1-1 1-1 2-2 1-1 2-1 1-2 1h-2l-3 1-1 1-1 1-2 2 1 1h1l1 2 2 1 1 2 1 2v4l-1 2v2l-2 1-1 1-2 1-2 1-2 1-1 1-1 2v4l-1 2-1 1-1 2-1 1h-8l-1 1v2l-1 2v2l1 2v3l-1 1h-1v6l-1 3v2l1 3v3h1l1 2v1l1 1v1l1 1 1 1v1l-1 1v1h-1v3l2 2-1 3v2l-1 1-1 2-1 1-1 1-1 1h-1l-1 1-1 1h-1v1l-1 1h-2l-4 1h-1-2l-3-1-2-1-3 1h-3l-3-1-2-1-1-1h-4l-2 1v1l-1 1-1 2c-1 1-1 2-3 2v1l-2 1-2-1c-1-1 0 0 0 0l-1-1-2 2-3 1v-1l-3 1-2 1-2 2-1 1h-1-1l-1-1h-2l-2 1 2 1 1 1 2 2 2 1v1l-1 2-2 2-1 1-1 2-2 1v2l1 2 1 1v5l-1 1-1 1-2 2-1 1c-1 1-1-1-1-1h-2l-2 1h-2l-1 2-2 1-1 2-1 1h-3l-1 1-1 2-1 2h-2l-2-1-2-1-3-1-1 1-1 2h-2l-2-2-1 2-2 1-1 1-2 1c-2 0-1 2-1 2l2 1v2l1 1v2l1 2 1 2h2l2-1 1 2 1 2v2l1 2-1 2v3l1 2 2 1 2 2 1 2 1 1 2 1 2 1h4l2-2h2l2 2h2v2l2 1-1 1-1 2 1 2 1 1-1 2 1 2 1 1 2 2 1 1 1 2c0 2-2 1-3 1h-6l-1 1-1 2-1 1v2l2 1c1 1 0 1-1 1l-1 1v3l-1 1-1 2-1 1-2 1-2 1-1 1v3l1 2 1 2 1 1 1 1 2 1 1 2 1 2h-2-1v2l-1 2v2l-1 2 2 1 1 1 1 2 1 2 1 1v2l2 1 1 1 1 2v2l-1 1 2 1 2 1h2l2-1 1 1 2 2 1 1h2l1 1 1-2c1-1 1 0 2 1v1l2 2h2v2l2 1 1 1h2l1-1 1 2 2-1 1-1v3l1 1h1l2-1h1l1 1h2l1-1h3-2 2l2-2c0-1 1-2 2 0 0 2 1-1 1-1l4-1 4-1c1-1 1-2 3-2s3 0 2 2l-1 3c-1 2-2 1 0 3l1 1 2-1 3-1 3 1 2 1h2l1 1h8a29 29 0 001 1v-1-1-1l-1-2 1-1 1-1h2l1-1c0-1 0 0 0 0h3l3-1v-1-3-1l-1-1v-4-3-2l1-1 2-2 2-2 2-1 1-1v-4l1-2 1-1 1-1h1l1-3v-2l1-3 2-2 2-2h4l3 2 1 1h1l2 2h2v-1l1-2 2-2 2-1 1-1h3l3 1h3l2 1h2l3 1 2 1v-1l1-1 2-1 3-1 2 1h1l1-1 1-2 2-2 2-1h2l2-1 1-1v-1-1-1l-1-2 1-2 1-1h1l2-1 1-1 2-1 1-1 2 1 1 1 2 2 1 2h4l1 1 1 1 1 1v2h1v1h4l2-1v-1l-1-3 1-3v-2c0-1 0 0 0 0v-2-1-1-4l1-2-1-2-3-4-1-2-1-1c-1 0 0 0 0 0h-3l-3-1-1-2v-1-3l-1-2h-1l-1-1h-1-2l-1-1h-1v-3-3-2l-1-1-3-1-1-1-1-1v-1-1-2l1-1-2 1h-2l-3 1h-13l-2-1h-2l-1-1c-1-1 0 0 0 0l-1-6v-3a7 7 0 00-2-4l-1-2h-1a38 38 0 01-4-2v-1-3-2l-1-1v-3l1-1-1-2-1-3-3-3-1-2 1-4a19 19 0 013-2h2l6 1h3l1 1 1 2v2l2 3v0l2-1v-2-3-2l1-2 6-2 2-1h4v-2-1l-1-1-2-4a15 15 0 00-2-3h-1l-2-2-2-1-2-5v-1l-1-2v-1-1l-3-2-1-1v-1l1-1 1-1 1-1v-1l-1-1-1-1-1-1-1-2-1-2-2-1-3-2-1-5-1-2v-4l1-2 1-2v-7l2-5 3-3 3-4 2-4 1-3v-2-2l-1-2v-3-1l-3-1h-2l-1-2-1-2-1-2-2-2-1-1 1-2-2-1-2-1-1-1-2-1-1-2-1-1-1-2-1-1-1-2 1-2 1-1 1-1v-2l1-3-1-2 1-1 1-2-1-2v-2l-1-2-1-1-2-1z" onclick="piemonte('giallo')"/>
  <path fill="#d6131d" d="M528 56l-1 1-1 2-1 1-1 1-1 1v1l-1 2h-1l-4 1-3-1-2 1-3 1-2 2h-1l-1-1-1-1-2-3-1-1-1-1h-1v-1h-1v-1l-3-1-1-1h-1v3l-1 2v1l-1 1-1 1-2 2v1h-1v4l-1 1v1l-2 2-2 2-1 1-2-1-1-1h-1-1v1l-1 1h-1l-1 1h-2l-1 1h1v1h3l1 1h1v5l-1 1-1 1h-1l-1 1h-1l-1 2v1l1 2-1 2-1 1h-1v1l1 1v1l1 1 1 1-1 2v1h1l1 1 3 1h3l1 1v5l1 2v8h-1l-1 1-1 2-1 1-2 1-1 1h-3l-3 1h-7l-1 1h-1v2l-1 3v1l1 1v3l1 3-1 2-1 1-2 1-1 1h-5l-2-1c-1-1 0 0 0 0l-2-2-2-2-1-2h-2l-1 1-1 1v1l-3 2h-5l-1 2-1 2-1 1v4l-1 1-1 1h-1l-2-1-1-1h-1l-1-2h-1l-1 1v1l-1 1v5l-1 3-1 2-1 2v1l-1 1h-1l-1 3v5l-1 3-2 1v1l-2 2h-2-1a43496 43496 0 00-4 0h-1v-1h-1v-1l-1 2-2 1-1 1-2 1h-2l-1-1-2-2-1-1-1-1a18 18 0 00-2-1l-1-1v-2l1-3 1-2 1-1v-2l1-3v-3l-1-1-3-1v1l-1 3-1 2c-1 1 0 0 0 0l-1 3-2 2-1 1-1 1v4l-1 1v1l-2 1-1 3-1 1-1 3-1 1v1l-1 3-1 1-1 1v3l-1 1h-1v2l1 1v4l1 3 1 2v3h2l4 1 1 1v5l-2 2-1 1h-1v2l1 2 1 2h5l2 1c1 1 0 0 0 0l2 2 2 2 2 1 2 1 1 1h2v1l1 2h2v1h1l1 2 4 2-1 1v2h1l2 1 1 1v3h2l1 1 1-1 2-1 2-1h2l1 1h1l1 1h1l1 1v2h-1l-1 1-1 1h1v1h4v-1a3 3 0 014 1l1 2 1 2v1l1 2h1l1 1 2 1h3l3 2 1 1v2h1v4h2l2-1h2l1 1 2 1v2l3 2h6l2-1 3-2 2-2 3-2 3-2 3-1h10l5 1h1l1-1h8l1 1 1 1 1 1 1 1 1-1h4l1 1h2l2-1h4l1 2v8l1 2h1l1 2v1l2 1h1l-1-2-2-1-1-1 2-1 1 1 1 2 1 2v2 1c1 1 2 0 2-1l-2-2 2 2 1 1v-2l2-1-1-1-1-1 1-1v-1l-1-1-1-2 2-1v-2l2-1v4l-1 1 1 2v2l2 1 1-1 1-2 1-2v-2l1-2h-2l1-2 1-1v-2l2-1v-1l1-2-1-2-1-1h-3l-2-1v-2l-1-1-1 1v-1-1l-2-1-2 1-1 1-1 2-1-1 1-2h2v-2-1h-2v-1-2l-1-1-1-1-2-2v-2-1l-1-2 1-1 1-2-2-2-1-2-1-1 1-2v-1c-1-1-2 0-2-2l1-1 1-2v-3l1-2v-2l1-2 1-2 1-2v-2l1-1 2-2 1-1 1-2-1-1-2 1v2h-1l-1 2-1 1-1 2v2l-1 2-1 2v2l-1 2v2l-1 2v2 2l1 2v2h-2s2-1 0-1v1s-1-1-1 1l1 1-1 1h-2l-1-2 1-1-1-2v-1l1-2-1-2 1-1-1-1c-2-1-1 0-1 1l-2 1-1-1c-1-1-1 1-2-1v-3l1-2v-2-2l-1-2-1-2 2-1h4v-3l1-1h2l1-1v-2l1-2 1-1 1 1 1 2 1 1h2l1 1 1 1 1-1-2-2v-1h-2l-2-1-1-1v-2l2-1h2l1-1c0-1 1 1 1-1v-2h2c1 1 1-1 1-1v2h2v-2l2-1 2-1 1-1h2l2 1h1c1-1 0-2-1-2l-1-1 2-1 3 1 1 1 1 2-1 1-2 1-2 1-2 1-1 1-2 1-1 1-2 1-1 1-1 1-3-1v2h3v3l1 1 1-1 1-1 2-1 2-1h2l2-1 1-1 2-1v-1h1l3-1 2-1 1-1h3l2-1 1-1 2-1 2-1h2l1-1 2-2 1-1 3-1 2-2 2-1 1-2 2-1h2l1-1 1-1 1 2h6l1-1v-1h-1l-1-1-1-1v-2l-1-1v-2-1-1l-1-1h-1v-1-1h-1l-1-1v-1-2-1l-2-2v-3-4l1-1v-1h-1l-1 1-1 1h-2-1l1 1-1 1v1h-1-4l-2-1-3-1-3-1-2 1h-1-1a19 19 0 00-1 3h-2l-3 1-3-1h-3l-3-1v-1h-1l-1-1-1-1-1-1-1-3v-2l-1-1-1-1h-1l-1-1-2-2-2-1v-1h-1-1l-1-1 1-1 1-2 1-3v-3l1-3 1-2v-3l1-3 2-2v-1l1-1 1-2-2-3-1-1v-1-1h-1l-1-1-1-1h-3l-2-1-1-2-1-2v-3-2l1-2v-1l1-2 1-1 2-3 1-1 1-3 3-2h1l1-2 1-1 2-1-1-1v-1l1-1 1-1 2-1h2v1h3l1-2 3-2h1l-2-1v-1h-1l-1-1v-2l2-2h3l2-1 3-1 2-1h1v-2l-1-1-1-1v-5h-1l-1-2-3-1-2 1h-1l-2-1h-2l-1 1h-2l-2-1c-1 0 1-2-1-2h-2-2l-2-1z" onclick="veneto('giallo')"/>
  <path fill="#d6131d" d="M327 62l-1 2-1 1-2-1-1 1-2 1-2 1h-2l-1 2-1 1-1 2-1 1-1 2-1 1 1 2-1 2v1l-1 2 1 2 1 2v2l1 1 2 1 3-1h2l1 2 1 2-1 2-2 1-1 1-1 2-1 2 1 2 1 1 1 2 2 2 1 1 1 2-1 2-1 1-2 1h-4l-2 1h-1l-1-2 2-2-1-2-1-1-2-1-2-1-1-2-1-2 1-2v-1l-1-2-2-1-1-1h-4l-2 1-2 1h-2l-2 1-1 1-2 1-2-1h-2l-1 1-1 2v2l-1 2-1-1h-2l-1 1-2 1h-2l-1-1-2-1-2-1-1-1-2-1-1-2v-2l-2-1-1-1-2-2v-2-4-2-2l1-2v-2l-1-1-1-1h-2l-1 2-1 2h-1l-1-1-2-2v-1h-6l-1 1-1 2v4l-2 1-1 1 1 1 1 1 1 2v6l1 2 1 2-1 2v2l-1 2-1 1-1 2-1 2-1 1-1 3-1 1-1 2-2 2-1 1-1 2-2 1-1 1-2 1-1 1-1 2 1 1v2l-1 2-2 1-1 1-3 1v2l1 2v1l-1 2-1 1 1 2v4l3 1 2 1 1 1 1 1c1 1 0 1-1 2l-1 1-2 1v4l-1 2h-2l-1-1-1-2-1 2c-1 1-1 0-2-1v-1h-2l-2 1v-2l2-1 1-2-1-1-1-2v-2l-1-1-2-2v-2l-1-2h-2l-2-2-2-1-1-1v-2h1l2-2v-1-1l2-1v-1c1-1 0-1-1-2l-1-1-1-1h-2l-1 1-3-2-1-1-1 1h-4a34 34 0 001 6v4l-1 2-2 5v1l-4 3-3 3-1 4v7l-1 3-1 2v2l1 2 1 6 2 1 2 1 2 2 1 2 1 1 1 1 1 2v1l-1 2-2 1 1 1 2 2h1v3l1 2c1 1 0 0 0 0 0 3 0 3 2 4l1 2 2 1 1 1 1 1 1 2 3 4v1l1 2v4l-1 1-2-1h-1-1l-3 1-4 1-1 1v8l-2 2-2 1h-1l-1-1v-2l-1-2-1-3-1-1-3-1h-5-1l-1 1-1 1-1 1 1 1 2 5 2 2 1 2v2l-1 1v1l1 4v3h1l2 1c0 1 0 1 0 0l3 2 1 3 1 3v2l1 6h1l3 1h12l2-1h5l1 2v4h1l2 1 2 1 1 1v8h4l1 1 2 1 1 3v4l2 1h3l2 1 1 1 1 2 3 3 1 4-1 3v4h2v-1l2-1h2l1 1h1l1-2v-2l-1-3-1-1-1-2v-1l1-1 1-2 2-2 1-1v-1l1-1v-1l-1-1-1-1-2-1-1-1-1-1h-1l-1-2 1-1v-1l1-1 1-1 2-2 1-2v-1l1-1v-1l1-3v-2l1-1v-1l1-2 1-1c0-1 0 0 0 0l2-3 2-1 3-1 3-1h1l2 1 1 1-1-3v-1l1-1c0-1 2-2 4 0v1c0 1 0 0 0 0l1 1 1-1v-1l2-1h1l2 1 1 3v2l2 2h3l1 1v-3-1l1-1h2l3 2 1 1 1 1v1h1l1-2v-1l1-1h2l-1-1v-2l1-1v-1-2-1h2l2 2 1 1v1l1 1h3l1-1h1l1 1 1 3 1 3 1 2v1h1l4 1 3 1h3l3 1h3l1 1 1 1 2 1 2 2 2 2h3l2 1a13 13 0 016 1h1l1 1 1 1 2 1v1l2 1h1l3 1h3l1-1 1-1 2-1 2-2 3-2 1-2 1-2 1-1 1 1h1l1 1v1l1 1v4h2l3 1 3 2 3 1 1 1h1a11 11 0 002-1l1-2 1-2h2l1-1h5l1-1h5l3 1h7l3-1h10l2 1h1l2 1 1 1v-1-1l-1-1v-1l-1-1-1-1h-3l-2-1-2-1-1-1-2-2v-2l-1-1-1-2h-1l-1 1h-1-1-1-2v-1h-1v-1h-1a615 615 0 010-2l1-1 1-1h1v-1h-2-1l-1-1h-1l-2 1-1 1h-3-2-1l-1-1v-1-1-1-1h-2l-2-1v-4h-1l-1-1-1-1-1-1h-1l-1-1-1-1-1-1-1-1-1-1h-2l-2-2-2-1-2-2-1-1h-2-1-1l-2-1-2-2-1-3v-1l-1-1 1-1 1-1h2l1-2v-2-1-1h-3-2l-2-1v-1-1c0-1 0 0 0 0v-1l-1-2-1-3v-1-1-1-1-1l-1-2 1-2 1-1v-1-1-1l1-1h1v-1l1-2v-2l1-1 1-2v-1l1-1 2-3 1-2h1v-2a8 8 0 010-2l1-1 1-1v-1l2-2 1-2 1-2c0-1 0 0 0 0l1-3-1 1h-4-5l-1 1-2 1a46 46 0 00-3 1v1l-2 1-1 1h-1l-2 1-2-1-1-1v-2-2l-3-1-1-1h-1l-1-1-1-2v-1-1l-1-1v-1l1-2 1-2 1-1v-1l-1-1v-1l-1-1-1-1v-2-3-2-1l2-3 1-1 1-3 2-2 1-3 1-1v-3l1-2v-1-4l1-1v-1l-1-2v-2l1-1v-3-2a6 6 0 00-1-2l-1-1v-1l-1-1v-3l1-1 2-1h1l3-1 1-1 2-2v-1-1-1-2l-1-1-2-2-2-1-3-1-2-1h-1l-1-1-3-1-2-1-2-1-1-3-1-2v-1l-1-1c-1-1-2 1-2 1l-1 2h-2l-1-2-2-1-1-1-2-1-1-1 1-2v-2l-1-1-1-2z" onclick="lombardia('giallo')"/>
  <path fill="#d6131d" d="M294 255v3l-1 1v1l1 1v2l-3 1-1 1-1 2-2 1-2-1-1-2v-1l-3-1v3l1 1-1 1h-2l-1-1h-1-1l-2-1-2-1-1-1v-1-2l-1-2h-1v1l-1 1h-1l-2 1-1-1v-1h-1v-1h-1v5h-1-2l-1-1-4 1-2 1-2 1-1 2-1 1-1 1-1 2v2l-1 3v2l-1 1-1 1-1 1-1 3-2 2h-1v1h1l1 1v1h1l2 2 1 1 1 1 1 2-1 1v2l-1 1-2 3-2 2h1l1 3 1 2v3l-1 3-2 1h-2l-1-1h-1l-1 1-2 1-1-1v3l-1 1v3l1 2h3l1-1h1l1 1 2 2 2 2h5l1-1 1-1h3v1l1 1v1h4l2 1 1 1 1 3-1 2v1l-1 1v1l-2 3-1 1-1 1-1 1v2l1 1h2l1-1h1l2-1 4-1 2-1h3l3 1 1 1 1 1-1 4v2h3l1-1 1-1h1v-2l1-3v-1-1l1-1c0-1 0 0 0 0h1l1-1 2-2h2l2-1 3-1 3-1h3l2 1v3l1 1 2 1 1 2 1 1v3l1 2 3 1 2 1 3 1h1l1 1 1 1h1l2 1a47 47 0 004 3l1 1v1c0 1 0 0 0 0l2 1h3l1-1h2l3 1 2 1 2 2 1 1h1v1l2 2 2 1 1 2 2 2 2 2 1 1 1 1 1 2 2 2 2 1h3v-1l2-2h1l1-1h1l1-1h4l2 1 2 1 1 1a945 945 0 002 2l1 1h1l1 1 1 1 2 1h4v-1-1l1-1v-1l2-3h4l1 3 1 1 1 1v1h1l1-1h1l2 1c1 0 0 0 0 0h3l3-1h5l-1-1h-1l-1-2v-1-2l2-2 3-1 2-2h2l1-2h1l1 1 1 1h2l1-2 1-1v-1h3l1 1 1 2 2 2 1 2h1l1 1h2l1-1h1l1-1 1 1 1 1 2 1v2l-1 1v1l1 1h1v-1h6l2-1 1-1h2l1 1 1 2v4l-1 1v1l-1 3v1l-2 1-2 1h-1l-2 1h1l3 2-1 1h-1v2h-1l1 1 1 1 1 3 1 1-1 2v1l2 2 2 2 2 1 1 1 1 1 1 1 2 2v1h1l2 1h3l3-1 1 1h1l2 1v1h2l1 1 1 1h2l1 1h1v1l1 1h2l2-1 4-1 6 2-4-4 4-4 6 2 5-5 2-4 4-1 5 1-2-3h-1l-2-2h2v-2l-1-5h3l2-1 1-2 2-1 1-1h2l-1 2v1l-1 2 1 1h1l1 1h1l1 1 1 1v2l-2 2-1 1-1 2h2v-1a1 1 0 012 0v1l1 1h1l1 1 1 1v2h1v-1h1l1-1 1-1 2-1 1-1h5v-1l1-1-1-1-1-1v-3-1l1-1 1-1v-1-1-1h-2l-2-1-1-1-2-2-2-1-1-2-2-1-1-1-1-2-1-1-1-1-2-1-1-2-1-2-2-2-3-2-1-1-1-1-2-2v-2l-1-2-2-2-1-2-1-1v-2l-1-2v-3l-1-2v-2l-1-2-2-1c-1 0-1 0 0 0l1-2v-2-2l-1-2-1-2v-2l-1-2-1-1v-2l-1-3v-2-2l1-2v-2l1-2-1-2-1-1-1-1v-2-2-2l-1-2-1-2v-2l1-2 1-2v-2-2l1-2v-1l-1-2 2 1v-2l-1-2v-3-2-2c0-1 0 0 0 0v-2h-1-1l-3 1-3-1h-1-1-1l-1 1-3-1-1-1v-1h-1l-1-1h-1-1-2-1-2l-2 1-5-1h-9l-3 1-3 2-3 2-2 2-3 2-3 1h-6l-4-2-1-2v-1l-1-1h-1-1l-1 1h-3l-3-1-2-1-1-1-1-1h-11l-3 1h-7l-3-1h-5l-2 1h-2-1l-2 1h-1v1l-2 2v1h-1l-1 1h-1l-1-1h-2l-3-1-3-2-3-1-2-1-1-1v-1-2-2h-1-1-1l-1 3-2 2-3 2-2 2-1 1-1 1h-7-1l-1-1v-1h-1l-1-1-1-1h-1l-1-2h-1-1l-2-1h-3l-3-1-2-1-3-1-2-2-2-1-1-1-1-1-2-1h-4-3l-3-1-4-1h-1l-1-2-1-3-1-2-1-2v-1l-4 1h-2l-1-2v-1l-1-1v-2z" onclick="emiliaromagna('giallo')"/>
  <path fill="#e38300" d="M517 451s-1 0 0 0l-2 1c-1 0 0 0 0 0l-2 1h-5l-2-1h-1l-2-1v1l-1 1v1l-1 1-1 1v1l-1 3h-1v1l3 1h1v2l-1 1h-1v2h-3-2l-1 1-1 1v1l-1 1-1 1v1l-1 1h1l1 1 1 1h2v1l1 1 1 1h2v3l1 1v1l1 1h3v-1h1v-1h4l1 1h1v4l-1 1-2 2h-1l-2 1-1 1h-1l-1 1h-2v1h-1l-1 1-1 1h-1v1h-2-1l-1-1-1-1h-1-1l-1 1c-1 1 0 0 0 0v1h-1l-1 1v2h-1-1l-2 1-1 1-1 1h-2v1l-1 1v1l1 1 1 2 1 2v2l-1 1v1l2 1h1l1 1h1v4h-1v2l-1 1c1 0 0 0 0 0v2l-1 1v3 5l-1 2v2l-1 1c-1 0 0 0 0 0v2h-1l-1 1h-1l-1 1v1l1 3 1 1 2 1 3 1v1h1l1 2-1 1-3 1-1 1-1 1 1 2c1 1 0 0 0 0l3 3h1l1 1 2 2 1 1c1 1 1 0 0 0h4l1-1 1-1a13 13 0 011-2l1-1 2-1 3 1 1 1 1 1 2 1 2 2 1 3 1 3 1 3 1 2v3l1 3 1 1h6l2-1 1-1h2l2 1v1l1 1-1 3-1 1v1l1 2 1 1 1 2v2l-1 1 1 1v1l3 1 2 2 1 1c1 0 0 1 0 0v1h1l1-1 2-2 2-2 1-1-1-3v-3-2l1-1h2l1 1 1 1v1h1l1 1h1v-1l2-1h1l1-2v-1-1-2-1-1l1-1h2l1-1h1l1-2v-1-1l1-1h1l1-1 1-2 2-2 1-2 2-1v-1h1l1 1v-1h1l1-1h3l2-1 1-1 1-1h4l1 1 2-2 3-1 1-1h1l1-1 1-2a11 11 0 011-3 2 2 0 011 0v-1-1l1-3 2-1 1-2 2-1v-1-3-2h-1-1l-1 1h-4l-2-1-1-1-1-1-1-1-1-1-2-2h-2l-1-1-1 2v1l-1 1-1 1-1 1h-1l-1-1-1-1v-1l-1-2h-1l-2-1-2-2v-2l-1-3v-2-2l-1-2a12 12 0 01-1-2l-1-1-1-2v-2l-1-3-1-1v-2-1-1-1l1-2v-2h1l-1-1-1-2v-2l-1-1v-1-1l-1-1-1-1v-1-2-1l-1-1v-2l-1-1h-1l-1-1-1-1-1-2v-1l1-2-1-2v-2-1l-1-2h-1c0 1 0 1 0 0v1h-1v1l-1 1h-1l-3-1h-1-1l-1 2-2 1h-1-1-1a7 7 0 01-1-1l-1-1-1-1v-1l-2-2v-1l-1-1-1-2h-1l-1-1h-1-2l-1 1-1-1-1-1h-2-2l-1-1-1-1h-1v-1h-1a1 1 0 011-2l2-1 2-2v-2-1l-1-1z" onclick="umbria('giallo')"/>
  <path fill="#d6131d" d="M473 546h-1l-1 1h-1v1l-1 2v1h-1-1-1l-1-1-1-1-1 1h-1l-1 1-1 2v3h2l2 1 2 2v2l-1 1h-1l-2 1v1l1 1 1 1 1 3-1 1v1l-1 1h-2l-1 1-2 1-2 1-2 2-2 2-3 1-2-1h-1v4l1 1h2l1 1v2l1 1h-1v5l-1 2h-1l-2 1-2-1h-3l-3-1-1 2v6h-1 1l2 1 2 1 2 1 2 1 2 1 2 1 2 2 1 2 2 1 1 2 2 1 1 2 1 2 1 1 1 2v2l1 1 1 2v2l1 2 1 1 1 2 1 1 1 1 1 2v2l1 2 1 1h2l2-1h2l2 1 2 1 2 1 1 1 2 2 2 1 1 1 1 1 1 2 2 1 3 1 1 1 2 2 1 1v2l2 1v2l2 2v2l1 2 1 2v6h2l3 1 2 1 2 1 2 2h1l2 2 1 1 2 2 1 1 2 2 1 2 1 1 2 2 1 1 1 2 2 1 1 2 2 2 1 2 1 1 1 2 1 2v2l1 1h2l1-2h2l2 1 2 1 2 2 1 1 2 2 1-1 1-2 2 1h2l2 1 1 1h2l1 1 2 2 1 1 2 1 1 2 1 1 1 2 1 1 1 2 1 2v2l1 1 1 2 1 1 2 1h2l1-2 1-1 1-2 2-1 2-1 2-1h5l3-1h4l3 1 2 1 2 1h1l1 1 1 1 2 1 1 1 1 2 1 1 1-2h2l1 2h4v-2l-2-1 1-2h3l2-1h3l2 1 3 1a10 10 0 012 1h1-1 1l1-1 3-1h2l1-1 1-1v-1l2-1 1-2h1v-1-1-1l-1-1v-1-2-3-3l-1-1 1-1h1l3-1v-1c0-1 0 0 0 0l2-3v-1l2-1h1l-1-2 1-3 1-3 1-1v-1l1-4v-2l-1-3-2-1c0-1-2-1-2-3v-1l-1-1v-1l-1-2-1-1-2-1-4-1h-3-1v1h-1l-2 1-1-1-2-2v-1-1l-1-2h-2a17 17 0 01-1 0h-1l-1-2-1 1v1l-1 1-1 2-2 1v1l-1 1-1-1h-4l-1-1h-1l-2-1v-1l-2-1-1-1h-1-2l-1-1-2-1-2-2-2-1v-1-1a24 24 0 010-2l1-1v-2-1h-1l-2-1-2-2h-2l-2-1v-1-1h-1v-3l-1-1-1-1c-1 0 0 0 0 0l-4-1h-2l-1-1h-2l-1-1-1-1-1-1-1-1-1 1h-1v1l-1 1h-1-2-1v-1-2l-1-1v-2-1-2-1l-1-2 1-1 1-1 2-1 1-2 3-2 1-1 3 1 3 2 2 1 1 1 1 1 1 1h1l-1-1v-1h-1l5-1 1 1h3v-1-4-1l1-1v-1l2-2h1v-1l-3-1-2-1-3-2h-1l-1-1h-2l-1-1-1-3-2-2-1-3v-2h1l-1-4v-1-1l-2-2-2-2-2-2-1-1 1-2v-1l2-1h1v-1-2-1l-1-2 1-1 1-1 1-2c1-1 0 0 0 0l1-3 2-1h1l4-1h3l3 2h2l2-1 1-2 2-2-1-1-2-1-1-1-1-1-2-1v-1h-1l-1-1v-1-2l-1-1h-9v1l-1 2-1 2-2 1-2 1-1 1-3 1h-5l-1 1-1 1-3 1h-3l-1 1-1 1h-1v-1l-2 2-1 1-1 3-2 1-1 1-1 1v1l-1 3-2 1h-1l-1 1h-1v7h-1l-1 2h-1l-1 1-1 1h-2l-1-1h-1l-1-1-1-1-1-1v4l1 3-1 2-1 1-2 1-1 2-2 2h-1-1l-1-1c-1-1 0 0 0 0l-1-1-1-1-1-1-2-1h-1v-1h-1v-1l-1-2v-1l1-1v-1l-2-3-1-1v-1-2l1-1 1-2-1-1h-1l-1 1-3 1h-6l-3-2v-3l-1-2v-1l-1-3-1-3-1-2-1-3-1-1-2-2-1-1h-1l-2-1-2 1v2l-1 1h-1l-1 1-1 1h-4l-2-1v-1l-2-2h-1l-2-1-2-2-1-2-1-1v-2l1-1 3-2 1-1-3-1-2-1-1-1-1-2-1-3zm102 229l-1 1-2 2-1 1v1l1 2h2l1-1c1-1 0-2-1-2l1-2 2-1-1-1h-1z" onclick="lazio('giallo')"/>
  <path fill="#e38300" d="M297 341l-3 1-3 1-2 1h-1l-3 2h-1l-1 1v1l-1 1v2l-1 2-1 2-1 1 1 1v2l1 1 1 2 3 1 2 2 3 1 1 2-1 2v1h-1v5h2l1-1 1-1h3l1 1v2l-1 2-1 1h2l1-1 3 1 2 2 2 2v1h4l2 1v4l-1 1v1h-1v3l-1 1h-1l4 1h1l2 2 1 1 1 1 1 1 1 3 2 1 1 1 2 1 1 2 1 1 1 2v3l1 3 1 1 1 2 1 1v12l2 2v2l-1 1-1 1c-1 1 0 1 1 2v1l1 3-1 1v2l1 2 2 1-1 2-1 1 1 2v3l1 2 1 1 1 2 1 1 2 1 1 1 1 2 1 2 1 1 1 2 1 1 1 2v2l1 5 2 1 2 1 1 1v3l1 2v2l1 3v4l1 2-1 2v10l-1 2v2l-1 2-2 2-1 1v4l1 2v1l2 2h2l2-1-1-2 1-1 2-1h5l3 1 2 1 2 1 2 1 1 1 2 1 1 1v6l-1 2v2l-1 1-1 1c-1 1 0 2 1 2l1 1 2 1h5l1 1 2 1h2l2 1 1 1 2 1 1 1 1 2 2 1 1 1v4l2 1 2 1 2 1 1 1v3h1v2l1 1 1 2v1c1 1 1 0 2-1h1l1 2 1 1 1 2v2l1 2-1 1-1 2-1 2-1 1-2 1-1-1-1-1-2 1-1 1 1 2v1l-1 2h2l2 1 2 1 1 1h3l2-1v-2-2l2-1h5l2 1h5l2 1 2 1 2 1v-3-2l1-2v-1h1l1-1 3 1h3l2 1h1l1-1v-1-1l1-3-1-1v-1h-1l-2-1v-1l-1-1v-2-1l1-1v-1l1-1 4 1 1-1 1-2 3-1 2-2 2-1h2v-1l1-1h1l-1-2-1-1v-1l-1-1v-1-1l1-1h2l1-1-1-1-3-1-1-1c-1 0 0 0 0 0l-1-2v-1a10 10 0 010-2v-1l2-1 1-1 1-1 1-1h2l2 2c1 1 0 0 0 0h1v-1l1-2 1-1 2-1h2l1-1 1-1 1-1v-1l1-1v-1c0-1 0 0 0 0l1-1v-1-2-2-2-1-1l1-2v-1l1-2v-1l1-2v-1h-1c-1 0 0 0 0 0h-1v-1h-1-1-1v-2-1l1-1v-1l-1-2-1-2-1-2 1-2c0-1 0 0 0 0v-2l2-1h2l2-2 1-1h1l1-1 1-1v-1l1-1h1l1-1h3l1 1v1h2l1-1 2-1 1-1 3-1 1-1 1-1h2v-1h1l1-1 1-1v-2h-2-1a22 22 0 010 1h-1l-1 1h-3l-1-1h-1-1v-1-1c0-1 0 0 0 0v-1h-1a2 2 0 010-2l-2-1-1-1v-1h-2v-1l-1-1h-1-1l-1-1 1-2v-2l1-1h1v-1l1-1 1-2h1l1-1h4v-1l1-1h-2-1l-1-1v-1l-1-1v-1h1l1-1 1-1 1-2v-1l1-1 1-1v-1l1-1h-1l1-1v-1-2l-1-2 1-1 1-1 1-1h1l1-1 2-1 2-1 1-1v-1l1-1h2l1 1 1 2v2h1v-1-1l1-2v-1l-1-1-2-2-1-1-1 1h-3-1a1 1 0 01-2 0v-1l-1-1v-1l1-2v-1h-1-1l-2 1v1c-2-1 2 3 3 5h-1v1l-1 1-3-2h-3l-6 2h-3l-1-1-1-1-1-1h-2l-1-1v-1h-1-1l-2-1v-1l-2-1h-1l-1 1a7 7 0 01-5 0l-1-1-2-1-1-1-1-2-1-1h-1l-2-2-1-1-2-2-2-1-1-1v-1-2l1-1h-1l-1-3-1-1v-1l-1-1 1-2h1v-1l1-1h-2v-1-1-1l2-1 3-1c-1 0 0 0 0 0v-1l1-2v-2l1-1v-1-1-1l-1-1h-1l-2 2h-5l-1 1h-2l-2-1v-4-1l-2-1h-1l-1 1h-4l-1-1-1-1-2-2-1-2-2-2h-1v1c0 1 0 0 0 0l-2 2-1 1h-2-1l-1-1v-1l-1 1v1h-3l-1 2-3 1-1 1v2h1l1 1v4h-6l-3 1h-3l-2-1h-1l-1 1h-1l-1-1h-1v-1l-1-1v-1l-2-2c0-1 0-1 0 0l-2 2v1l-1 1v1l-1 1v1h-1-1-3l-2-1-1-1-1-1h-1l-1-1-1-1h-1l-1-1-1-1-2-2h-3-1l-1 1h-1l-1 1h-2v1l-1 1-1 1h-4l-2-2-2-2-2-2-1-1-1-1-2-2-1-1-2-2-2-2-1-2h-1l-1-1h-1l-2-2-1-1a40831 40831 0 01-4-1l-1 1h-1-3l-2-2h-1v-1-1l-3-1-1-1-1-1h-2l-1-1h-1v-1l-1-1h-2l-3-1-3-2-1-2-1-3-1-1v-1l-2-2-2-2v-2h-2zm109 236v0zm-117-62l-1 2v2l-1 2-2 1 2 1 1 1 1-2h2v-2-2l-1-2h-1v-1zm54 26l-2 3-1 2-1 1v2l-2 1-2-1h-1c-1-1 1-1 1-2h-4l-1-2v3l-1 1-2 1c-1 0 0 2-1 1l-2-2-2-1h-2l-2 1-2 1-1 1 1 3v2l1 1 1 1h8l2-1 2-1 2 1v-2h1l1 2c1 1 1-1 1-1l1-2 2 1v1l1 2 2 2h1l2 1 1-1 1-2-2-2h-1l-2-2c-1 0-1 0 0 0l2-1 2-1v-2l-1-2 1-2 1-2-1-1-2-2zm-30 30v3h-2l-2 1v1l2 1 1 1h2v-2-2l-1-2v-1zm72 29c1 1-1 0-1 1v1l-1 2 1 1 1 2 1 1 2 1 1-1v-2l-1-2-1-2-1-1-1-1zm-51 4h-2l-1 2v2l1 1h2l1-1 1-1-1-2-1-1z" onclick="toscana('giallo')"/>
  <path fill="#e38300" d="M713 675h-1l-1-4-2-7-4-3c-1-2-4-2-5 0s-2-2-3-2c-2-1-5-2-6 0-2 1-2 3-3 5-1 3-3-1-4-1-2 0-3 2-4 3 0 2 0 5 2 6l2 3c0 1 2 1 1 2-2 0-4 2-4 4-1 1-3 1-3-1-3-1-4 2-5 4 0 1 2 2 0 1-2 1-4-3-6-1 0 2-1 2-2 2-2 0 0 1 0 0l-1-1v-1l-1-1-1-2v-1h-1v-1l-3-1h-3l-4-1h-2l-1 1v1h-1l-1-2v-1l-1-2-2-2h-1-1-1l-1-1v-1l-1-1-1 1h-1v1l-1 1v2l-1 1-2 2h-4-1l-1-1h-1l-1-1-2-2a26 26 0 00-2-1h-1-1l-1-1-2-1-1-1-1-1h-1a23 23 0 010-2s0-1 0 0l1-2v-2-2l-2-1-2-1-2-1-1-1h-2v-1h-1v-1-2-1-1h-1l-1-1-2-1h-4l-1-1-2-1h-1-1v-1a3 3 0 00-2-2h-1l-1-1h-1l-1 1-1 1-1 1c0 1 0 0 0 0h-1v-1l-1-2v-1-2-1-2l-1-1h1l2-2 2-2 2-1 1-1h1l2 2 3 2h1l1 1 1 1 1 1 2-1 1-1v-1l-1-1 1 1 1 1h5l1-1v-1-1-4l1-2v-1h2l1-1v-1-1l-1-1-3-2-2-1-3-1-1-1-2-1h-1-1l-1-3-1-2-1-3 1-2-1-3v-1-1-1-1l-3-2-2-1-1-2h-1v-1l1-1h2l1-2v-4-1h-1l1-1v-1l1-1 1-2 1-2h1l1-1h6l2 2h2l2-1 2-1 2-2a10 10 0 002-3v-1l-2-1-1-2h-1l1-1 2-1h1l1-1 2-2 1-1 2-1h1v-2-1-1l2-3 1-2 1-1 1-1h5l2 1 2 1 2 1h2c1 0 0 0 0 0l2-2 3-2 1-2 2-2 2-1h1l1-1 1-1 2-1h5v-1l1 1v5l1 2 1 2 2 3v2l1 2v2l1 2 1 2 1 2 1 2 2 2 1 2v3l1 2 1 1 2 2 2 2 1 2 1 1 1 2 2 1 2 2 2 2 1 1 1 1 2 2 1 2 1 1 1 1 3 1 2 2 2 1 2 1 1 1 1 2 1 2 2 2 1 1 2 2 1 1 1 2 1 2 1 1 2 1 1 2 2 1 2 1h2l2 1 3 1 1 1 3 1v7l1 1 1 2h2v4l-1 1-1 2v1l-1 2-1 1-1 1-1 2-2 2-1 2-1 1-1 3-1 1c-1 0 0 0 0 0l-1 1c-1 0 0 0 0 0l-1 1-1 1-1 1 1 1-1 1-1 1v1l-1 3-1 1-2 1-1 1-2 1z" onclick="abruzzo('arancione')"/>
  <path fill="#e38300" d="M666 688c-1 1 0-1 0 0l2 2 1 3 1 3-1 4v2l-1 1-1 2-1 3 1 2v1s1 0 0 0v1l1 1 1 3v2l1 1v1l2 1h2l1-1h2v-1l-1-1-1-3v-3-1l1-2 1-1v-1l1-1h6l3 1 3 1h1l1 1h2l2 1 1 1 1 1v1h1l1 1h2l1 1 3 1 2 2c1 1 0 0 0 0l1 1 1 1h3l3 1h4l2 1 2-1h2l1-1 1-1 2-1v-1l2-1 1-2h1v-1-1l1-1h4l1 2 1 1h3v-1l2-1 1-1 2-2 3-1h1v-1l-1-3v-3l1-2v-3-3-2-1l1-1h2l2 1 1 1 2 1 1-1 2-3 2-1 1-1 1-1a5 5 0 013-1v-1-1l-3-1-1-2-1-3v-3-4l1-2v-2h1v-2l1-2v-2l1-3h-2l-2-1-2-2-1-1-2-3-2-1-2-1-2-1-2-1-3-1h-2l-1-1-2-1-2-1-2-1-2-1v2l-1 2-1 2v1l-1 2-1 1-1 1-2 2-2 3-1 1v1l-1 3-1 1a3 3 0 01-2 1v1h-1l-1 1 1 2h-1v1l-1 1c-1 1 0 0 0 0v1l-1 2-1 2-2 1-1 1-3 2h-1c-1 0-1 2-2 1l-2-5v-2l-3-7c-2-1-3-4-5-1-4 2-4-4-8-3s-2 8-7 7c-2-3-4-3-4 0l2 6 3 3c1 3-2 3-3 4s-2 6-7 3c0-3-3 2-1 3-2 3-6 0-7 0l-3 2z" onclick="molise('giallo')"/>
  <path fill="#e38300" d="M838 752l-2 2-4 3-3 1h-15l-4 2-2 1v1l1 1 1 2v8l-1 1v2h-1l-1 3-1 1h-2l-1 2v1l-2 1-4-1h-3l-1 1v1l-1 1-1 1h-1v1l2 1 1 3v6l1 2v1h1l1 1h1v1h1l2 1 1 1 1 1h1v3l-1 1-1 2v2h1l1 3v1l1 1 1 2 1 1 1 2h1l1 1 2 2 1 1 1 1v1l1 1v1l1 1 2 1 2 2 1 1 2 2v3l1 2 1 1v1h1v1h4l1 1 1 1 1 1v5l-1 3v1l-2 1-1 1h-1l-3 1a12 12 0 000 1v1l-1 3v2l-1 1v1l-1 2v5l-1 4h-1v2l1 2 2 1 2 2v4l2 1 1-2 2-3 1-1v-2-1-1h1c0-2 1-2 3-2h3v1h1v1l2 2h2l3-1 5 2 1 1c1 1 0 0 0 0v5l1 2 2 1h5l2-1 2-1h5v-1-1l1-1h10v-1l1-1-1-1 2-2 3-3v-2-3-1l1-1 1-2 1-3 1-1 2-1h4c1-2 3-2 5-3h2l4 1 4 3h1l1-1v-3l1-1 1-2 1-1 2-2-1-1v-1l2-2v-1l1-2 1-1 1-1 1-2 2-2 1-2 1-2 1-1v-1l-1-1-1-1-3-4v-1l-1-1-1-1h-2-2l-1-1-2-2 1-4v-1l-1-2v-1l-1-1-1-1 1-6 1-3 1-2 1-2h-1l-1-2-3-3-1-2-2-1h-3l-2 1-3-1h-2l-3 4-1 1h-2l-2-1-2-2-2-1-3-1-2-1-2-2-1-2-4-3a20 20 0 01-2-3l-1-2v-3-2c0-1 0 0 0 0l-3-3-2-1h-1l-3 2-3-1-5-2-5-2-3-2v-2-1l3-1 2-1h1l2-1-3-3-4-3c-1-1-3-2-3-4l-3-2-1-1z" onclick="basilicata('giallo')"/>
  <path fill="#d6131d" d="M849 653h-4l-3 1h-1l-3 1-2 1h-2l-2 1h-3-4l-2 1h-2l-1-1-2-1h-5l-1 1h-2l-2 1h-7l-3 1h-6l-2-1-2-1h-10l-3-1h-3l-1 4v1l-1 2v2l-1 2v1l-1 1v8l2 2 1 1c2 1 2 2 2 3v2l-2 1-2 1-1 1h-1l-2 2-1 2-3 2-3-1-2-2h-1v8l-1 3v4l1 1 1 1 2 1 1 1 1 1 2 2h1l1 1h1l1 3v3l-1 3-1 2 1 1v1l1 1 2 2 1 1v2h9l2 1 1 1v10h-1v3l1 3v2h1a10 10 0 001 2h1l3 1h2l3-1h2v-1h3l1 1 3 1 3 1 2 1 1 1 2-1 4-2h16l2-1 3-3 4-2v-1l1 2h1l3 3 3 3 5 3 3 4v2l-1 1-2 1h-1l-3 1h-2l3 2 4 2 5 2 3 1 1-1 4-1 2 1 4 3v7l1 1v1l2 1 3 3 2 2 1 2 3 1 2 1 2 2 2 1 2 1 1-1 3-3 2-1h1l3 1 2-1h3l3 2 2 1 3 4 1 2 1 1-1 2-1 3-1 2-1 6h1l1 1v3h1v2l-1 1v2l1 2h4l1-1v1h1v1l1 1 1 1v1l3 4 1 1v1l1-2 1-1 2-1 1-2 1-1 2-2 1-1 1-1 2-2h2l1-1 3-1h5l2 1 2 1v2l1 1h3l2 1v1l1 1v2l-2 1-2 1 1 1 2 2h2l2 2h2l2 1 2 1 2 1 2 2 2 1h2l1 1 2 1 2 1 3 1h5l1-1h11l2 1h4l1 1h2l1 1 2-1h2v2l2 1 1 1v2l1 1v5l2 1 1 2 2 1 1 1v1l2 1v7h-2l1 2 2 1v3l-1 1-1 1 1 2 2 1v2l2 2 1 1 1 1 2 2 1 1 3 1 1 2 2 1 1 1 2 1h5l2 1 2 1 1 1 2 2 1 1 2-1 1-2 1-1v-2-3l1-2v-2-5l1-2 1-2v-2l1-2 1-2h1l2-1v-2-2l1-2 2-1v-1-2l1-1-1-1-1-1-1-2-1-2v-2l-1-2v-2l-1-2-1-2-1-1-1-2-1-1-1-2-2-2-1-2-2-1-2-2-2-2-2-1-1-2-1-1-1-2-1-1-1-2h-2l-2-1-2-1-1-1-2-2-2-1-2-2-1-2-1-1-2-1 1-1 1-2-1-1-2-1v-2c-1-1 1-1-1-2h-2l-2-1-1-2-1-1-1-2-1 2h-3l-2-1h-2l-2-1-2-2-1-1-2-1-2-1-1-1-1-2h-2l-2-1-2-1-3-1-2-1h-3l-2-1-1-1h-2l-2-1-1-2-1-1-2-1-1-1-2-2-1-1-1-1-2-1-2-1-1-1-1-2-1-2-1-1-2-1h-2l-1-1-1-2-3-1-1-1-1-1-2-1-2-1-1-1-2-1-1-1-2-1-2-1h-1l-5-2-2-1h-2l-3-1-2-2-1-1h-4l-2-1-2-1-2-1-1-1-3-1h-2l-2-1-2-1h-3l-3-1-1-2-3-1-1-1-2-2h-2-2l-2-1v-2h-3l-2-1h-1l-1-1-1-1-2-1-2-1h-3l-2-1-2-1-1-1-2-1-3-1-1-1-2-1-3-1-2-1-2-2-2-1-2-1-2-1-1-1-1-1-2-2-1-1-1-2-1-1v-2l-1-2v-2l-1-2v-2l1-2v-2l2-1 1-1 2-1 2-2h1l2-1 2-2 2-1 1-1 2-1 1-1 1-2h2l2-1 1-1 1-1 1-2 1-2 1-1v-2l-1-2-1-1-1-2-1-1 2-1v-1c1-1-1-1-2-1l-1-1-1-1-2-1-1-1-2-1-1-2h-4-2z" onclick="puglia('giallo')"/>
  <path fill="#d6131d" d="M556 405v2l-1 1-1 1v2l1 2v1l1 1c0 1 0 2-2 3l-2 1h-4l-2 1-1 1-1 1v1h-1l-1 1h-1l-1-1-1-1v-1l-1-1h-1l-1-2-3 1-1-1-1-1v-1l1-2 1-1 2-2-1-1h-1v-1l-1 1-1 2-1 1-1 1h-2l-1-1h-2l-1-2 1-2-1-1h-1l3 9-5 2-2 1-2 3-5 2 5-1-7 4v1h-1v1h7l2 1 2 2 1 2v1l-1 1v3l-1 1v1h-1-1-1l-1-2v-1l-1-2-1 1-1 2-2 1-2 1-1 1h-1l-1 1h-1l1 2v3l1 1h2l2 1h3l2-1h1c1 0 0 0 0 0h1v-1h2l2 2v3l-1 2-2 2-1 1v1l1 1h2l1 1v-1h3l1 1h5v1l1 1 2 2v1l1 1 1 1 1 2v1h1l1 1h2l1-1 1-1v-1h3l2 1h1l1-1 1-1 1-1h2a10 10 0 010 1h1v2h1v4l1 2a9 9 0 01-1 3l2 2 1 1 2 1v2l1 1v4l1 1 1 1v2l1 1v3l1 1v1l1 1v1h-1v1l-1 3v1c0 1 0 0 0 0v1l1 3 1 2v2l1 2a12 12 0 011 1l1 2 1 2v4l1 3v2l1 1 1 1h1l2 1 1 2v2l1-1h1v-1l1-1 1-1 1-2c1-1 1 0 1 1l3 1s2 0 3 2l1 1 2 2v1h5l1-1h3l-1 1c-1 1 0 0 0 0h2v6l-1 2-1 2-2 1-2 2v3h4l3 1h2l1 2v2l1 1h1v1h3l2-1 1-1s1 0 0 0l2-2c1-1 1-2 3-2a7 7 0 001-1v-1-1-1l2-3 1-2 2-2 2-1h5l3 1 2 1 2 1 2-2 2-2 2-2 2-2h2l1-1h1l1-1 2-1 1-1h5v-2l-1-2-1-3-1-3-1-2-1-2v-2l-1-3v-2-3-2l-1-2-2-2-1-2v-2l-1-2-1-2v-2-2l-2-2v-2l-2-2v-2l-2-3v-3l-1-2-1-2-1-2-1-2v-2l-1-1-2-2 1-2-1-2-1-2v-5-2l-2-1-2-1-1-2-2-1-2-2-1-1h-2v1c1 1-1 1-2 1l-2-1-2-1h-2l-2-2-1-1-2-1-5-2-1-1-1-2-2-1-2-2-1-1-2-1-1-2-2-1-1-1-2-1-1-1-1-2-1-1-2-1-1-2h-2l-1-2-2-1-1-1-1-1-2-1-1-1-2-1v-2l-2-1-1-1-2-1-2-1h-2l-2-1-1-1h-2z" onclick="marche('giallo')"/>
  <path fill="#F6E902" d="M901 868a6 6 0 00-2 0l-4 2-2 1h-4v1l-1 2-1 3-1 1v3l-1 3-3 3-1 1 1 1-1 2-1 2h-2-8v1l-1 1-3 1h-4l-3 2h-6l-2-2-2-2v-1-1a70 70 0 000-4l-4-1-3 1h-3l-2-3-1-1h-4v5h-1v1l-2 3-2 3-1-1 1 1v1l1 2 1 1 1 2-1 2-2 2 1 2 1 1 1 2 1 2v2l-1 3 1 2v4c1 2 2 1 2 3v2l1 1 1 2 1 2v4l2 1 2 2 1 2 2 2 1 1 2 2 1 2 1 1 1 3v2l1 3 1 3 1 2v7l1 2v14l1 2 1 2v2l1 2 1 2v2l1 2 1 1 2 2v2l1 2 1 1 2 1 2 1 1 2 1 2v3l-1 2v2l-1 3-1 2v1l-1 2-1 2-1 2-2 1h-2l-1 1h-2l-2-1-2-1h-2l-2 1-1 1-2 1-1 1h-3l-2 2-2 1h-2l-1 2-1 1v2l1 2 2 1 2 2 1 1 2 2 1 2-1 2v2l-1 2-1 2-1 3-2 2-1 3v3l-1-1v2l-1 3-1 2v2l-1 2-2 1-2 1-2 1-3 1h-2l-1 1-3 1-1 2v2l-1 1 1 2 1 2v4l-2 1 1 2v1 2l1 1v8l2 2v1l2 2 2 1 1 1 2 2h2l3 1h3l1-2h10l1 1h5l2-1h3l1-1 1-2 2-3 1-1 1-2v-2l1-3v-3l1-2v-3l1-2 1-2 1-2 2-1 2-1v-2l2-1 1-2 1-1 1-2 2-2 1-2 2-1h2l2-1 2-2h2l2-2 2-1 1-2 3-1 1-2 2-2 1-2 1-2v-2-3-1l-1-3v-2-2-3-3-2l-1-3v-3l-1-2v-2l1-3 1-1 1-1 1-3 1-1 1-3 1-1 2-1c1 0 0 0 0 0l3-1 1-1 2-1 1-2 3-1 2-1 2-1 2-1 3-1 3-1h2l2-1 2-1 2 1 2 1 1 2 1 1v-1h5l1 2 1-1 1-2 2-2 3-1 1-1-1-2v-2l1-2 3-1v-2h-2l-3-1-2-2v-3c1-1-1-2-1-2l-2-2 1-2 1-2 1-2 1-1v-2-3l-1-2-2-1v-2-2l1-1-1-3v-2l1-2 1-1 1-1v-3-2h-2l-2-1-1-1-2-2-2-1-1-2-1-1-1-2h-3l-2-1-3-1-2-1-1-2-1-1-2-1-2-1-1-2-1-2-1-1-2-2h-4l-1 1-2-1h-2l-2 1h-2l-2-1-2-1-2-1-2-1-2-1v-4l1-1c1-1 0-2-1-2l-1-2-2-1v-2l-1-3v-2l2-2 1-2 1-2 1-2 2-2 1-2 2-2 1-1 2-2 1-2-1-2-1-2-1-2v-2-3l1-1v-3l2-1 1-2 1-1-4-2-3-1z"/>
  <path fill="#e38300" d="M518 1119c-1 0-2 2-3 0v-3h2l1 2v1zm-2 6l-2-2h-2l-1 3 1 1c1 0-1 1 1 2 2 0 1-1 2-2h1l2 2h3l-2-2-1-2h-2zm-24-6h-2l-1 1v1l1 1 1 1 1 1 1 1h1v-1-2l-1-2-1-1zm-4 132l-1 1h-1l-1-1-2-1-1-1-1 1-1 1v1 3l1 1 1 2 1 1 1 1 1 1 1 1h3l1-1 1-1 1-2v-1l-1-1 1-1v-1l-1-1h-1l-1-2h-1zm52 146h-7l1 1h4l1 1 1 1h3v-1l1-1h-3l-1-1zm25-39l-2 1v1l2 1 2-1-2-2zm213-333l-2 1-2 1 1 1 1 1h2l1-2 1-1-1-1h-1zm-14 19l-2 1 1 1h1v-2zm-19 7l-2 1-1-1-2-1v2l-1 1c-1 1 0 1 1 1l2 1 1 1 1 1c1 1 2 0 2-1v-2l1-1-1-2h-1zm6 7c-1-1-1 0-2 1v1l-1 2v2l2 1 2 1v2h1l1-2 1-1-2-2h2l-1-2-1-1 2-1-1-1c-1-1-1 0-2 1l-1-1zm4 13l-2-1 2-1h-2l-1 2 1 2v2h2l2 1h2c1-1 0-1-1-2l-1-2-1-1h-1zm-162-37c-2 0-2 2-2 2-1 1-2 1-1 2h5l-1-2-1-2zm163 67l-2-2-2-1-2-2-2 1-2 1h-3l-2 1-3 1-2-1h-2l-2 2-2 2-1 2-2 2-1 2h-3l-3 1-2 1-2 2-2 1h-4l-2-1h-3l-2 2-2 1h-2l-3 1h-8c-2-2-2-1-3-1h-3s0-3-1-2l-2 2h-6l-2-2-1-2-3 1-3 1-3 1-2 1-2 2-2 1-3 1-3 1h-6l-2-2h-3l-3-1-2-1-3-2-2-2-2-2 1-2v-3l-2-2h-2l-1 2h-3l-3 1-2-1-2-1c-1-1-2-2-1-3v-3l-1-2c0-2-1-1-2-2l-1-2-2-1-2 1-1 2-3-1-1 2-2 1-3 1-3-1-2-1h-2l-1 2-1 2-2 2 1 2 1 2-1 3-2 1-2 2h-3l-2 2h-2l-3 1-2-1-2-2-2-1-2-2-2-1-1-3v-3l-1-2v-3c-2-1-1 1-2 1l-2-1c0-1 0-3-2-1v2l2 2v2l-1 2-2 2-2-1c-1 0-2 0-1 1l-1 3-2 1-3 1h-3l-2 1-2 2-2 2h-2l2 2v2l-1 3-2 2-1 2-1 2-2 1c-1 1 0 2 1 3l1 2 1 1v4h-2c-2 0-1 1-1 3l3 1 1 2v6l2 1 1 2 2 2h2l4 1 1 1 2 3v2l2 2 2 2 3 1 1-1 2-2h10l2-1 3 1h3l2 1 2 2 1 2 1 2 2 2h2l3-1 1 1h3l2 1h3l1 3h3v2l2 2v3l2 2h2l2 2 2 1 2 1 2 1 2 2c1 1 2 0 2 2l1 2h7l2 1c1 0 1-2 2 0l2 1 2 2 2 2 2 1 1 3 2 1 2 1 2 2 2 2 2 1 3-1 4 1 1 2 1 2 3 1h4l3-1h11l4 1 2 1 3 1 3 1 2 2 2 2 3 2 3 2 1 1 2 3 2 1 1 3v2l2 2 2 2 1 3v3l1 2 2 2 2 1 2 1 4-1 3 1 2 1 3 2 1 2 3 1 2-1c1-1 1 1 1 1l2 1c1 1 3 0 3-1l3-1h2l3-1 2 2 2 1 3 2h2c1-1 0-2 2-2l2 1 1 2 2 2 2 1 2-1 2-2 1-2-2-2 1-2-1-2-2-2-1-3 1-2v-3l2-2 2-2 1-2v-3l2-2 2-2 1-2h3c1 0 2 0 2-2l1-2h2l2 1c2 0 1-1 1-2l-1-2-2-1h-3l1-2 2 1v-3l1-1-2-2-2-1-2-1-1-2-2-1-1-3-1-2v-3l1-2h1v3c1 1 2-1 2-2h1l1-2-2-2-2-2s2 2 1 0-1-1-2-1h-2l-3-1c-1 0 1-2-1-1l-3-1v-3l-1-4v-3-7l1-3v-2l2-2 2-2 2-2 1-3v-2l1-3 1-3v-2c-1-2 1-2 1-2v-3l-1-2 1-2 2-2 2-2 1-2 1-2 2-2 1-2 1-2 2-2 1-2 1-3 1-3 2-1 1-3 2-1 1-3 2-2 2-3 2-2 1-3 1-2 2-2 2-5v-3l1-1 2-2h3v-2h-4l-2-2-2-2-2-1-2 2-2 2-2 1-3 1-2 2-3 1-2 1-3 1-3 1h-3l-1-3v-3l-2-2c-2 0-1 1 0 2l1 2c0 1 2 1 0 1l-1 3-1 2-1 2-2 2-2 1-2 2-3 1-3-1-1-2h-6l-2-1m-36-48l-1-1h-1l-1 1 1 1 1 1h2v1c1 1 1 0 1-1v-1l-1-1m-20 3h-1l-1 1 1 1h1v-2z" onclick="sicilia('giallo')"/>
  <path fill="#e38300" d="M253 734l-2 2v3l-2 1 1 3 3-1 2-1-2-2 2-2v-2l-2-1zm-18 2v1l-2 2c0 2 0-1-1-1h-4l1 2 2 1-2 2 1 2v3l-2 1h-2c0 2 0 2-2 2l-2 1h-5l-2 1-1 2-2 2-1 2-2 2-1 2-3 1-1 2-1 3-1 2-2 2h-2s-2-1-2 1c1 2 0-1 2 0v1l-3 1-2 2h-6l-2 2-2 1-2 2-2 2-2 1-2 2-3 1h-6l-2-2-2-1h-3l-3 1-2-1-3-1-1-2-2-2-2-2v-3-3l-2-2-2-1-1 3-1 1c-1 1 1 2 1 2l2 2 1 2v3l-1 2-1 2-1 3-1 2-1 2v3l-2 2v2l2 1 2 2 2 1-1 2v2l-2 2-2 1-1 2 1 3v2c1 1 2-1 2-1v-3l1-2h3v2l-1 2v2h3l1-2 3-1h2l1 2 1 3 1 3v2c0 2 1 1 2 1l2 2v2l1 3 1 2v3l-1 2-1 3 1 2 2 1 2 2h2l2 3s2 1 0 1-1 1 0 1c1 1-1 3-1 3l-1 2v6l-1 3 2 2 1 3 1 1-1 2v3h-2c-1-1-2 1-2 1h-5l-1 2 2 1 1 2v3l-2 1 1 2v4l1 3 1 1 1 3c0 1 1 2 1 0l1-2 2-2 2-2 2 1 2 1 1 2 1 3v3l-1 3v2l-1 3-1 3-2 2-1-2-1-2-2-2-2 2 1 2 1 3-2 2 1 2v4l1 3 1 2-1 3-1 2v3l-2 2-2 2s-2 1-1 2v3l2 2-1 2-1 2-2 2c2 1 0 1 1 2l2 2 1 2 1 2v3l-1 2-1 2-3 2-1 2 2 1 1 2 2 2c0 2 1 1 2 2l1 2-1 2 3 1 1 3 1 2 1-1 2 1 1 2 2 1 2 3-2 1 1 3 1 3h3l1 2-1 3-1 2 2 1c2 0 1 0 1 2 0 1 1 2 2 1l1-2v-2l2-1 2-1 2-2 1 1 2 2 2 2h1c0-2 0 0 1 0l1 1s2 2 3 1l1-2 3-1 1-2 1-2 2-1 3-2 1-2s1-2 1 0c2 2 1-1 1-1l1-3 1-3 1-1-1-2-2-2v-5l1-2 1-2 2-3 1-2 2-1h2l2 2 2 2 1-3 1-2 2-1 3 1h3l3 1 1 1 2 2 3 1 1 2 2 1 2 2h2l3-1 2 1 1 3 1 2 1-3 1-2 2-1 1-3v-2l-1-3 1-3v-2l1-2 2-2 2-1c1-1 0-1-1-2l-1-1v-3-3l1-2 1-3 1-3v-3l1-3-2-1v-4l2-1 1-3v-3l-1-3-1-3 1-2 1-2v-3l1-3v-2l-1-2 1-4v-1l1-3 1-2-1-1v-3l1-2 1-2v-2l-1-2v-3-3l1-3 1-1c1-1 2-2 1-3v-3l-3-1-2-1-1-2-1-3-1-2-1-2v-3l-1-3 1-2 1-3 1-2 1-2 2-2 1-2 2-2 2-1 2-1 1-3 1-3 1-1 1-3 1-2 1-3v-2l-1-2-2-2-1-2c1-2-1 0-2-1l-1-2-1-2 1-1c1-1 1-2-1-2v-1c2 1 1-1 2-1v-3l-1-2-3-1c0-1 2-1 1-2l-1-2-1-1-2-2v-2c0-1-2-1-1-2l2-1v-3l3-1-3-1s0-2-1-1l-2 1v-2h0v-1 1h-1l-2-2 1-2 1-1-2-1-2 1-2 1-2-1h-2-3l1-2 2-1c0 1 1 2 2 1l1-2 1-2 1-3c1-2 1 0 2-1l2-2h-3l-2-1-1 2-1-2v-2l-1 1-1 1-2 1 1-2v-3l1-1c-2-1 1-1 0-1 0-2 1-1 2-2l1-2-1-1c-2 1-1 0-1-1l-1-2s-1-3-2-2l-2 1-2 1v3h-2v-3l-2-1c0-1-3-1-2-2l2-2-3-1h-3l-1-2h-2l-2 2-3-1s-2-1-1-2c0 0 2-1 1-2l-1-2-2-1-2-1zm23 1l-1 3-2 2 1 2-2 2 3-1h2v-3l1-2-1-2-1-1zm-105 16zm0 0l-2 2h-1v4c0 1-3 0-1 1l-2 1-1 1-2 2v1c0 1-1 1 1 2v2l2 1c1 1 2 0 2-1v-2c-1-2-2-1-2-3l2-2 1-2 1 1 2 1c1 1 2 0 2-1l1-3v-2l-1-1-2-2zm121 13l-2 2 2 1c1 1 2-1 2-1l-2-2zm7 10l-2 2-2 2c-1 1-1 1 1 1l2-1 2-1c1-1 1-2-1-3 1 0 0 0 0 0zM152 981l-1 1h-2l-3 1-2 1v2l3 1v3l2 2h2l1-2c1-2 0-2 2-3l-2-1v-4-1zm7 8zm0 0l-2 2-1 2 1 3 1 3 1 2 1 2 1 2 1 2 2-1 1-2 1-4 1-2-2-2 2-2-1-2-2-2h-4l-1-1z" onclick="sardegna('giallo')"/>
  <path fill="#e38300" d="M211 319l-1 1h-1l-2 2h-1l-2 1v1h-1l1 1v5l-3 2h-1l-2 1h-1-1l-1 2-1 2-1 1-2 1-2-1h-1l-2 1-2 1v1l-2 1-3-1-3-1h-2l-1-1h-4l-2-1h-2l-2 1h-1l-1 2-1 2-1 1-1 1a7 7 0 01-3 0h-1l-1-2-2-1v-1l-2-1h-2-1l-2 1-1 2-1 2-1 3-1 3-1 1-1 1-1 1c0 1 0 0 0 0v3l-1 2-1 2-2 1-2 1-1 2-1 1v5 3l1 2v3a6 6 0 010 2l-1 1-3 1h-3-1l-1 1h-1l-1 1 1 2c0-1 0 0 0 0a13 13 0 010 2v1l-1 1-2-1h-1-4a11 11 0 01-3 0h-1v-1h-2l-3-1-2-1h-2l-2 1 2 3c1 1-2 3-2 3l-2 3c-1 1-2 1-1 3 1 1 0 2-1 3l-2 2-3 1-3 3-1 3-3 2-3 2c-1 2 0 3 1 3l1 4c1 2 0 2 2 3l1 2 3-1c0-2 2 1 2 1l5 1 3-1c2-1 0-2 3-2l3-1c0-1 2 0 3-2l4 1c1 1 2-1 4-1l3-1c3 0 2-1 3-2s2 0 3-2l4-1 2-2h4v-2l1-2h2l1-1 2-1 1-1 1-2v-1l-1-2 1-2 1-1 1-2 2-1 1-1 1-1v-3-3-1l1-2 1-2 1-2h2l2-1 3-1a2852 2852 0 012-1l2-1 2-1 1-1v-2-2l2-1 1-1 1-2-1-1-1-2 2-1 1-1 2-1-2-1 1-2h5l2-1 1-1 1-2 1-1 2-1 2-1 2-1 2-1 1-1 1-1 2-1h4l2 1h2l1-1 2 1 1 1 2 1 2-1h2v2h2l2 1 2-1 2 1 2 1h3l2 1h2l1 1 1 2 1 1v2l1 1 2 1 1 1h3l-1-2v-2-1l2-1 2 1 2 1 2 1 2 1h1l2 2 1 1 2 1 1 1v3h1s2 0 1-1l1 1 1 1 2 1h2l1 2 1 1 2 1 1 1 2 1 1 1 1 1 1 1 1 2 1 1 1 1c1 1 1 0 1-1l1-1h2l1 2 1 1 1 1 2 2 1 1 2 1 1 1 2 1 2 2h2l1-1-1-2-1-1-1-2 1-1 1 1 2 1 1 1h2l1 2 1 2h1l2 1 2 1h2l1-2v-2l1-1c1 0 0 0 0 0l1-1v-1-1c1 0 1 0 0 0l-1-1h-3l-1-1-1-1-2-2-2-2-1 1h-1-2v1l-1-1-1-2 1-3h1v-1h-1-1l-1 1-3 1-1-1-1-1v-2-3-1h1l1-1v-1l-3-2-3-2-2-1-2-2-1-2v-1l-1-1h-4l-1-2v-3l1-2-1-1v-1h-4l-3 1h-3l-3 1v1l-1 1h-4l-2-2v-2-1l2-3 1-1h1l1-3v-1l1-1v-1l1-1-1-2v-1h-4l-2-1-1-1-1-1h-1l-1 1-1 1h-4l-3-1-1-2-2-1-1-1-1 1h-3l-1 1-2 2h-4-1l-2-1-1-2v-1l-1-1v-1h-1a47 47 0 01-3 0h-1v-1l-2-2-1-2-1-1c0-1 0 0 0 0z" onclick="liguria('giallo')"/>
  <path fill="#d6131d" d="M389 188l-3-2-3-2 1-4c2-3 3-8 3-11 0-2-1-3-5-4h-10l-5 1-7 5-4 1v-1c0-2-1-3-3-4l-4-3v-2-2l2-4-2-6-1-3c0-3 0-4 2-6l4-6 2-3 1-4 1-7v-5-4-5l-2-3-1-1 1-2c2 0 5-1 6-3 3-2 4-5 3-8l1-2h2l4-3 4-2v1l1 3c1 2 3 3 5 3l3-1 2-2 2-3 2-1 2 1 3 2 2 1c3 1 5 0 5-2l-1-3-2-1c-2 0-3-1-3-2l2-1h4l2 5 4 1h3l1 2c1 3 2 6 1 12 0 4 0 4-2 6-3 3-3 4-1 8 2 3 2 4 4 4h3l4-2 3-4c1-2 2-2 3-1l2 2c2 0 3-1 1-4v-2l3-1 3-3 2-2 4-1c3 0 5 0 7-3l2-4c1-2 2-2 2-6l1-5 2-2h4l3 1 3-1h2v1l-2 4 2 2 3 1 1 1-2 2c-3 1-4 4-4 6v2l-2 4 2 5v2c0 2 0 2 5 4l4 2v2 3c2 2 2 4 0 6-2 3-3 3-5 4l-4 1h-5c-4 0-7 2-7 6l-1 3 1 4 1 3-2 2-3 1-4-2-2-3c-2-2-4-3-6-2l-1 1-2 2-1 2h-3c-4 0-5 0-6 4l-1 2-1 3v2l-2-2c-2-2-3-3-5-2-2 0-4 5-4 7v3l-1 3-2 4c-2 2-3 4-3 8l-1 5-1 1-2 1h-4c-2-2-5-2-5-1l-5 3z" onclick="trento('giallo')"/>
  <path fill="#e38300" stroke="#000" stroke-linejoin="round" stroke-width=".3" d="M414 115l-3-7c0-1 0-2 2-3l3-6c0-7 0-10-2-13-1-3-2-3-5-3l-3-1-1-1-1-3v-1l-1-1-1 1h-3l-3 1-1 1 4 3 3 2v1l-3 1-3-2-3-1-2-1-5 4-1 2h-4c-2 0-4-3-4-4l-1-3-4 3-4 2-2 1h-1l-2-1c-2-3-5-4-7-4l-3-2-3-1-4-2-1-1h2c2 0 3-1 3-2l1-4c1-2 0-5-1-6l-1-2c-1-2-2-2-4-2l-2-1v-1c2-1 2-2 2-5l1-5 1-3v-3-1l1-2 1-2 3-1 3 1h3l2-1 1-1 4-1 4 1c2 2 2 2 1 3v2l1 3 3 1 3 1 3 1h4l5 1h10l2-4 2-4 1-3 2-5v-2c0-2 1-3 3-4 2 0 3-1 3-3l1-1 7-1c3-2 7-2 10 0h2c3 0 5-1 7-3l1-2 1 2 4 2c2 0 3-1 5-3l1-1 2 1c2 2 3 3 4 2s1-1 3 1 4 2 6 0l4-1 5-2 6-4 2-1c2-1 3-2 8-2l4-2h2l4-2 5-1-1 2c-1 2-2 2-5 3s-5 3-4 6v2l2 4 1 2v4l3 2 1 1c0 1 1 2 3 2l1-1 2-1 1 2 1 3v2 6l3 1c2 0 3 1 3 2l1 2v2l2 2 1 2 2 2 1 1-2 2-2 2-5 1-5 2-4 1-1-2c0-1-1-3-3-3l-1-2-7-3c-2-1-3 0-4 1l-1 4-1 4-2 1-2 5c0 3-1 3-2 5h-3-2l-4 2h-7-10l-2 2-1 6-2 6-2 4-2 2h-3l-5 1-3 2-3 3-4 2 1 2v3l-1-1-1-2c-2 0-3 0-4 3-2 3-4 4-5 4l-5 1h0z" onclick="bolzano('giallo')"/>
  <path fill="#d6131d" d="M555 60l-1 1v5l1 1 1 2 1 2-1 1-1 1h-1l-3 1-2 1-3 1h-2-1v1l1 1 1 1h1v1l1 1-1 1-1 1h-1l-2 2-1 1-1 1h-2-1l-1-1h-2v1l-1 1 1 1-1 1-2 1v1l-1 1-1 2h-1l-2 1-1 2-2 3-2 2v1l-1 1v2l-1 1v4l1 3 1 1h3c2 0 2 1 3 2l2 2v1l1 1 2 4-1 3-1 1-1 2-1 2-1 2v2l-1 3-1 3v2l-2 4v2h1l3 1 1 2 1 1 2 1h1l1 2v3l1 2v1h1v1h1l1 1 3 1h2l3 1 3-1h1l1-2 1-1h2l1-1h2l2 1 4 1 2 1h3l-1-1 1-1 1-1h3l1-1 1-1h2c1 1 0 0 0 0l1 1v2l-1 2v6l1 1 1 2v3h1l1 1v1l1 1 1 1v5l1 1 2 1v2l1 1h-1 2l1-2 1-1 1-2 1-1 1-1h1l-1-1-1-2-1 2-1 1-2 1-1-2-1-1-1-2 2-1 1-1 1-2 1-2 1-1h3l1 1 1-1c1-1 1 1 2 1l2 1 1 1h6l2 1 2 1 2 1v2l-1 1 1 1v2l2 1 2-1h2l2-1 1-2h2l2-1 1-1h3l-1-2-2-1-1-1v-1l1-2 1-1h2l2 1 2 1 2 1 1 1 2 2 2 2 1 1 1 1 1 2 2 1v1l2 2-1 1v2h2l1 1 2 1-1 1-1 1-1-1h-6l2 2h2l2 1 2 1h6l1-2 1-2 1-1 1-1v-2l-2-1-2-1-1-2-1-2-1-2-1-2-1-2-1-1h-3l-2-2-2-1-1-1-1-2-2-1h-2l-2-1-3-1-1-2v-5l1-1v-3l1-1 1-2 1-1 1-1-1-2 1-1 1-2-2-1h-6l-1 1h-2l-2-1-1-1-2-2 1-1 1-1 2-2-2-1-1-1h1v-1l2-1 2-1 1-2 2-1 2-1 1-1 2-2 1-2 2-1 1-2-1-2-1-1h-3-2l-2-1-2-1-1-1-1-1h-2l-1 1-2-1-1-1h-2v1l-1 2-2-2v-2-2l-1-2-1-2v-3l2-1 2-1 1-2v-2-1l1-1h2l2-1 1-2 1-1 2-1h2l2-1v-2l1-2h4l2 1h2l1-1 1-2v-2l1-2-1-1v-2l1-2-1-1h-3l-2-1h-2l-2-1h-2l-1 1-1-1-1-1h-3l-1-1-2-1-1 2h-2l-2-1-2-1-2-1h-1l-2 1h-2l-1 1-1 1-2-1h-2l-1 1h-2l-2-2-2-1-2-1-2-1-2-1h-4l-2 1h-4l-2-1h-2l-2-1h-2-2l-2 1h-2l-2-1-1-1v-2l-2-1-1-1h-2l-1-1zm40 122h-1c-1 1-2 0-1 1h4l1-1h-3zm10 1l-1 1 1 2 2-1-1-1-1-1z" onclick="friuliveneziagiulia('giallo')"/>
  <path fill="#e38300" d="M83 147v2l-2 1-2 1-2 1-2 1-2 1-1 1-1 2h-3l-2-1h-1l-1 1-2-1h-1l-1 1-2 1-1 1h-3l-1 2v1l-1 1-2-1-1-1h-2l-1 2h-1l-1 1-1-1v-3l-1-1-1-1-1-2-1-1-1-1-1 1-1 2v4l-2 1-2 1h-2l-2 1-1 1-2 2-2 1h-5v2l-1 3v3l1 2v4l1 1 2 2 1 2 3 1 1 1 1 2h2l1-1h2c1-1 1 0 1 1h2c1-1 1 1 1 1l-2 1-1 2 1 2-1 2 2 1-1 2-1 1 1 2 1 1-1 2 1 1 2 1h2l1 2v1l2 1 1 1 2-1h4l1 1h1l2-2 2-2 3-1 2 1h1l1-1 2-2 2 1 1 1 1-1 1-1 1-1 2-2v-1l1-1 2-2h5l2 1 2 1 2 1h3l3-1 3 1 3 1h5l2-1 1-1 1-1 1-1h1l1-1h1v-1l1-1 2-2v-1-1l1-2-1-2-1-2v-2l1-1 1-1v-1l-1-1-1-2-1-2h-1l-1-2v-3l-1-2v-2-1l1-3 1-3-1-3 1-2 1-1v-1l-2-1h-2l-1 1-2-1-2-1h-1l-2 1-1-1v-2l-2-1-2-1-1-1h-3l-2 1-2-1-2-1h-2z" onclick="valledaosta('giallo')"/>
  <path fill="#d6131d" d="M680 708a9 9 0 00-1 0h-1v1a8 8 0 010 1l-1 1v4a14 14 0 001 2l1 1v2l-1 1-2 1-1 1h-4l-3-2v-1l-1-1v-3-2l-1-1-1-1h-1l-1 1-1 2v1l-2 2-2 1v7a17 17 0 001 3 16 16 0 010 1v2l-1 1v1l-2 2h-1l-1 2h-1l-1 1-3 1-2 1h-1l2 2 1 1 2 2 1 2 2 2 1 2 1 2 1 2 1 2 2 2v3l1 3 1 2 2 1 1 2 1 3 2 2v2h1-1 1l1 2 1 2 1 2v3l-1 2v4h4l1 1c1-1-1-2-1-2l-1-2v-1l2-1h2l2 1 2 1-1 2c-1 1 1 1 1 1l2-1 2-1 1-2 1-1 2-1h3l2 1 2 1 2 2 1 2 1 2 1 1 2 1 1 1h2l1 1 2 2 1 2-2 1-2 1-1 2-1 2-1 2-2 1h-2l-1-1h-1l-1 2-1 2v2l1 2h2l1-2 3-1 2-1h3l1-1 2-1v-1c1-1 2 1 2 1l2 1 1 1-2-3-2-1h2l2 1 1 2h2l1-1 2-1 2-1 1-1 2 1h1l1 1 2-1v-2l1-2h4l2 1 2 1 1 1 2 2 1 2 2 3 1 1 2 1v2l1 2 1 2v2l1 2 2 2 1 3 1 2v2l1 2v4l-1 1-2 1-2 1v2 2l1 2-1 1h-1l-2 1-1 1 1 2 1 1 2 1 1-1h1l1 2 2 1 1 2 2 1 1 2c1 0 2-2 2 0h2l1-1h2l3 1 1 2 1 1 1 2h2l2 1 2 2 1 1 1 2 1 1 1 2-1 1-2 1v1h3l1-1h2l1 1 1 2h2s1-1 1 1h5l1-2 1-1 2-2 1-2 1-1 2-1 3-1h4l1 1 2 1v2h3l1-3v-3-2l1-1v-1-1l1-2v-1l1-3v-1a43 43 0 010-2l1-1 3-1h2l1-1 1-1v-2-3-1l-1-1v-1h-1-2l-1-1h-1l-1-1h-1v-1l-1-2-1-2v-2-1h-1l-1-2-2-1-3-2v-1h-1v-1l-1-1v-1h-1v-1-1l-2-1-1-1-2-2-1-2-2-2v-1l-1-2-1-2-1-1v-1-1-1l1-1 1-2c1-1 0 0 0 0v-1l-2-1-2-1-1-1h-1v-1c0-1 0 0 0 0h-1l-1-1-1-2v-1l-1-1v-2-1-2-1l-1-1-1-2-1-1v-1-1-1h3a18 18 0 010-2l1-1v-1h5l4 1 1-1v-1-1l2-1s1 0 0 0l1-1 1-2 1-1 1-2v-1-1-1-2-1l-1-2-1-2v-1l-1-1-1-1-4-1-3-1-1-1h-1l-1 1h-1l-3 1h-1-3l-2-1-3-1-1-1v-1l-1-3-1-3v-1-2l1-1v-1-1-2-3l-1-1v-1h-1l-3-1h-4l-2 1-1-1v-1-1l-1-1-1-2-1-1-1-1-1-1v-2l1-3 2-1-1-3-1-1v-1h-2v-1h-1l-1-2-1-1h-1l-2-1h-2l-3 1-1 1-1 1-1 1h-1v2h-1-2-1-1l-3-2v-1l-1-1-1 1v2l-1 1h-1v1l-1 1h-1v1l-1 1-2 1-1 1h-1l-1 1h-2l-1 1h-2l-1-1h-4l-3-1h-2l-2-1h-1l-1-1-1-1-1-1-2-1-2-1c-1-1 0 0 0 0l-3-1-1-1-1-1-1-1-1-1h-1-1l-1-1h-2l-2-1-3-1h-4zm-12 87l-1 1-1 2 1 1 1-2 2-1v-1h-2zm-12 1l-1 1-1 2v4h2l2 1h3l2-1 2-1-1-3-1-1-2-1h-3l-2-1zm36 23l-2 1-1 1c-1 1-1 0-2-1l-2-1v2c-1 1-2 1-1 2h4l2-1 2-1v-2z" onclick="campania('giallo')"/>
  <g stroke="#000">
    <path fill="none" d="M253 734l-2 2v3l-2 1 1 3 3-1 2-1-2-2 2-2v-2l-2-1s0 0 0 0zm-18 2v1l-2 2c0 2 0-1-1-1h-4l1 2 2 1-2 2 1 2v3l-2 1h-2c0 2 0 2-2 2l-2 1h-5l-2 1-1 2-2 2-1 2-2 2-1 2-3 1-1 2-1 3-1 2-2 2h-2s-2-1-2 1c1 2 0-1 2 0v1l-3 1-2 2h-6l-2 2-2 1-2 2-2 2-2 1-2 2-3 1h-6l-2-2-2-1h-3l-3 1-2-1-3-1-1-2-2-2-2-2v-3-3l-2-2-2-1-1 3-1 1c-1 1 1 2 1 2l2 2 1 2v3l-1 2-1 2-1 3-1 2-1 2v3l-2 2v2l2 1 2 2 2 1-1 2v2l-2 2-2 1-1 2 1 3v2c1 1 2-1 2-1v-3l1-2h3v2l-1 2v2h3l1-2 3-1h2l1 2 1 3 1 3v2c0 2 1 1 2 1l2 2v2l1 3 1 2v3l-1 2-1 3 1 2 2 1 2 2h2l2 3s2 1 0 1-1 1 0 1c1 1-1 3-1 3l-1 2v6l-1 3 2 2 1 3 1 1-1 2v3h-2c-1-1-2 1-2 1h-5l-1 2 2 1 1 2v3l-2 1 1 2v4l1 3 1 1 1 3c0 1 1 2 1 0l1-2 2-2 2-2 2 1 2 1h0l1 2 1 3v3l-1 3v2l-1 3-1 3-2 2-1-2-1-2-2-2-2 2 1 2 1 3-2 2 1 2v4l1 3 1 2-1 3-1 2v3l-2 2-2 2s-2 1-1 2v3l2 2-1 2-1 2-2 2c2 1 0 1 1 2l2 2 1 2 1 2v3l-1 2-1 2-3 2-1 2 2 1 1 2 2 2c0 2 1 1 2 2l1 2-1 2 3 1 1 3 1 2 1-1 2 1 1 2 2 1 2 3-2 1 1 3 1 3h3l1 2-1 3-1 2 2 1c2 0 1 0 1 2 0 1 1 2 2 1l1-2v-2l2-1 2-1 2-2 1 1 2 2 2 2h1c0-2 0 0 1 0l1 1s2 2 3 1l1-2 3-1 1-2 1-2 2-1 3-2 1-2s1-2 1 0c2 2 1-1 1-1l1-3 1-3 1-1-1-2-2-2v-5l1-2 1-2 2-3 1-2 2-1h2l2 2 2 2 1-3 1-2 2-1 3 1h3l3 1 1 1 2 2 3 1 1 2 2 1 2 2h2l3-1 2 1 1 3 1 2 1-3 1-2 2-1 1-3v-2l-1-3 1-3v-2l1-2 2-2 2-1c1-1 0-1-1-2l-1-1v-3-3l1-2 1-3 1-3v-3l1-3-2-1v-4l2-1 1-3v-3l-1-3-1-3 1-2 1-2v-3l1-3v-2l-1-2 1-4v-1l1-3 1-2-1-1v-3l1-2 1-2v-2l-1-2v-3-3l1-3 1-1c1-1 2-2 1-3v-3l-3-1-2-1-1-2-1-3-1-2-1-2v-3l-1-3 1-2 1-3 1-2 1-2 2-2 1-2 2-2 2-1 2-1 1-3 1-3 1-1 1-3 1-2 1-3v-2l-1-2-2-2-1-2c1-2-1 0-2-1l-1-2-1-2 1-1c1-1 1-2-1-2v-1c2 1 1-1 2-1v-3l-1-2-3-1c0-1 2-1 1-2l-1-2-1-1-2-2v-2c0-1-2-1-1-2l2-1v-3l3-1-3-1s0-2-1-1l-2 1v-2h0v-1 1h-1l-2-2 1-2 1-1-2-1-2 1-2 1-2-1h-2-3l1-2 2-1c0 1 1 2 2 1l1-2 1-2 1-3c1-2 1 0 2-1l2-2h-3l-2-1-1 2-1-2v-2l-1 1-1 1-2 1 1-2v-3l1-1c-2-1 1-1 0-1 0-2 1-1 2-2l1-2-1-1c-2 1-1 0-1-1l-1-2s-1-3-2-2l-2 1-2 1v3h-2v-3l-2-1c0-1-3-1-2-2l2-2-3-1h-3l-1-2h-2l-2 2-3-1s-2-1-1-2c0 0 2-1 1-2l-1-2-2-1-2-1zm23 1l-1 3-2 2 1 2-2 2 3-1h2v-3l1-2-1-2-1-1zm-105 16s0 0 0 0 0 0 0 0 0 0 0 0zm0 0l-2 2h-1v4c0 1-3 0-1 1l-2 1-1 1-2 2v1c0 1-1 1 1 2v2l2 1c1 1 2 0 2-1v-2c-1-2-2-1-2-3l2-2 1-2 1 1 2 1c1 1 2 0 2-1l1-3v-2l-1-1-2-2zm121 13l-2 2 2 1c1 1 2-1 2-1l-2-2s0 0 0 0zm7 10l-2 2-2 2c-1 1-1 1 1 1l2-1 2-1c1-1 1-2-1-3 1 0 0 0 0 0zM152 981l-1 1h-2l-3 1-2 1v2l3 1v3l2 2h2l1-2c1-2 0-2 2-3l-2-1v-4-1zm7 8s0 0 0 0 0 0 0 0 0 0 0 0zm0 0l-2 2-1 2 1 3 1 3 1 2 1 2 1 2 1 2 2-1 1-2 1-4 1-2-2-2 2-2-1-2-2-2h-4l-1-1zM518 1119c-1 0-2 2-3 0v-3h2l1 2v1zm-2 6l-2-2h-2l-1 3 1 1c1 0-1 1 1 2 2 0 1-1 2-2h1l2 2h3l-2-2-1-2h-2zm-24-6h-2l-1 1v1l1 1 1 1 1 1 1 1h1v-1-2l-1-2-1-1s0 0 0 0zm-4 132l-1 1h-1l-1-1-2-1-1-1-1 1-1 1v1 3l1 1 1 2 1 1 1 1 1 1 1 1h3l1-1 1-1 1-2v-1l-1-1 1-1v-1l-1-1h-1l-1-2h-1zm52 146h-7l1 1h4l1 1 1 1h3v-1l1-1h-3l-1-1zm25-39l-2 1v1l2 1 2-1-2-2zm213-333l-2 1-2 1 1 1 1 1h2l1-2 1-1-1-1h-1zm-14 19l-2 1 1 1h1v-2zm-19 7l-2 1-1-1-2-1v2l-1 1c-1 1 0 1 1 1l2 1 1 1 1 1c1 1 2 0 2-1v-2l1-1-1-2h-1zm6 7c-1-1-1 0-2 1v1l-1 2v2l2 1 2 1v2h1l1-2 1-1-2-2h2l-1-2-1-1 2-1-1-1c-1-1-1 0-2 1l-1-1zm4 13l-2-1 2-1h-2l-1 2 1 2v2h2l2 1h2c1-1 0-1-1-2l-1-2-1-1h-1zm-162-37c-2 0-2 2-2 2-1 1-2 1-1 2h5l-1-2-1-2zm163 67l-2-2-2-1-2-2-2 1-2 1h-3l-2 1-3 1-2-1h-2l-2 2-2 2-1 2-2 2-1 2h-3l-3 1-2 1-2 2-2 1h-4l-2-1h-3l-2 2-2 1h-2l-3 1h-8c-2-2-2-1-3-1h-3s0-3-1-2l-2 2h-6l-2-2-1-2-3 1-3 1-3 1-2 1-2 2-2 1-3 1-3 1h-6l-2-2h-3l-3-1-2-1-3-2-2-2-2-2 1-2v-3l-2-2h-2l-1 2h-3l-3 1-2-1-2-1c-1-1-2-2-1-3v-3l-1-2c0-2-1-1-2-2l-1-2-2-1-2 1-1 2-3-1-1 2-2 1-3 1-3-1-2-1h-2l-1 2-1 2-2 2 1 2 1 2-1 3-2 1-2 2h-3l-2 2h-2l-3 1-2-1-2-2-2-1-2-2-2-1-1-3v-3l-1-2v-3c-2-1-1 1-2 1l-2-1c0-1 0-3-2-1v2l2 2v2l-1 2-2 2-2-1c-1 0-2 0-1 1l-1 3-2 1-3 1h-3l-2 1-2 2-2 2h-2l2 2v2l-1 3-2 2-1 2-1 2-2 1c-1 1 0 2 1 3l1 2 1 1v4h-2c-2 0-1 1-1 3l3 1 1 2v6l2 1 1 2 2 2h2l4 1 1 1 2 3v2l2 2 2 2 3 1 1-1 2-2h10l2-1 3 1h3l2 1 2 2 1 2 1 2 2 2h2l3-1 1 1h3l2 1h3l1 3h3v2l2 2v3l2 2h2l2 2 2 1 2 1 2 1 2 2c1 1 2 0 2 2l1 2h7l2 1c1 0 1-2 2 0l2 1 2 2 2 2 2 1 1 3 2 1 2 1 2 2 2 2 2 1 3-1 4 1 1 2 1 2 3 1h4l3-1h7s0 0 0 0h4l4 1 2 1 3 1 3 1 2 2 2 2 3 2 3 2 1 1 2 3 2 1 1 3v2l2 2 2 2 1 3v3l1 2 2 2 2 1 2 1 4-1 3 1 2 1 3 2 1 2 3 1 2-1c1-1 1 1 1 1l2 1c1 1 3 0 3-1l3-1h2l3-1 2 2 2 1 3 2h2c1-1 0-2 2-2l2 1 1 2 2 2 2 1 2-1 2-2 1-2-2-2 1-2-1-2-2-2-1-3 1-2v-3l2-2 2-2 1-2v-3l2-2 2-2 1-2h3c1 0 2 0 2-2l1-2h2l2 1c2 0 1-1 1-2l-1-2-2-1h-3l1-2 2 1v-3l1-1-2-2-2-1-2-1-1-2-2-1-1-3-1-2v-3l1-2h1v3c1 1 2-1 2-2h1l1-2-2-2-2-2s0 0 0 0 2 2 1 0-1-1-2-1h-2l-3-1c-1 0 1-2-1-1l-3-1v-3l-1-4v-3-7l1-3v-2l2-2 2-2 2-2 1-3v-2l1-3 1-3v-2c-1-2 1-2 1-2v-3l-1-2 1-2 2-2 2-2 1-2 1-2 2-2 1-2 1-2 2-2 1-2 1-3 1-3 2-1 1-3 2-1 1-3 2-2 2-3 2-2 1-3 1-2 2-2 2-5v-3l1-1 2-2h3v-2h-4l-2-2-2-2-2-1-2 2-2 2-2 1-3 1-2 2-3 1-2 1-3 1-3 1h-3l-1-3v-3l-2-2c-2 0-1 1 0 2l1 2c0 1 2 1 0 1l-1 3-1 2-1 2-2 2-2 1-2 2-3 1-3-1-1-2h-6l-2-1m-36-48l-1-1h-1l-1 1 1 1 1 1h2v1c1 1 1 0 1-1v-1l-1-1s0 0 0 0m-20 3h-1l-1 1 1 1h1v-2z"/>
    <path fill="#e38300" d="M901 868a6 6 0 00-2 0l-4 2-2 1h-4v1l-1 2-1 3-1 1s0 0 0 0v3l-1 3-3 3-1 1s0 0 0 0l1 1-1 2-1 2h-2-8s0 0 0 0v1l-1 1-3 1h-4l-3 2h-6l-2-2-2-2v-1-1a70 70 0 000-4l-4-1-3 1h-3l-2-3-1-1s0 0 0 0h-4v1s0 0 0 0v4h-1v1l-2 3-2 3-1-1 1 1v1l1 2 1 1 1 2-1 2-2 2 1 2 1 1 1 2 1 2v2l-1 3 1 2v4c1 2 2 1 2 3v2l1 1 1 2 1 2v4l2 1 2 2 1 2 2 2 1 1 2 2 1 2 1 1 1 3v2l1 3 1 3 1 2v7l1 2v14l1 2 1 2v2l1 2 1 2v2l1 2 1 1 2 2v2l1 2 1 1 2 1 2 1 1 2 1 2v3l-1 2v2l-1 3-1 2v1l-1 2-1 2-1 2-2 1h-2l-1 1h-2l-2-1-2-1h-2l-2 1-1 1-2 1-1 1h-3l-2 2-2 1h-2l-1 2-1 1v2l1 2 2 1 2 2 1 1 2 2 1 2-1 2v2l-1 2-1 2-1 3-2 2-1 3v3s0 0 0 0 0 0 0 0l-1-1v2l-1 3-1 2v2l-1 2-2 1-2 1-2 1-3 1h-2l-1 1-3 1-1 2v2l-1 1 1 2 1 2v4l-2 1 1 2v1 2l1 1v8l2 2v1l2 2 2 1 1 1 2 2h2l3 1h3l1-2h10l1 1h5l2-1h3l1-1 1-2 2-3 1-1 1-2v-2l1-3v-3l1-2v-3l1-2 1-2 1-2 2-1 2-1v-2l2-1 1-2 1-1 1-2 2-2 1-2 2-1h2l2-1 2-2h2l2-2 2-1 1-2 3-1 1-2 2-2 1-2 1-2v-2-3-1l-1-3v-2-2-3-3-2l-1-3v-3l-1-2v-2l1-3 1-1 1-1 1-3 1-1 1-3 1-1 2-1c1 0 0 0 0 0l3-1 1-1 2-1 1-2 3-1 2-1 2-1 2-1 3-1 3-1h2l2-1 2-1 2 1 2 1 1 2 1 1v-1h5l1 2 1-1 1-2 2-2 3-1 1-1-1-2v-2l1-2 3-1v-2h-2l-3-1-2-2v-3c1-1-1-2-1-2l-2-2 1-2 1-2 1-2 1-1v-2-3l-1-2-2-1v-2-2l1-1-1-3v-2l1-2 1-1 1-1v-3-2h-2l-2-1-1-1-2-2-2-1-1-2-1-1-1-2h-3l-2-1-3-1-2-1-1-2-1-1-2-1-2-1-1-2-1-2-1-1-2-2h-4l-1 1-2-1h-2l-2 1h-2l-2-1-2-1-2-1-2-1-2-1v-4l1-1c1-1 0-2-1-2l-1-2-2-1v-2l-1-3v-2l2-2 1-2 1-2 1-2 2-2 1-2 2-2 1-1 2-2 1-2-1-2-1-2-1-2v-2-3l1-1v-3l2-1 1-2 1-1-4-2-3-1z" onclick="calabria('giallo')"/>
    <g fill="none">
      <path d="M556 405v1h0v1s0 0 0 0l-1 1-1 1v1s0 0 0 0v1l1 2v1l1 1c0 1 0 2-2 3 0 0 0 0 0 0l-2 1h-4l-2 1-1 1-1 1v1s0 0 0 0h-1l-1 1h-1l-1-1-1-1v-1s0 0 0 0l-1-1h-1l-1-2s0 0 0 0 0 0 0 0l-3 1-1-1-1-1v-1l1-2 1-1 2-2s0 0 0 0l-1-1s0 0 0 0h-1v-1l-1 1-1 2-1 1-1 1h-2l-1-1h-2l-1-2 1-2-1-1h-1l3 9-5 2-2 1-2 3-5 2 5-1-7 4v1h-1v1s0 0 0 0h7l2 1 2 2 1 2s0 0 0 0v1l-1 1v3l-1 1v1h-1-1-1l-1-2v-1l-1-2s0 0 0 0 0 0 0 0l-1 1-1 2-2 1-2 1-1 1h-1l-1 1h-1l1 2v3s0 0 0 0l1 1h2l2 1h3l2-1h1c1 0 0 0 0 0h1v-1h2l2 2v3l-1 2-2 2-1 1v1s0 0 0 0l1 1h2l1 1v-1h1s0 0 0 0h2l1 1s0 0 0 0h5v1s0 0 0 0l1 1 2 2v1l1 1 1 1 1 2v1s0 0 0 0h1l1 1s0 0 0 0 0 0 0 0h2s0 0 0 0l1-1 1-1v-1h3l2 1h1s0 0 0 0 0 0 0 0l1-1s0 0 0 0l1-1s0 0 0 0 0 0 0 0l1-1h2s0 0 0 0 0 0 0 0a10 10 0 010 1h1s0 0 0 0 0 0 0 0v2h1v4l1 2a9 9 0 01-1 3s0 0 0 0l2 2s0 0 0 0l1 1 2 1v2l1 1v4l1 1s0 0 0 0l1 1v2s0 0 0 0 0 0 0 0l1 1v3l1 1v1l1 1s0 0 0 0v1h-1v1l-1 3v1c0 1 0 0 0 0v1s0 0 0 0l1 3 1 2v2l1 2a12 12 0 011 1s0 0 0 0l1 2 1 2v4l1 3v2l1 1 1 1h1l2 1 1 2v2s0 0 0 0l1-1h1v-1l1-1 1-1 1-2c1-1 1 0 1 1l3 1s2 0 3 2c0 0 0 0 0 0l1 1 2 2v1h5s0 0 0 0l1-1h3l-1 1c-1 1 0 0 0 0h2v1h0v5l-1 2-1 2-2 1-2 2v3h4l3 1h2l1 2v2l1 1h1v1h3l2-1 1-1s1 0 0 0l2-2c1-1 1-2 3-2a7 7 0 001-1v-1-1-1l2-3 1-2 2-2 2-1h5l3 1 2 1 2 1s0 0 0 0l2-2 2-2 2-2 2-2h2l1-1h1l1-1 2-1 1-1h5s0 0 0 0v-2l-1-2-1-3-1-3-1-2-1-2v-2l-1-3v-2-3-2l-1-2-2-2-1-2v-2l-1-2-1-2v-2-2l-2-2v-2l-2-2v-2l-2-3v-3l-1-2-1-2-1-2-1-2v-2l-1-1-2-2 1-2-1-2-1-2v-5-2l-2-1-2-1-1-2-2-1-2-2-1-1h-2v1c1 1-1 1-2 1l-2-1-2-1h-2l-2-2-1-1-2-1-5-2-1-1-1-2-2-1s0 0 0 0l-2-2-1-1-2-1-1-2-2-1-1-1-2-1-1-1-1-2-1-1-2-1-1-2h-2l-1-2-2-1-1-1-1-1-2-1-1-1-2-1v-2l-2-1-1-1-2-1-2-1h-2l-2-1-1-1h-2z"/>
      <path d="M517 451s0 0 0 0 0 0 0 0-1 0 0 0l-2 1c-1 0 0 0 0 0l-2 1h-5l-2-1s0 0 0 0h-1l-2-1v1l-1 1v1l-1 1-1 1v1l-1 3h-1s0 0 0 0 0 0 0 0v1s0 0 0 0 0 0 0 0l3 1h1v2l-1 1h-1v2h-3-2s0 0 0 0l-1 1-1 1v1l-1 1-1 1s0 0 0 0v1l-1 1h1l1 1 1 1s0 0 0 0h2v1s0 0 0 0l1 1s0 0 0 0l1 1h2v3s0 0 0 0l1 1v1s0 0 0 0 0 0 0 0l1 1h2s0 0 0 0 0 0 0 0h1v-1h1s0 0 0 0v-1h4l1 1h1v4s0 0 0 0l-1 1-2 2h-1s0 0 0 0 0 0 0 0h0s0 0 0 0l-2 1-1 1h-1l-1 1h-2v1h-1l-1 1-1 1h-1v1h-2-1l-1-1-1-1s0 0 0 0h-1-1s0 0 0 0l-1 1c-1 1 0 0 0 0v1h-1l-1 1v2h-1-1l-2 1-1 1-1 1h-2s0 0 0 0v1l-1 1v1l1 1 1 2 1 2v2l-1 1s0 0 0 0 0 0 0 0v1s0 0 0 0 0 0 0 0l2 1s0 0 0 0h1s0 0 0 0l1 1h1v4h-1v2l-1 1c1 0 0 0 0 0v2l-1 1v3 3s0 0 0 0v2l-1 2s0 0 0 0v1s0 0 0 0v1l-1 1c-1 0 0 0 0 0v2h-1l-1 1h-1l-1 1v1l1 3s0 0 0 0l1 1 2 1 3 1v1h1l1 2-1 1-3 1-1 1-1 1s0 0 0 0l1 2c1 1 0 0 0 0l3 3h1l1 1 2 2 1 1c1 1 1 0 0 0h4l1-1 1-1a13 13 0 011-2s0 0 0 0l1-1 2-1 3 1 1 1 1 1 2 1 2 2 1 3 1 3 1 3 1 2v3l1 3 1 1h6l2-1 1-1h2l2 1v1l1 1-1 3-1 1s0 0 0 0v1l1 2 1 1 1 2v2l-1 1s0 0 0 0l1 1v1s0 0 0 0 0 0 0 0l3 1 2 2 1 1c1 0 0 1 0 0v1h1s0 0 0 0l1-1 2-2 2-2s0 0 0 0l1-1-1-3v-3-2l1-1h2l1 1 1 1v1h1l1 1h1v-1l2-1h1s0 0 0 0l1-2s0 0 0 0v-1-1-2-1-1s0 0 0 0 0 0 0 0 0 0 0 0 0 0 0 0l1-1h2s0 0 0 0l1-1h1l1-2v-1-1l1-1h1l1-1 1-2 2-2 1-2 2-1v-1h1l1 1v-1h1l1-1h3l2-1 1-1 1-1h4l1 1s0 0 0 0l2-2 3-1 1-1h1s0 0 0 0l1-1 1-2a11 11 0 011-3 2 2 0 011 0v-1-1l1-3 2-1 1-2 2-1v-1-3-2s0 0 0 0h-1-1l-1 1h-4s0 0 0 0l-2-1-1-1-1-1-1-1-1-1-2-2h-2l-1-1s0 0 0 0l-1 2v1l-1 1-1 1s0 0 0 0 0 0 0 0l-1 1h-1l-1-1-1-1v-1l-1-2s0 0 0 0h-1l-2-1-2-2v-2l-1-3v-2-2l-1-2a12 12 0 01-1-2s0 0 0 0l-1-1-1-2v-2l-1-3-1-1v-2-1-1-1l1-2v-2h1l-1-1-1-2v-2s0 0 0 0l-1-1v-1-1s0 0 0 0l-1-1-1-1v-1-2-1l-1-1v-2l-1-1h-1l-1-1-1-1-1-2v-1l1-2-1-2v-2-1s0 0 0 0l-1-2s0 0 0 0 0 0 0 0h-1c0 1 0 1 0 0v1s0 0 0 0 0 0 0 0 0 0 0 0 0 0 0 0 0 0 0 0h-1v1s0 0 0 0 0 0 0 0l-1 1h-1l-3-1s0 0 0 0h-1s0 0 0 0h-1l-1 2s0 0 0 0l-2 1h-1-1-1a7 7 0 01-1-1l-1-1-1-1v-1s0 0 0 0l-2-2v-1l-1-1-1-2h-1l-1-1h-1s0 0 0 0h-2s0 0 0 0l-1 1-1-1-1-1s0 0 0 0 0 0 0 0 0 0 0 0h-2-2l-1-1-1-1h-1v-1h-1a1 1 0 011-2s0 0 0 0l2-1 2-2v-2-1l-1-1z"/>
      <path d="M297 341s0 0 0 0l-3 1-3 1-2 1h-1l-3 2h-1l-1 1s0 0 0 0v1l-1 1v2l-1 2-1 2-1 1 1 1v2l1 1 1 2 3 1 2 2 3 1 1 2-1 2v1h-1s0 0 0 0v5s0 0 0 0h2l1-1 1-1s0 0 0 0h3l1 1v2l-1 2-1 1h1s0 0 0 0h1l1-1 3 1 2 2 2 2v1h4l2 1v4l-1 1v1h-1v3l-1 1h-1l4 1h1l2 2 1 1 1 1 1 1 1 3 2 1 1 1 2 1 1 2 1 1 1 2v3l1 3 1 1 1 2 1 1v12l2 2v2l-1 1-1 1c-1 1 0 1 1 2v1l1 3-1 1v2l1 2 2 1-1 2-1 1 1 2v3l1 2 1 1 1 2 1 1 2 1 1 1 1 2 1 2 1 1 1 2 1 1 1 2v2l1 5 2 1 2 1 1 1v3l1 2v2l1 3v4l1 2-1 2v10l-1 2v2l-1 2-2 2-1 1v4l1 2v1l2 2h2l2-1-1-2 1-1 2-1h5l3 1 2 1 2 1 2 1 1 1 2 1 1 1v6l-1 2v2l-1 1-1 1c-1 1 0 2 1 2l1 1 2 1h5l1 1 2 1h2l2 1 1 1 2 1 1 1 1 2 2 1 1 1v4l2 1 2 1 2 1 1 1v3h1v2l1 1 1 2v1c1 1 1 0 2-1h1l1 2 1 1 1 2v2l1 2-1 1-1 2-1 2-1 1-2 1-1-1-1-1-2 1-1 1 1 2v1l-1 2h2l2 1 2 1 1 1h3l2-1v-2-2l2-1h5l2 1h5l2 1 2 1 2 1v-3-2l1-2v-1h1l1-1 3 1h3l2 1h1l1-1v-1-1l1-3-1-1v-1h-1l-2-1v-1l-1-1v-2-1s0 0 0 0l1-1v-1l1-1 4 1 1-1 1-2 3-1 2-2 2-1h2v-1l1-1h1l-1-2-1-1v-1l-1-1v-1-1l1-1h2l1-1-1-1-3-1s0 0 0 0l-1-1c-1 0 0 0 0 0l-1-2v-1a10 10 0 010-2v-1l2-1 1-1 1-1 1-1h2l2 2c1 1 0 0 0 0s0 0 0 0h1v-1l1-2 1-1 2-1h2l1-1 1-1 1-1v-1l1-1s0 0 0 0 0 0 0 0v-1c0-1 0 0 0 0l1-1v-1s0 0 0 0v-2-2-2-1-1l1-2v-1l1-2s0 0 0 0v-1l1-2s0 0 0 0v-1s0 0 0 0h-1c-1 0 0 0 0 0h-1v-1s0 0 0 0h-1-1-1v-2-1s0 0 0 0h0l1-1v-1s0 0 0 0l-1-2-1-2-1-2 1-2c0-1 0 0 0 0v-2l2-1h2l2-2 1-1h1s0 0 0 0 0 0 0 0 0 0 0 0l1-1s0 0 0 0l1-1v-1l1-1h1l1-1h3l1 1v1h1s0 0 0 0 0 0 0 0h1l1-1 2-1s0 0 0 0l1-1 3-1s0 0 0 0l1-1 1-1h2s0 0 0 0 0 0 0 0v-1h1l1-1 1-1s0 0 0 0v-2s0 0 0 0h-2-1a22 22 0 010 1s0 0 0 0h-1l-1 1h-1s0 0 0 0h-2s0 0 0 0l-1-1h-1-1v-1-1c0-1 0 0 0 0v-1s0 0 0 0 0 0 0 0h-1a2 2 0 010-2s0 0 0 0 0 0 0 0l-2-1-1-1v-1s0 0 0 0 0 0 0 0h-1s0 0 0 0h-1v-1s0 0 0 0l-1-1h-1-1l-1-1 1-2s0 0 0 0 0 0 0 0v-2l1-1h1v-1l1-1 1-2h1l1-1h4v-1s0 0 0 0l1-1h-2-1l-1-1v-1s0 0 0 0l-1-1v-1h1l1-1s0 0 0 0l1-1 1-2v-1l1-1 1-1v-1l1-1s0 0 0 0h-1l1-1v-1-2l-1-2 1-1 1-1s0 0 0 0l1-1h1l1-1 2-1 2-1 1-1v-1l1-1h2l1 1 1 2v2s0 0 0 0h1s0 0 0 0v-1-1l1-2s0 0 0 0v-1l-1-1-2-2-1-1-1 1h-3-1s0 0 0 0a1 1 0 01-2 0v-1l-1-1v-1l1-2s0 0 0 0v-1s0 0 0 0h-1-1s0 0 0 0l-2 1s0 0 0 0 0 0 0 0v1s0 0 0 0c-2-1 2 3 3 5h-1v1l-1 1-3-2h-3s0 0 0 0l-6 2h-3l-1-1-1-1-1-1h-2l-1-1v-1h-1-1l-2-1v-1l-2-1h-1l-1 1a7 7 0 01-5 0l-1-1-2-1-1-1-1-2-1-1h-1l-2-2-1-1-2-2-2-1-1-1v-1-2l1-1h-1l-1-3-1-1v-1l-1-1 1-2h1s0 0 0 0 0 0 0 0v-1l1-1s0 0 0 0h-2v-1-1-1l2-1 3-1c-1 0 0 0 0 0v-1l1-2v-2l1-1v-1-1-1s0 0 0 0l-1-1h-1s0 0 0 0l-2 2h-5s0 0 0 0l-1 1h-2l-2-1v-4-1s0 0 0 0 0 0 0 0l-2-1s0 0 0 0h-1s0 0 0 0l-1 1h-4l-1-1-1-1-2-2-1-2-2-2s0 0 0 0 0 0 0 0h-1v1c0 1 0 0 0 0l-2 2-1 1h-2-1l-1-1v-1l-1 1v1h-3l-1 2-3 1-1 1v2h1l1 1v4h-6l-3 1h-3l-2-1s0 0 0 0h-1l-1 1h-1l-1-1h-1v-1l-1-1v-1l-2-2c0-1 0-1 0 0 0 0 0 0 0 0l-2 2v1l-1 1v1l-1 1s0 0 0 0v1h-1s0 0 0 0h-1-1s0 0 0 0 0 0 0 0h-2l-2-1-1-1-1-1h-1l-1-1-1-1h-1l-1-1-1-1-2-2h-3-1l-1 1h-1l-1 1h-2v1l-1 1-1 1h-4l-2-2-2-2-2-2-1-1-1-1-2-2-1-1-2-2-2-2-1-2h-1s0 0 0 0l-1-1h-1l-2-2-1-1a40831 40831 0 01-4-1l-1 1h0s0 0 0 0 0 0 0 0h-1-3l-2-2h-1v-1-1s0 0 0 0 0 0 0 0l-3-1-1-1-1-1h-2l-1-1h-1v-1l-1-1h-2l-3-1-3-2-1-2-1-3-1-1v-1l-2-2-2-2v-2s0 0 0 0h-2zm109 236s0 0 0 0v0zm-117-62l-1 2v2l-1 2-2 1 2 1 1 1 1-2h2v-2-2l-1-2h-1v-1zm54 26l-2 3-1 2-1 1v2l-2 1-2-1h-1c-1-1 1-1 1-2h-4l-1-2v3l-1 1-2 1c-1 0 0 2-1 1l-2-2-2-1h-2l-2 1-2 1-1 1 1 3v2l1 1 1 1h8l2-1 2-1 2 1v-2h1l1 2c1 1 1-1 1-1l1-2 2 1v1l1 2 2 2h1l2 1 1-1 1-2-2-2h-1l-2-2c-1 0-1 0 0 0l2-1 2-1v-2l-1-2 1-2 1-2-1-1-2-2zm-30 30v3h-2l-2 1v1l2 1 1 1h2v-2-2l-1-2v-1s0 0 0 0zm72 29c1 1-1 0-1 1v1l-1 2 1 1 1 2 1 1 2 1 1-1v-2l-1-2-1-2-1-1-1-1zm-51 4h-2l-1 2v2l1 1h2l1-1 1-1-1-2-1-1s0 0 0 0z"/>
    </g>
  </g>
</svg>
